{"glyphs":{"0":{"ha":1824,"x_min":111,"x_max":1743,"o":"m 1743 475 l 113 475 l 113 700 l 729 700 l 729 701 q 731 718 729 713 l 731 721 l 731 722 q 733 739 731 728 q 736 751 733 743 q 806 858 753 817 q 928 900 858 900 q 1028 874 982 900 q 1101 801 1074 847 q 1128 701 1128 756 l 1128 700 l 1743 700 l 1743 475 m 931 515 q 1022 540 979 515 q 1088 606 1064 564 q 1113 699 1113 649 q 1088 790 1113 747 q 1022 856 1064 832 q 931 881 979 881 q 838 856 881 881 q 772 790 796 832 q 747 699 747 749 q 772 606 747 649 q 838 540 796 564 q 931 515 881 515 m 1014 836 q 1038 821 1025 826 l 817 821 q 842 839 831 833 q 869 850 858 847 q 928 863 893 863 q 989 850 960 863 l 1014 836 m 1050 808 q 1092 700 1092 754 q 1083 643 1092 672 q 1054 593 1076 619 l 839 593 l 1050 808 m 806 588 q 774 640 786 608 q 764 700 764 668 q 765 725 764 717 q 775 756 768 742 q 803 801 783 782 l 1018 801 l 806 588 m 147 625 l 183 625 l 183 521 l 224 521 l 224 625 l 260 625 l 260 663 l 147 663 l 147 625 m 318 564 l 329 564 l 347 533 q 364 521 351 521 l 400 521 l 375 565 q 349 579 361 579 l 353 579 q 375 589 364 579 q 386 613 386 599 q 371 649 386 635 q 335 663 356 663 l 276 663 l 276 521 l 318 521 l 318 564 m 456 521 l 456 663 l 415 663 l 415 521 l 456 521 m 531 663 l 469 521 l 501 521 q 521 535 511 521 l 524 544 l 574 544 l 579 535 q 596 521 583 521 l 628 521 l 567 663 l 531 663 m 643 521 l 732 521 l 732 558 l 683 558 l 683 663 l 643 663 l 643 521 m 1232 663 q 1180 642 1200 663 q 1160 589 1160 621 q 1181 538 1160 558 q 1232 517 1201 517 q 1285 537 1264 517 q 1306 589 1306 557 q 1285 642 1306 621 q 1232 663 1264 663 m 1417 611 q 1421 583 1417 594 l 1419 583 l 1376 647 q 1360 660 1371 660 l 1325 660 l 1325 519 l 1367 519 l 1368 575 q 1363 601 1368 589 l 1411 528 q 1426 519 1419 519 l 1457 519 l 1457 660 l 1417 660 l 1417 611 m 1485 519 l 1575 519 l 1575 556 l 1525 556 l 1525 660 l 1485 660 l 1485 519 m 1654 561 q 1658 575 1654 569 l 1710 660 l 1671 660 q 1654 650 1660 660 l 1639 624 q 1635 609 1636 615 q 1633 600 1635 603 q 1628 624 1633 611 l 1613 650 q 1596 660 1607 660 l 1558 660 l 1610 575 q 1613 561 1613 571 l 1613 519 l 1654 519 l 1654 561 m 332 624 q 343 613 343 624 q 333 603 343 603 l 318 603 l 318 624 l 332 624 m 1232 556 q 1208 565 1218 556 q 1199 589 1199 575 q 1208 613 1199 603 q 1232 624 1218 624 q 1255 614 1246 624 q 1264 589 1264 604 q 1255 565 1264 574 q 1232 556 1246 556 m 543 592 q 549 618 549 608 l 550 618 q 554 592 550 604 l 563 574 l 536 574 l 543 592 m 871 544 q 819 575 849 553 l 1038 575 l 1014 557 q 989 544 996 547 l 958 538 q 928 533 942 533 q 871 544 896 533 m 119 342 l 129 342 l 129 382 l 168 382 l 168 392 l 129 392 l 129 424 l 175 424 l 175 435 l 119 435 l 119 342 m 226 350 q 208 358 215 350 q 201 378 201 365 l 201 435 l 190 435 l 190 378 q 201 351 190 361 q 226 340 211 340 q 253 351 243 340 q 264 378 264 361 l 264 435 l 253 435 l 253 378 q 246 358 253 365 q 226 350 239 350 m 289 342 l 339 342 l 339 351 l 299 351 l 299 435 l 289 435 l 289 342 m 358 342 l 411 342 l 411 351 l 368 351 l 368 435 l 358 435 l 358 342 m 539 435 q 533 431 533 435 l 504 363 q 501 353 501 354 q 499 363 501 354 l 469 431 q 463 435 468 435 l 456 435 l 497 342 l 506 342 l 546 435 l 539 435 m 617 342 l 617 351 l 569 351 l 569 383 l 608 383 l 608 394 l 569 394 l 569 424 l 617 424 l 617 435 l 560 435 l 560 342 l 617 342 m 649 381 l 663 381 l 690 346 q 700 342 696 342 l 707 342 l 678 379 q 672 382 675 382 l 675 382 q 690 390 682 383 q 697 407 697 397 q 689 427 697 419 q 669 435 681 435 l 638 435 l 638 342 l 649 342 l 649 381 m 713 354 q 742 340 726 340 q 763 348 756 340 q 771 368 771 356 q 744 396 771 389 q 728 411 728 404 q 732 421 728 417 q 743 425 736 425 q 758 421 753 425 q 765 424 763 418 l 767 426 q 743 435 761 435 q 724 428 732 435 q 717 411 717 422 q 742 386 717 397 q 763 368 763 378 q 757 355 763 360 q 742 350 751 350 q 724 358 732 353 q 719 359 722 360 q 715 357 717 358 l 713 354 m 801 342 l 801 435 l 793 435 l 793 342 l 801 342 m 871 435 q 837 421 851 435 q 822 388 822 407 q 837 354 822 368 q 871 340 851 340 q 905 354 892 340 q 918 388 918 368 q 905 421 918 407 q 871 435 892 435 m 1001 365 q 1003 358 1001 361 l 954 432 q 946 435 950 435 l 938 435 l 938 342 l 949 342 l 949 414 l 947 421 l 1001 344 q 1004 342 1001 342 l 1014 342 l 1014 435 l 1001 435 l 1001 365 m 871 350 q 844 361 856 350 q 832 388 832 372 q 844 414 832 403 q 871 425 856 425 q 897 414 886 425 q 908 388 908 403 q 897 362 908 374 q 871 350 886 350 m 669 424 q 681 419 676 424 q 686 407 686 414 q 681 397 686 401 q 669 392 676 392 l 649 392 l 649 424 l 669 424 m 1715 394 l 1689 418 l 1686 414 q 1688 406 1683 410 l 1701 393 l 1067 393 l 1067 383 l 1700 383 l 1688 371 q 1686 363 1685 365 l 1689 358 l 1715 383 q 1718 389 1718 386 l 1715 394 m 771 294 q 722 275 742 294 q 701 226 701 256 q 722 176 701 196 q 771 157 742 157 q 822 176 801 157 q 842 226 842 196 q 822 275 842 256 q 771 294 801 294 m 1113 179 q 1165 157 1138 157 q 1202 169 1188 157 q 1217 201 1217 182 q 1175 246 1217 238 q 1161 254 1161 250 q 1168 260 1161 260 l 1175 257 q 1185 256 1178 256 q 1201 265 1196 256 l 1208 279 q 1168 294 1194 294 q 1134 283 1147 294 q 1121 254 1121 272 q 1165 211 1121 226 q 1176 201 1176 207 q 1165 193 1176 193 q 1147 200 1161 193 q 1136 203 1143 203 q 1119 194 1128 203 l 1113 179 m 1281 226 q 1300 176 1281 196 q 1350 157 1319 157 q 1381 165 1367 157 q 1401 183 1394 172 l 1393 196 q 1378 201 1389 201 q 1367 199 1371 201 q 1349 193 1358 193 q 1328 203 1336 193 q 1319 226 1319 213 q 1328 249 1319 240 q 1349 258 1336 258 q 1367 253 1356 258 q 1378 250 1369 250 q 1393 256 1389 250 l 1401 268 q 1381 287 1396 279 q 1350 294 1365 294 q 1300 275 1319 294 q 1281 226 1281 256 m 1482 294 q 1431 275 1451 294 q 1411 226 1411 256 q 1431 176 1411 196 q 1482 157 1451 157 q 1532 176 1513 157 q 1551 226 1551 196 q 1532 275 1551 256 q 1482 294 1513 294 m 219 158 l 219 196 l 181 196 q 163 189 172 196 l 215 260 q 221 275 221 265 l 221 293 l 117 293 l 117 257 l 153 257 q 168 263 163 257 l 118 194 q 111 176 111 186 l 111 158 l 219 158 m 331 158 l 331 196 l 276 196 l 276 210 l 321 210 l 321 243 l 276 243 l 276 257 l 331 257 l 331 293 l 238 293 l 238 158 l 331 158 m 339 257 l 375 257 l 375 158 l 414 158 l 414 257 l 446 257 l 446 293 l 339 293 l 339 257 m 493 293 l 433 158 l 464 158 q 481 172 476 158 l 485 181 l 533 181 l 538 172 q 544 163 539 167 q 556 158 550 158 l 586 158 l 526 293 l 493 293 m 597 158 l 638 158 l 638 204 l 681 204 l 681 239 l 638 239 l 638 257 l 690 257 l 690 293 l 597 293 l 597 158 m 946 246 q 950 221 946 231 l 910 281 q 903 290 907 286 q 892 293 899 293 l 861 293 l 861 158 l 900 158 l 900 213 q 896 236 900 224 l 897 236 l 943 167 q 957 158 949 158 l 986 158 l 986 293 l 946 293 l 946 246 m 1001 257 l 1035 257 l 1035 158 l 1075 158 l 1075 257 l 1108 257 l 1108 293 l 1001 293 l 1001 257 m 1694 293 q 1679 281 1683 293 l 1654 232 q 1651 217 1651 224 l 1650 217 q 1646 232 1650 226 l 1622 281 q 1615 290 1618 286 q 1606 293 1611 293 l 1571 293 l 1571 158 l 1610 158 l 1610 217 q 1606 238 1610 228 l 1607 238 l 1633 181 q 1651 171 1638 171 q 1667 181 1661 171 l 1693 238 q 1690 217 1690 224 l 1690 158 l 1728 158 l 1728 293 l 1694 293 m 771 193 q 749 203 758 193 q 740 226 740 213 q 749 249 740 240 q 771 258 758 258 q 793 249 785 258 q 801 226 801 240 q 793 202 801 211 q 771 193 785 193 m 1482 193 q 1460 202 1468 193 q 1451 226 1451 211 q 1460 249 1451 240 q 1482 258 1468 258 q 1503 249 1494 258 q 1513 226 1513 240 q 1503 203 1513 213 q 1482 193 1494 193 m 504 225 q 508 251 508 242 l 510 251 q 514 225 510 233 l 522 207 l 497 207 l 504 225 m 1228 176 q 1233 163 1228 168 q 1249 157 1239 157 q 1263 163 1257 157 q 1268 176 1268 168 q 1263 192 1268 186 q 1249 199 1257 199 q 1233 192 1239 199 q 1228 176 1228 186 z "},"1":{"ha":1824,"x_min":111,"x_max":1743,"o":"m 1743 475 l 113 475 l 113 700 l 729 700 l 729 701 q 731 718 729 713 l 731 721 l 731 722 q 733 739 731 728 q 736 751 733 743 q 806 858 753 817 q 928 900 858 900 q 1028 874 982 900 q 1101 801 1074 847 q 1128 701 1128 756 l 1128 700 l 1743 700 l 1743 475 m 931 515 q 1022 540 979 515 q 1088 606 1064 564 q 1113 699 1113 649 q 1088 790 1113 747 q 1022 856 1064 832 q 931 881 979 881 q 838 856 881 881 q 772 790 796 832 q 747 699 747 749 q 772 606 747 649 q 838 540 796 564 q 931 515 881 515 m 1014 836 q 1038 821 1025 826 l 817 821 q 842 839 831 833 q 869 850 858 847 q 928 863 893 863 q 989 850 960 863 l 1014 836 m 1050 808 q 1092 700 1092 754 q 1083 643 1092 672 q 1054 593 1076 619 l 839 593 l 1050 808 m 806 588 q 774 640 786 608 q 764 700 764 668 q 765 725 764 717 q 775 756 768 742 q 803 801 783 782 l 1018 801 l 806 588 m 147 625 l 183 625 l 183 521 l 224 521 l 224 625 l 260 625 l 260 663 l 147 663 l 147 625 m 318 564 l 329 564 l 347 533 q 364 521 351 521 l 400 521 l 375 565 q 349 579 361 579 l 353 579 q 375 589 364 579 q 386 613 386 599 q 371 649 386 635 q 335 663 356 663 l 276 663 l 276 521 l 318 521 l 318 564 m 456 521 l 456 663 l 415 663 l 415 521 l 456 521 m 531 663 l 469 521 l 501 521 q 521 535 511 521 l 524 544 l 574 544 l 579 535 q 596 521 583 521 l 628 521 l 567 663 l 531 663 m 643 521 l 732 521 l 732 558 l 683 558 l 683 663 l 643 663 l 643 521 m 1232 663 q 1180 642 1200 663 q 1160 589 1160 621 q 1181 538 1160 558 q 1232 517 1201 517 q 1285 537 1264 517 q 1306 589 1306 557 q 1285 642 1306 621 q 1232 663 1264 663 m 1417 611 q 1421 583 1417 594 l 1419 583 l 1376 647 q 1360 660 1371 660 l 1325 660 l 1325 519 l 1367 519 l 1368 575 q 1363 601 1368 589 l 1411 528 q 1426 519 1419 519 l 1457 519 l 1457 660 l 1417 660 l 1417 611 m 1485 519 l 1575 519 l 1575 556 l 1525 556 l 1525 660 l 1485 660 l 1485 519 m 1654 561 q 1658 575 1654 569 l 1710 660 l 1671 660 q 1654 650 1660 660 l 1639 624 q 1635 609 1636 615 q 1633 600 1635 603 q 1628 624 1633 611 l 1613 650 q 1596 660 1607 660 l 1558 660 l 1610 575 q 1613 561 1613 571 l 1613 519 l 1654 519 l 1654 561 m 332 624 q 343 613 343 624 q 333 603 343 603 l 318 603 l 318 624 l 332 624 m 1232 556 q 1208 565 1218 556 q 1199 589 1199 575 q 1208 613 1199 603 q 1232 624 1218 624 q 1255 614 1246 624 q 1264 589 1264 604 q 1255 565 1264 574 q 1232 556 1246 556 m 543 592 q 549 618 549 608 l 550 618 q 554 592 550 604 l 563 574 l 536 574 l 543 592 m 871 544 q 819 575 849 553 l 1038 575 l 1014 557 q 989 544 996 547 l 958 538 q 928 533 942 533 q 871 544 896 533 m 119 342 l 129 342 l 129 382 l 168 382 l 168 392 l 129 392 l 129 424 l 175 424 l 175 435 l 119 435 l 119 342 m 226 350 q 208 358 215 350 q 201 378 201 365 l 201 435 l 190 435 l 190 378 q 201 351 190 361 q 226 340 211 340 q 253 351 243 340 q 264 378 264 361 l 264 435 l 253 435 l 253 378 q 246 358 253 365 q 226 350 239 350 m 289 342 l 339 342 l 339 351 l 299 351 l 299 435 l 289 435 l 289 342 m 358 342 l 411 342 l 411 351 l 368 351 l 368 435 l 358 435 l 358 342 m 539 435 q 533 431 533 435 l 504 363 q 501 353 501 354 q 499 363 501 354 l 469 431 q 463 435 468 435 l 456 435 l 497 342 l 506 342 l 546 435 l 539 435 m 617 342 l 617 351 l 569 351 l 569 383 l 608 383 l 608 394 l 569 394 l 569 424 l 617 424 l 617 435 l 560 435 l 560 342 l 617 342 m 649 381 l 663 381 l 690 346 q 700 342 696 342 l 707 342 l 678 379 q 672 382 675 382 l 675 382 q 690 390 682 383 q 697 407 697 397 q 689 427 697 419 q 669 435 681 435 l 638 435 l 638 342 l 649 342 l 649 381 m 713 354 q 742 340 726 340 q 763 348 756 340 q 771 368 771 356 q 744 396 771 389 q 728 411 728 404 q 732 421 728 417 q 743 425 736 425 q 758 421 753 425 q 765 424 763 418 l 767 426 q 743 435 761 435 q 724 428 732 435 q 717 411 717 422 q 742 386 717 397 q 763 368 763 378 q 757 355 763 360 q 742 350 751 350 q 724 358 732 353 q 719 359 722 360 q 715 357 717 358 l 713 354 m 801 342 l 801 435 l 793 435 l 793 342 l 801 342 m 871 435 q 837 421 851 435 q 822 388 822 407 q 837 354 822 368 q 871 340 851 340 q 905 354 892 340 q 918 388 918 368 q 905 421 918 407 q 871 435 892 435 m 1001 365 q 1003 358 1001 361 l 954 432 q 946 435 950 435 l 938 435 l 938 342 l 949 342 l 949 414 l 947 421 l 1001 344 q 1004 342 1001 342 l 1014 342 l 1014 435 l 1001 435 l 1001 365 m 871 350 q 844 361 856 350 q 832 388 832 372 q 844 414 832 403 q 871 425 856 425 q 897 414 886 425 q 908 388 908 403 q 897 362 908 374 q 871 350 886 350 m 669 424 q 681 419 676 424 q 686 407 686 414 q 681 397 686 401 q 669 392 676 392 l 649 392 l 649 424 l 669 424 m 1715 394 l 1689 418 l 1686 414 q 1688 406 1683 410 l 1701 393 l 1067 393 l 1067 383 l 1700 383 l 1688 371 q 1686 363 1685 365 l 1689 358 l 1715 383 q 1718 389 1718 386 l 1715 394 m 771 294 q 722 275 742 294 q 701 226 701 256 q 722 176 701 196 q 771 157 742 157 q 822 176 801 157 q 842 226 842 196 q 822 275 842 256 q 771 294 801 294 m 1113 179 q 1165 157 1138 157 q 1202 169 1188 157 q 1217 201 1217 182 q 1175 246 1217 238 q 1161 254 1161 250 q 1168 260 1161 260 l 1175 257 q 1185 256 1178 256 q 1201 265 1196 256 l 1208 279 q 1168 294 1194 294 q 1134 283 1147 294 q 1121 254 1121 272 q 1165 211 1121 226 q 1176 201 1176 207 q 1165 193 1176 193 q 1147 200 1161 193 q 1136 203 1143 203 q 1119 194 1128 203 l 1113 179 m 1281 226 q 1300 176 1281 196 q 1350 157 1319 157 q 1381 165 1367 157 q 1401 183 1394 172 l 1393 196 q 1378 201 1389 201 q 1367 199 1371 201 q 1349 193 1358 193 q 1328 203 1336 193 q 1319 226 1319 213 q 1328 249 1319 240 q 1349 258 1336 258 q 1367 253 1356 258 q 1378 250 1369 250 q 1393 256 1389 250 l 1401 268 q 1381 287 1396 279 q 1350 294 1365 294 q 1300 275 1319 294 q 1281 226 1281 256 m 1482 294 q 1431 275 1451 294 q 1411 226 1411 256 q 1431 176 1411 196 q 1482 157 1451 157 q 1532 176 1513 157 q 1551 226 1551 196 q 1532 275 1551 256 q 1482 294 1513 294 m 219 158 l 219 196 l 181 196 q 163 189 172 196 l 215 260 q 221 275 221 265 l 221 293 l 117 293 l 117 257 l 153 257 q 168 263 163 257 l 118 194 q 111 176 111 186 l 111 158 l 219 158 m 331 158 l 331 196 l 276 196 l 276 210 l 321 210 l 321 243 l 276 243 l 276 257 l 331 257 l 331 293 l 238 293 l 238 158 l 331 158 m 339 257 l 375 257 l 375 158 l 414 158 l 414 257 l 446 257 l 446 293 l 339 293 l 339 257 m 493 293 l 433 158 l 464 158 q 481 172 476 158 l 485 181 l 533 181 l 538 172 q 544 163 539 167 q 556 158 550 158 l 586 158 l 526 293 l 493 293 m 597 158 l 638 158 l 638 204 l 681 204 l 681 239 l 638 239 l 638 257 l 690 257 l 690 293 l 597 293 l 597 158 m 946 246 q 950 221 946 231 l 910 281 q 903 290 907 286 q 892 293 899 293 l 861 293 l 861 158 l 900 158 l 900 213 q 896 236 900 224 l 897 236 l 943 167 q 957 158 949 158 l 986 158 l 986 293 l 946 293 l 946 246 m 1001 257 l 1035 257 l 1035 158 l 1075 158 l 1075 257 l 1108 257 l 1108 293 l 1001 293 l 1001 257 m 1694 293 q 1679 281 1683 293 l 1654 232 q 1651 217 1651 224 l 1650 217 q 1646 232 1650 226 l 1622 281 q 1615 290 1618 286 q 1606 293 1611 293 l 1571 293 l 1571 158 l 1610 158 l 1610 217 q 1606 238 1610 228 l 1607 238 l 1633 181 q 1651 171 1638 171 q 1667 181 1661 171 l 1693 238 q 1690 217 1690 224 l 1690 158 l 1728 158 l 1728 293 l 1694 293 m 771 193 q 749 203 758 193 q 740 226 740 213 q 749 249 740 240 q 771 258 758 258 q 793 249 785 258 q 801 226 801 240 q 793 202 801 211 q 771 193 785 193 m 1482 193 q 1460 202 1468 193 q 1451 226 1451 211 q 1460 249 1451 240 q 1482 258 1468 258 q 1503 249 1494 258 q 1513 226 1513 240 q 1503 203 1513 213 q 1482 193 1494 193 m 504 225 q 508 251 508 242 l 510 251 q 514 225 510 233 l 522 207 l 497 207 l 504 225 m 1228 176 q 1233 163 1228 168 q 1249 157 1239 157 q 1263 163 1257 157 q 1268 176 1268 168 q 1263 192 1268 186 q 1249 199 1257 199 q 1233 192 1239 199 q 1228 176 1228 186 z "},"2":{"ha":1824,"x_min":111,"x_max":1743,"o":"m 1743 475 l 113 475 l 113 700 l 729 700 l 729 701 q 731 718 729 713 l 731 721 l 731 722 q 733 739 731 728 q 736 751 733 743 q 806 858 753 817 q 928 900 858 900 q 1028 874 982 900 q 1101 801 1074 847 q 1128 701 1128 756 l 1128 700 l 1743 700 l 1743 475 m 931 515 q 1022 540 979 515 q 1088 606 1064 564 q 1113 699 1113 649 q 1088 790 1113 747 q 1022 856 1064 832 q 931 881 979 881 q 838 856 881 881 q 772 790 796 832 q 747 699 747 749 q 772 606 747 649 q 838 540 796 564 q 931 515 881 515 m 1014 836 q 1038 821 1025 826 l 817 821 q 842 839 831 833 q 869 850 858 847 q 928 863 893 863 q 989 850 960 863 l 1014 836 m 1050 808 q 1092 700 1092 754 q 1083 643 1092 672 q 1054 593 1076 619 l 839 593 l 1050 808 m 806 588 q 774 640 786 608 q 764 700 764 668 q 765 725 764 717 q 775 756 768 742 q 803 801 783 782 l 1018 801 l 806 588 m 147 625 l 183 625 l 183 521 l 224 521 l 224 625 l 260 625 l 260 663 l 147 663 l 147 625 m 318 564 l 329 564 l 347 533 q 364 521 351 521 l 400 521 l 375 565 q 349 579 361 579 l 353 579 q 375 589 364 579 q 386 613 386 599 q 371 649 386 635 q 335 663 356 663 l 276 663 l 276 521 l 318 521 l 318 564 m 456 521 l 456 663 l 415 663 l 415 521 l 456 521 m 531 663 l 469 521 l 501 521 q 521 535 511 521 l 524 544 l 574 544 l 579 535 q 596 521 583 521 l 628 521 l 567 663 l 531 663 m 643 521 l 732 521 l 732 558 l 683 558 l 683 663 l 643 663 l 643 521 m 1232 663 q 1180 642 1200 663 q 1160 589 1160 621 q 1181 538 1160 558 q 1232 517 1201 517 q 1285 537 1264 517 q 1306 589 1306 557 q 1285 642 1306 621 q 1232 663 1264 663 m 1417 611 q 1421 583 1417 594 l 1419 583 l 1376 647 q 1360 660 1371 660 l 1325 660 l 1325 519 l 1367 519 l 1368 575 q 1363 601 1368 589 l 1411 528 q 1426 519 1419 519 l 1457 519 l 1457 660 l 1417 660 l 1417 611 m 1485 519 l 1575 519 l 1575 556 l 1525 556 l 1525 660 l 1485 660 l 1485 519 m 1654 561 q 1658 575 1654 569 l 1710 660 l 1671 660 q 1654 650 1660 660 l 1639 624 q 1635 609 1636 615 q 1633 600 1635 603 q 1628 624 1633 611 l 1613 650 q 1596 660 1607 660 l 1558 660 l 1610 575 q 1613 561 1613 571 l 1613 519 l 1654 519 l 1654 561 m 332 624 q 343 613 343 624 q 333 603 343 603 l 318 603 l 318 624 l 332 624 m 1232 556 q 1208 565 1218 556 q 1199 589 1199 575 q 1208 613 1199 603 q 1232 624 1218 624 q 1255 614 1246 624 q 1264 589 1264 604 q 1255 565 1264 574 q 1232 556 1246 556 m 543 592 q 549 618 549 608 l 550 618 q 554 592 550 604 l 563 574 l 536 574 l 543 592 m 871 544 q 819 575 849 553 l 1038 575 l 1014 557 q 989 544 996 547 l 958 538 q 928 533 942 533 q 871 544 896 533 m 119 342 l 129 342 l 129 382 l 168 382 l 168 392 l 129 392 l 129 424 l 175 424 l 175 435 l 119 435 l 119 342 m 226 350 q 208 358 215 350 q 201 378 201 365 l 201 435 l 190 435 l 190 378 q 201 351 190 361 q 226 340 211 340 q 253 351 243 340 q 264 378 264 361 l 264 435 l 253 435 l 253 378 q 246 358 253 365 q 226 350 239 350 m 289 342 l 339 342 l 339 351 l 299 351 l 299 435 l 289 435 l 289 342 m 358 342 l 411 342 l 411 351 l 368 351 l 368 435 l 358 435 l 358 342 m 539 435 q 533 431 533 435 l 504 363 q 501 353 501 354 q 499 363 501 354 l 469 431 q 463 435 468 435 l 456 435 l 497 342 l 506 342 l 546 435 l 539 435 m 617 342 l 617 351 l 569 351 l 569 383 l 608 383 l 608 394 l 569 394 l 569 424 l 617 424 l 617 435 l 560 435 l 560 342 l 617 342 m 649 381 l 663 381 l 690 346 q 700 342 696 342 l 707 342 l 678 379 q 672 382 675 382 l 675 382 q 690 390 682 383 q 697 407 697 397 q 689 427 697 419 q 669 435 681 435 l 638 435 l 638 342 l 649 342 l 649 381 m 713 354 q 742 340 726 340 q 763 348 756 340 q 771 368 771 356 q 744 396 771 389 q 728 411 728 404 q 732 421 728 417 q 743 425 736 425 q 758 421 753 425 q 765 424 763 418 l 767 426 q 743 435 761 435 q 724 428 732 435 q 717 411 717 422 q 742 386 717 397 q 763 368 763 378 q 757 355 763 360 q 742 350 751 350 q 724 358 732 353 q 719 359 722 360 q 715 357 717 358 l 713 354 m 801 342 l 801 435 l 793 435 l 793 342 l 801 342 m 871 435 q 837 421 851 435 q 822 388 822 407 q 837 354 822 368 q 871 340 851 340 q 905 354 892 340 q 918 388 918 368 q 905 421 918 407 q 871 435 892 435 m 1001 365 q 1003 358 1001 361 l 954 432 q 946 435 950 435 l 938 435 l 938 342 l 949 342 l 949 414 l 947 421 l 1001 344 q 1004 342 1001 342 l 1014 342 l 1014 435 l 1001 435 l 1001 365 m 871 350 q 844 361 856 350 q 832 388 832 372 q 844 414 832 403 q 871 425 856 425 q 897 414 886 425 q 908 388 908 403 q 897 362 908 374 q 871 350 886 350 m 669 424 q 681 419 676 424 q 686 407 686 414 q 681 397 686 401 q 669 392 676 392 l 649 392 l 649 424 l 669 424 m 1715 394 l 1689 418 l 1686 414 q 1688 406 1683 410 l 1701 393 l 1067 393 l 1067 383 l 1700 383 l 1688 371 q 1686 363 1685 365 l 1689 358 l 1715 383 q 1718 389 1718 386 l 1715 394 m 771 294 q 722 275 742 294 q 701 226 701 256 q 722 176 701 196 q 771 157 742 157 q 822 176 801 157 q 842 226 842 196 q 822 275 842 256 q 771 294 801 294 m 1113 179 q 1165 157 1138 157 q 1202 169 1188 157 q 1217 201 1217 182 q 1175 246 1217 238 q 1161 254 1161 250 q 1168 260 1161 260 l 1175 257 q 1185 256 1178 256 q 1201 265 1196 256 l 1208 279 q 1168 294 1194 294 q 1134 283 1147 294 q 1121 254 1121 272 q 1165 211 1121 226 q 1176 201 1176 207 q 1165 193 1176 193 q 1147 200 1161 193 q 1136 203 1143 203 q 1119 194 1128 203 l 1113 179 m 1281 226 q 1300 176 1281 196 q 1350 157 1319 157 q 1381 165 1367 157 q 1401 183 1394 172 l 1393 196 q 1378 201 1389 201 q 1367 199 1371 201 q 1349 193 1358 193 q 1328 203 1336 193 q 1319 226 1319 213 q 1328 249 1319 240 q 1349 258 1336 258 q 1367 253 1356 258 q 1378 250 1369 250 q 1393 256 1389 250 l 1401 268 q 1381 287 1396 279 q 1350 294 1365 294 q 1300 275 1319 294 q 1281 226 1281 256 m 1482 294 q 1431 275 1451 294 q 1411 226 1411 256 q 1431 176 1411 196 q 1482 157 1451 157 q 1532 176 1513 157 q 1551 226 1551 196 q 1532 275 1551 256 q 1482 294 1513 294 m 219 158 l 219 196 l 181 196 q 163 189 172 196 l 215 260 q 221 275 221 265 l 221 293 l 117 293 l 117 257 l 153 257 q 168 263 163 257 l 118 194 q 111 176 111 186 l 111 158 l 219 158 m 331 158 l 331 196 l 276 196 l 276 210 l 321 210 l 321 243 l 276 243 l 276 257 l 331 257 l 331 293 l 238 293 l 238 158 l 331 158 m 339 257 l 375 257 l 375 158 l 414 158 l 414 257 l 446 257 l 446 293 l 339 293 l 339 257 m 493 293 l 433 158 l 464 158 q 481 172 476 158 l 485 181 l 533 181 l 538 172 q 544 163 539 167 q 556 158 550 158 l 586 158 l 526 293 l 493 293 m 597 158 l 638 158 l 638 204 l 681 204 l 681 239 l 638 239 l 638 257 l 690 257 l 690 293 l 597 293 l 597 158 m 946 246 q 950 221 946 231 l 910 281 q 903 290 907 286 q 892 293 899 293 l 861 293 l 861 158 l 900 158 l 900 213 q 896 236 900 224 l 897 236 l 943 167 q 957 158 949 158 l 986 158 l 986 293 l 946 293 l 946 246 m 1001 257 l 1035 257 l 1035 158 l 1075 158 l 1075 257 l 1108 257 l 1108 293 l 1001 293 l 1001 257 m 1694 293 q 1679 281 1683 293 l 1654 232 q 1651 217 1651 224 l 1650 217 q 1646 232 1650 226 l 1622 281 q 1615 290 1618 286 q 1606 293 1611 293 l 1571 293 l 1571 158 l 1610 158 l 1610 217 q 1606 238 1610 228 l 1607 238 l 1633 181 q 1651 171 1638 171 q 1667 181 1661 171 l 1693 238 q 1690 217 1690 224 l 1690 158 l 1728 158 l 1728 293 l 1694 293 m 771 193 q 749 203 758 193 q 740 226 740 213 q 749 249 740 240 q 771 258 758 258 q 793 249 785 258 q 801 226 801 240 q 793 202 801 211 q 771 193 785 193 m 1482 193 q 1460 202 1468 193 q 1451 226 1451 211 q 1460 249 1451 240 q 1482 258 1468 258 q 1503 249 1494 258 q 1513 226 1513 240 q 1503 203 1513 213 q 1482 193 1494 193 m 504 225 q 508 251 508 242 l 510 251 q 514 225 510 233 l 522 207 l 497 207 l 504 225 m 1228 176 q 1233 163 1228 168 q 1249 157 1239 157 q 1263 163 1257 157 q 1268 176 1268 168 q 1263 192 1268 186 q 1249 199 1257 199 q 1233 192 1239 199 q 1228 176 1228 186 z "},"3":{"ha":1824,"x_min":111,"x_max":1743,"o":"m 1743 475 l 113 475 l 113 700 l 729 700 l 729 701 q 731 718 729 713 l 731 721 l 731 722 q 733 739 731 728 q 736 751 733 743 q 806 858 753 817 q 928 900 858 900 q 1028 874 982 900 q 1101 801 1074 847 q 1128 701 1128 756 l 1128 700 l 1743 700 l 1743 475 m 931 515 q 1022 540 979 515 q 1088 606 1064 564 q 1113 699 1113 649 q 1088 790 1113 747 q 1022 856 1064 832 q 931 881 979 881 q 838 856 881 881 q 772 790 796 832 q 747 699 747 749 q 772 606 747 649 q 838 540 796 564 q 931 515 881 515 m 1014 836 q 1038 821 1025 826 l 817 821 q 842 839 831 833 q 869 850 858 847 q 928 863 893 863 q 989 850 960 863 l 1014 836 m 1050 808 q 1092 700 1092 754 q 1083 643 1092 672 q 1054 593 1076 619 l 839 593 l 1050 808 m 806 588 q 774 640 786 608 q 764 700 764 668 q 765 725 764 717 q 775 756 768 742 q 803 801 783 782 l 1018 801 l 806 588 m 147 625 l 183 625 l 183 521 l 224 521 l 224 625 l 260 625 l 260 663 l 147 663 l 147 625 m 318 564 l 329 564 l 347 533 q 364 521 351 521 l 400 521 l 375 565 q 349 579 361 579 l 353 579 q 375 589 364 579 q 386 613 386 599 q 371 649 386 635 q 335 663 356 663 l 276 663 l 276 521 l 318 521 l 318 564 m 456 521 l 456 663 l 415 663 l 415 521 l 456 521 m 531 663 l 469 521 l 501 521 q 521 535 511 521 l 524 544 l 574 544 l 579 535 q 596 521 583 521 l 628 521 l 567 663 l 531 663 m 643 521 l 732 521 l 732 558 l 683 558 l 683 663 l 643 663 l 643 521 m 1232 663 q 1180 642 1200 663 q 1160 589 1160 621 q 1181 538 1160 558 q 1232 517 1201 517 q 1285 537 1264 517 q 1306 589 1306 557 q 1285 642 1306 621 q 1232 663 1264 663 m 1417 611 q 1421 583 1417 594 l 1419 583 l 1376 647 q 1360 660 1371 660 l 1325 660 l 1325 519 l 1367 519 l 1368 575 q 1363 601 1368 589 l 1411 528 q 1426 519 1419 519 l 1457 519 l 1457 660 l 1417 660 l 1417 611 m 1485 519 l 1575 519 l 1575 556 l 1525 556 l 1525 660 l 1485 660 l 1485 519 m 1654 561 q 1658 575 1654 569 l 1710 660 l 1671 660 q 1654 650 1660 660 l 1639 624 q 1635 609 1636 615 q 1633 600 1635 603 q 1628 624 1633 611 l 1613 650 q 1596 660 1607 660 l 1558 660 l 1610 575 q 1613 561 1613 571 l 1613 519 l 1654 519 l 1654 561 m 332 624 q 343 613 343 624 q 333 603 343 603 l 318 603 l 318 624 l 332 624 m 1232 556 q 1208 565 1218 556 q 1199 589 1199 575 q 1208 613 1199 603 q 1232 624 1218 624 q 1255 614 1246 624 q 1264 589 1264 604 q 1255 565 1264 574 q 1232 556 1246 556 m 543 592 q 549 618 549 608 l 550 618 q 554 592 550 604 l 563 574 l 536 574 l 543 592 m 871 544 q 819 575 849 553 l 1038 575 l 1014 557 q 989 544 996 547 l 958 538 q 928 533 942 533 q 871 544 896 533 m 119 342 l 129 342 l 129 382 l 168 382 l 168 392 l 129 392 l 129 424 l 175 424 l 175 435 l 119 435 l 119 342 m 226 350 q 208 358 215 350 q 201 378 201 365 l 201 435 l 190 435 l 190 378 q 201 351 190 361 q 226 340 211 340 q 253 351 243 340 q 264 378 264 361 l 264 435 l 253 435 l 253 378 q 246 358 253 365 q 226 350 239 350 m 289 342 l 339 342 l 339 351 l 299 351 l 299 435 l 289 435 l 289 342 m 358 342 l 411 342 l 411 351 l 368 351 l 368 435 l 358 435 l 358 342 m 539 435 q 533 431 533 435 l 504 363 q 501 353 501 354 q 499 363 501 354 l 469 431 q 463 435 468 435 l 456 435 l 497 342 l 506 342 l 546 435 l 539 435 m 617 342 l 617 351 l 569 351 l 569 383 l 608 383 l 608 394 l 569 394 l 569 424 l 617 424 l 617 435 l 560 435 l 560 342 l 617 342 m 649 381 l 663 381 l 690 346 q 700 342 696 342 l 707 342 l 678 379 q 672 382 675 382 l 675 382 q 690 390 682 383 q 697 407 697 397 q 689 427 697 419 q 669 435 681 435 l 638 435 l 638 342 l 649 342 l 649 381 m 713 354 q 742 340 726 340 q 763 348 756 340 q 771 368 771 356 q 744 396 771 389 q 728 411 728 404 q 732 421 728 417 q 743 425 736 425 q 758 421 753 425 q 765 424 763 418 l 767 426 q 743 435 761 435 q 724 428 732 435 q 717 411 717 422 q 742 386 717 397 q 763 368 763 378 q 757 355 763 360 q 742 350 751 350 q 724 358 732 353 q 719 359 722 360 q 715 357 717 358 l 713 354 m 801 342 l 801 435 l 793 435 l 793 342 l 801 342 m 871 435 q 837 421 851 435 q 822 388 822 407 q 837 354 822 368 q 871 340 851 340 q 905 354 892 340 q 918 388 918 368 q 905 421 918 407 q 871 435 892 435 m 1001 365 q 1003 358 1001 361 l 954 432 q 946 435 950 435 l 938 435 l 938 342 l 949 342 l 949 414 l 947 421 l 1001 344 q 1004 342 1001 342 l 1014 342 l 1014 435 l 1001 435 l 1001 365 m 871 350 q 844 361 856 350 q 832 388 832 372 q 844 414 832 403 q 871 425 856 425 q 897 414 886 425 q 908 388 908 403 q 897 362 908 374 q 871 350 886 350 m 669 424 q 681 419 676 424 q 686 407 686 414 q 681 397 686 401 q 669 392 676 392 l 649 392 l 649 424 l 669 424 m 1715 394 l 1689 418 l 1686 414 q 1688 406 1683 410 l 1701 393 l 1067 393 l 1067 383 l 1700 383 l 1688 371 q 1686 363 1685 365 l 1689 358 l 1715 383 q 1718 389 1718 386 l 1715 394 m 771 294 q 722 275 742 294 q 701 226 701 256 q 722 176 701 196 q 771 157 742 157 q 822 176 801 157 q 842 226 842 196 q 822 275 842 256 q 771 294 801 294 m 1113 179 q 1165 157 1138 157 q 1202 169 1188 157 q 1217 201 1217 182 q 1175 246 1217 238 q 1161 254 1161 250 q 1168 260 1161 260 l 1175 257 q 1185 256 1178 256 q 1201 265 1196 256 l 1208 279 q 1168 294 1194 294 q 1134 283 1147 294 q 1121 254 1121 272 q 1165 211 1121 226 q 1176 201 1176 207 q 1165 193 1176 193 q 1147 200 1161 193 q 1136 203 1143 203 q 1119 194 1128 203 l 1113 179 m 1281 226 q 1300 176 1281 196 q 1350 157 1319 157 q 1381 165 1367 157 q 1401 183 1394 172 l 1393 196 q 1378 201 1389 201 q 1367 199 1371 201 q 1349 193 1358 193 q 1328 203 1336 193 q 1319 226 1319 213 q 1328 249 1319 240 q 1349 258 1336 258 q 1367 253 1356 258 q 1378 250 1369 250 q 1393 256 1389 250 l 1401 268 q 1381 287 1396 279 q 1350 294 1365 294 q 1300 275 1319 294 q 1281 226 1281 256 m 1482 294 q 1431 275 1451 294 q 1411 226 1411 256 q 1431 176 1411 196 q 1482 157 1451 157 q 1532 176 1513 157 q 1551 226 1551 196 q 1532 275 1551 256 q 1482 294 1513 294 m 219 158 l 219 196 l 181 196 q 163 189 172 196 l 215 260 q 221 275 221 265 l 221 293 l 117 293 l 117 257 l 153 257 q 168 263 163 257 l 118 194 q 111 176 111 186 l 111 158 l 219 158 m 331 158 l 331 196 l 276 196 l 276 210 l 321 210 l 321 243 l 276 243 l 276 257 l 331 257 l 331 293 l 238 293 l 238 158 l 331 158 m 339 257 l 375 257 l 375 158 l 414 158 l 414 257 l 446 257 l 446 293 l 339 293 l 339 257 m 493 293 l 433 158 l 464 158 q 481 172 476 158 l 485 181 l 533 181 l 538 172 q 544 163 539 167 q 556 158 550 158 l 586 158 l 526 293 l 493 293 m 597 158 l 638 158 l 638 204 l 681 204 l 681 239 l 638 239 l 638 257 l 690 257 l 690 293 l 597 293 l 597 158 m 946 246 q 950 221 946 231 l 910 281 q 903 290 907 286 q 892 293 899 293 l 861 293 l 861 158 l 900 158 l 900 213 q 896 236 900 224 l 897 236 l 943 167 q 957 158 949 158 l 986 158 l 986 293 l 946 293 l 946 246 m 1001 257 l 1035 257 l 1035 158 l 1075 158 l 1075 257 l 1108 257 l 1108 293 l 1001 293 l 1001 257 m 1694 293 q 1679 281 1683 293 l 1654 232 q 1651 217 1651 224 l 1650 217 q 1646 232 1650 226 l 1622 281 q 1615 290 1618 286 q 1606 293 1611 293 l 1571 293 l 1571 158 l 1610 158 l 1610 217 q 1606 238 1610 228 l 1607 238 l 1633 181 q 1651 171 1638 171 q 1667 181 1661 171 l 1693 238 q 1690 217 1690 224 l 1690 158 l 1728 158 l 1728 293 l 1694 293 m 771 193 q 749 203 758 193 q 740 226 740 213 q 749 249 740 240 q 771 258 758 258 q 793 249 785 258 q 801 226 801 240 q 793 202 801 211 q 771 193 785 193 m 1482 193 q 1460 202 1468 193 q 1451 226 1451 211 q 1460 249 1451 240 q 1482 258 1468 258 q 1503 249 1494 258 q 1513 226 1513 240 q 1503 203 1513 213 q 1482 193 1494 193 m 504 225 q 508 251 508 242 l 510 251 q 514 225 510 233 l 522 207 l 497 207 l 504 225 m 1228 176 q 1233 163 1228 168 q 1249 157 1239 157 q 1263 163 1257 157 q 1268 176 1268 168 q 1263 192 1268 186 q 1249 199 1257 199 q 1233 192 1239 199 q 1228 176 1228 186 z "},"4":{"ha":1824,"x_min":111,"x_max":1743,"o":"m 1743 475 l 113 475 l 113 700 l 729 700 l 729 701 q 731 718 729 713 l 731 721 l 731 722 q 733 739 731 728 q 736 751 733 743 q 806 858 753 817 q 928 900 858 900 q 1028 874 982 900 q 1101 801 1074 847 q 1128 701 1128 756 l 1128 700 l 1743 700 l 1743 475 m 931 515 q 1022 540 979 515 q 1088 606 1064 564 q 1113 699 1113 649 q 1088 790 1113 747 q 1022 856 1064 832 q 931 881 979 881 q 838 856 881 881 q 772 790 796 832 q 747 699 747 749 q 772 606 747 649 q 838 540 796 564 q 931 515 881 515 m 1014 836 q 1038 821 1025 826 l 817 821 q 842 839 831 833 q 869 850 858 847 q 928 863 893 863 q 989 850 960 863 l 1014 836 m 1050 808 q 1092 700 1092 754 q 1083 643 1092 672 q 1054 593 1076 619 l 839 593 l 1050 808 m 806 588 q 774 640 786 608 q 764 700 764 668 q 765 725 764 717 q 775 756 768 742 q 803 801 783 782 l 1018 801 l 806 588 m 147 625 l 183 625 l 183 521 l 224 521 l 224 625 l 260 625 l 260 663 l 147 663 l 147 625 m 318 564 l 329 564 l 347 533 q 364 521 351 521 l 400 521 l 375 565 q 349 579 361 579 l 353 579 q 375 589 364 579 q 386 613 386 599 q 371 649 386 635 q 335 663 356 663 l 276 663 l 276 521 l 318 521 l 318 564 m 456 521 l 456 663 l 415 663 l 415 521 l 456 521 m 531 663 l 469 521 l 501 521 q 521 535 511 521 l 524 544 l 574 544 l 579 535 q 596 521 583 521 l 628 521 l 567 663 l 531 663 m 643 521 l 732 521 l 732 558 l 683 558 l 683 663 l 643 663 l 643 521 m 1232 663 q 1180 642 1200 663 q 1160 589 1160 621 q 1181 538 1160 558 q 1232 517 1201 517 q 1285 537 1264 517 q 1306 589 1306 557 q 1285 642 1306 621 q 1232 663 1264 663 m 1417 611 q 1421 583 1417 594 l 1419 583 l 1376 647 q 1360 660 1371 660 l 1325 660 l 1325 519 l 1367 519 l 1368 575 q 1363 601 1368 589 l 1411 528 q 1426 519 1419 519 l 1457 519 l 1457 660 l 1417 660 l 1417 611 m 1485 519 l 1575 519 l 1575 556 l 1525 556 l 1525 660 l 1485 660 l 1485 519 m 1654 561 q 1658 575 1654 569 l 1710 660 l 1671 660 q 1654 650 1660 660 l 1639 624 q 1635 609 1636 615 q 1633 600 1635 603 q 1628 624 1633 611 l 1613 650 q 1596 660 1607 660 l 1558 660 l 1610 575 q 1613 561 1613 571 l 1613 519 l 1654 519 l 1654 561 m 332 624 q 343 613 343 624 q 333 603 343 603 l 318 603 l 318 624 l 332 624 m 1232 556 q 1208 565 1218 556 q 1199 589 1199 575 q 1208 613 1199 603 q 1232 624 1218 624 q 1255 614 1246 624 q 1264 589 1264 604 q 1255 565 1264 574 q 1232 556 1246 556 m 543 592 q 549 618 549 608 l 550 618 q 554 592 550 604 l 563 574 l 536 574 l 543 592 m 871 544 q 819 575 849 553 l 1038 575 l 1014 557 q 989 544 996 547 l 958 538 q 928 533 942 533 q 871 544 896 533 m 119 342 l 129 342 l 129 382 l 168 382 l 168 392 l 129 392 l 129 424 l 175 424 l 175 435 l 119 435 l 119 342 m 226 350 q 208 358 215 350 q 201 378 201 365 l 201 435 l 190 435 l 190 378 q 201 351 190 361 q 226 340 211 340 q 253 351 243 340 q 264 378 264 361 l 264 435 l 253 435 l 253 378 q 246 358 253 365 q 226 350 239 350 m 289 342 l 339 342 l 339 351 l 299 351 l 299 435 l 289 435 l 289 342 m 358 342 l 411 342 l 411 351 l 368 351 l 368 435 l 358 435 l 358 342 m 539 435 q 533 431 533 435 l 504 363 q 501 353 501 354 q 499 363 501 354 l 469 431 q 463 435 468 435 l 456 435 l 497 342 l 506 342 l 546 435 l 539 435 m 617 342 l 617 351 l 569 351 l 569 383 l 608 383 l 608 394 l 569 394 l 569 424 l 617 424 l 617 435 l 560 435 l 560 342 l 617 342 m 649 381 l 663 381 l 690 346 q 700 342 696 342 l 707 342 l 678 379 q 672 382 675 382 l 675 382 q 690 390 682 383 q 697 407 697 397 q 689 427 697 419 q 669 435 681 435 l 638 435 l 638 342 l 649 342 l 649 381 m 713 354 q 742 340 726 340 q 763 348 756 340 q 771 368 771 356 q 744 396 771 389 q 728 411 728 404 q 732 421 728 417 q 743 425 736 425 q 758 421 753 425 q 765 424 763 418 l 767 426 q 743 435 761 435 q 724 428 732 435 q 717 411 717 422 q 742 386 717 397 q 763 368 763 378 q 757 355 763 360 q 742 350 751 350 q 724 358 732 353 q 719 359 722 360 q 715 357 717 358 l 713 354 m 801 342 l 801 435 l 793 435 l 793 342 l 801 342 m 871 435 q 837 421 851 435 q 822 388 822 407 q 837 354 822 368 q 871 340 851 340 q 905 354 892 340 q 918 388 918 368 q 905 421 918 407 q 871 435 892 435 m 1001 365 q 1003 358 1001 361 l 954 432 q 946 435 950 435 l 938 435 l 938 342 l 949 342 l 949 414 l 947 421 l 1001 344 q 1004 342 1001 342 l 1014 342 l 1014 435 l 1001 435 l 1001 365 m 871 350 q 844 361 856 350 q 832 388 832 372 q 844 414 832 403 q 871 425 856 425 q 897 414 886 425 q 908 388 908 403 q 897 362 908 374 q 871 350 886 350 m 669 424 q 681 419 676 424 q 686 407 686 414 q 681 397 686 401 q 669 392 676 392 l 649 392 l 649 424 l 669 424 m 1715 394 l 1689 418 l 1686 414 q 1688 406 1683 410 l 1701 393 l 1067 393 l 1067 383 l 1700 383 l 1688 371 q 1686 363 1685 365 l 1689 358 l 1715 383 q 1718 389 1718 386 l 1715 394 m 771 294 q 722 275 742 294 q 701 226 701 256 q 722 176 701 196 q 771 157 742 157 q 822 176 801 157 q 842 226 842 196 q 822 275 842 256 q 771 294 801 294 m 1113 179 q 1165 157 1138 157 q 1202 169 1188 157 q 1217 201 1217 182 q 1175 246 1217 238 q 1161 254 1161 250 q 1168 260 1161 260 l 1175 257 q 1185 256 1178 256 q 1201 265 1196 256 l 1208 279 q 1168 294 1194 294 q 1134 283 1147 294 q 1121 254 1121 272 q 1165 211 1121 226 q 1176 201 1176 207 q 1165 193 1176 193 q 1147 200 1161 193 q 1136 203 1143 203 q 1119 194 1128 203 l 1113 179 m 1281 226 q 1300 176 1281 196 q 1350 157 1319 157 q 1381 165 1367 157 q 1401 183 1394 172 l 1393 196 q 1378 201 1389 201 q 1367 199 1371 201 q 1349 193 1358 193 q 1328 203 1336 193 q 1319 226 1319 213 q 1328 249 1319 240 q 1349 258 1336 258 q 1367 253 1356 258 q 1378 250 1369 250 q 1393 256 1389 250 l 1401 268 q 1381 287 1396 279 q 1350 294 1365 294 q 1300 275 1319 294 q 1281 226 1281 256 m 1482 294 q 1431 275 1451 294 q 1411 226 1411 256 q 1431 176 1411 196 q 1482 157 1451 157 q 1532 176 1513 157 q 1551 226 1551 196 q 1532 275 1551 256 q 1482 294 1513 294 m 219 158 l 219 196 l 181 196 q 163 189 172 196 l 215 260 q 221 275 221 265 l 221 293 l 117 293 l 117 257 l 153 257 q 168 263 163 257 l 118 194 q 111 176 111 186 l 111 158 l 219 158 m 331 158 l 331 196 l 276 196 l 276 210 l 321 210 l 321 243 l 276 243 l 276 257 l 331 257 l 331 293 l 238 293 l 238 158 l 331 158 m 339 257 l 375 257 l 375 158 l 414 158 l 414 257 l 446 257 l 446 293 l 339 293 l 339 257 m 493 293 l 433 158 l 464 158 q 481 172 476 158 l 485 181 l 533 181 l 538 172 q 544 163 539 167 q 556 158 550 158 l 586 158 l 526 293 l 493 293 m 597 158 l 638 158 l 638 204 l 681 204 l 681 239 l 638 239 l 638 257 l 690 257 l 690 293 l 597 293 l 597 158 m 946 246 q 950 221 946 231 l 910 281 q 903 290 907 286 q 892 293 899 293 l 861 293 l 861 158 l 900 158 l 900 213 q 896 236 900 224 l 897 236 l 943 167 q 957 158 949 158 l 986 158 l 986 293 l 946 293 l 946 246 m 1001 257 l 1035 257 l 1035 158 l 1075 158 l 1075 257 l 1108 257 l 1108 293 l 1001 293 l 1001 257 m 1694 293 q 1679 281 1683 293 l 1654 232 q 1651 217 1651 224 l 1650 217 q 1646 232 1650 226 l 1622 281 q 1615 290 1618 286 q 1606 293 1611 293 l 1571 293 l 1571 158 l 1610 158 l 1610 217 q 1606 238 1610 228 l 1607 238 l 1633 181 q 1651 171 1638 171 q 1667 181 1661 171 l 1693 238 q 1690 217 1690 224 l 1690 158 l 1728 158 l 1728 293 l 1694 293 m 771 193 q 749 203 758 193 q 740 226 740 213 q 749 249 740 240 q 771 258 758 258 q 793 249 785 258 q 801 226 801 240 q 793 202 801 211 q 771 193 785 193 m 1482 193 q 1460 202 1468 193 q 1451 226 1451 211 q 1460 249 1451 240 q 1482 258 1468 258 q 1503 249 1494 258 q 1513 226 1513 240 q 1503 203 1513 213 q 1482 193 1494 193 m 504 225 q 508 251 508 242 l 510 251 q 514 225 510 233 l 522 207 l 497 207 l 504 225 m 1228 176 q 1233 163 1228 168 q 1249 157 1239 157 q 1263 163 1257 157 q 1268 176 1268 168 q 1263 192 1268 186 q 1249 199 1257 199 q 1233 192 1239 199 q 1228 176 1228 186 z "},"5":{"ha":1824,"x_min":111,"x_max":1743,"o":"m 1743 475 l 113 475 l 113 700 l 729 700 l 729 701 q 731 718 729 713 l 731 721 l 731 722 q 733 739 731 728 q 736 751 733 743 q 806 858 753 817 q 928 900 858 900 q 1028 874 982 900 q 1101 801 1074 847 q 1128 701 1128 756 l 1128 700 l 1743 700 l 1743 475 m 931 515 q 1022 540 979 515 q 1088 606 1064 564 q 1113 699 1113 649 q 1088 790 1113 747 q 1022 856 1064 832 q 931 881 979 881 q 838 856 881 881 q 772 790 796 832 q 747 699 747 749 q 772 606 747 649 q 838 540 796 564 q 931 515 881 515 m 1014 836 q 1038 821 1025 826 l 817 821 q 842 839 831 833 q 869 850 858 847 q 928 863 893 863 q 989 850 960 863 l 1014 836 m 1050 808 q 1092 700 1092 754 q 1083 643 1092 672 q 1054 593 1076 619 l 839 593 l 1050 808 m 806 588 q 774 640 786 608 q 764 700 764 668 q 765 725 764 717 q 775 756 768 742 q 803 801 783 782 l 1018 801 l 806 588 m 147 625 l 183 625 l 183 521 l 224 521 l 224 625 l 260 625 l 260 663 l 147 663 l 147 625 m 318 564 l 329 564 l 347 533 q 364 521 351 521 l 400 521 l 375 565 q 349 579 361 579 l 353 579 q 375 589 364 579 q 386 613 386 599 q 371 649 386 635 q 335 663 356 663 l 276 663 l 276 521 l 318 521 l 318 564 m 456 521 l 456 663 l 415 663 l 415 521 l 456 521 m 531 663 l 469 521 l 501 521 q 521 535 511 521 l 524 544 l 574 544 l 579 535 q 596 521 583 521 l 628 521 l 567 663 l 531 663 m 643 521 l 732 521 l 732 558 l 683 558 l 683 663 l 643 663 l 643 521 m 1232 663 q 1180 642 1200 663 q 1160 589 1160 621 q 1181 538 1160 558 q 1232 517 1201 517 q 1285 537 1264 517 q 1306 589 1306 557 q 1285 642 1306 621 q 1232 663 1264 663 m 1417 611 q 1421 583 1417 594 l 1419 583 l 1376 647 q 1360 660 1371 660 l 1325 660 l 1325 519 l 1367 519 l 1368 575 q 1363 601 1368 589 l 1411 528 q 1426 519 1419 519 l 1457 519 l 1457 660 l 1417 660 l 1417 611 m 1485 519 l 1575 519 l 1575 556 l 1525 556 l 1525 660 l 1485 660 l 1485 519 m 1654 561 q 1658 575 1654 569 l 1710 660 l 1671 660 q 1654 650 1660 660 l 1639 624 q 1635 609 1636 615 q 1633 600 1635 603 q 1628 624 1633 611 l 1613 650 q 1596 660 1607 660 l 1558 660 l 1610 575 q 1613 561 1613 571 l 1613 519 l 1654 519 l 1654 561 m 332 624 q 343 613 343 624 q 333 603 343 603 l 318 603 l 318 624 l 332 624 m 1232 556 q 1208 565 1218 556 q 1199 589 1199 575 q 1208 613 1199 603 q 1232 624 1218 624 q 1255 614 1246 624 q 1264 589 1264 604 q 1255 565 1264 574 q 1232 556 1246 556 m 543 592 q 549 618 549 608 l 550 618 q 554 592 550 604 l 563 574 l 536 574 l 543 592 m 871 544 q 819 575 849 553 l 1038 575 l 1014 557 q 989 544 996 547 l 958 538 q 928 533 942 533 q 871 544 896 533 m 119 342 l 129 342 l 129 382 l 168 382 l 168 392 l 129 392 l 129 424 l 175 424 l 175 435 l 119 435 l 119 342 m 226 350 q 208 358 215 350 q 201 378 201 365 l 201 435 l 190 435 l 190 378 q 201 351 190 361 q 226 340 211 340 q 253 351 243 340 q 264 378 264 361 l 264 435 l 253 435 l 253 378 q 246 358 253 365 q 226 350 239 350 m 289 342 l 339 342 l 339 351 l 299 351 l 299 435 l 289 435 l 289 342 m 358 342 l 411 342 l 411 351 l 368 351 l 368 435 l 358 435 l 358 342 m 539 435 q 533 431 533 435 l 504 363 q 501 353 501 354 q 499 363 501 354 l 469 431 q 463 435 468 435 l 456 435 l 497 342 l 506 342 l 546 435 l 539 435 m 617 342 l 617 351 l 569 351 l 569 383 l 608 383 l 608 394 l 569 394 l 569 424 l 617 424 l 617 435 l 560 435 l 560 342 l 617 342 m 649 381 l 663 381 l 690 346 q 700 342 696 342 l 707 342 l 678 379 q 672 382 675 382 l 675 382 q 690 390 682 383 q 697 407 697 397 q 689 427 697 419 q 669 435 681 435 l 638 435 l 638 342 l 649 342 l 649 381 m 713 354 q 742 340 726 340 q 763 348 756 340 q 771 368 771 356 q 744 396 771 389 q 728 411 728 404 q 732 421 728 417 q 743 425 736 425 q 758 421 753 425 q 765 424 763 418 l 767 426 q 743 435 761 435 q 724 428 732 435 q 717 411 717 422 q 742 386 717 397 q 763 368 763 378 q 757 355 763 360 q 742 350 751 350 q 724 358 732 353 q 719 359 722 360 q 715 357 717 358 l 713 354 m 801 342 l 801 435 l 793 435 l 793 342 l 801 342 m 871 435 q 837 421 851 435 q 822 388 822 407 q 837 354 822 368 q 871 340 851 340 q 905 354 892 340 q 918 388 918 368 q 905 421 918 407 q 871 435 892 435 m 1001 365 q 1003 358 1001 361 l 954 432 q 946 435 950 435 l 938 435 l 938 342 l 949 342 l 949 414 l 947 421 l 1001 344 q 1004 342 1001 342 l 1014 342 l 1014 435 l 1001 435 l 1001 365 m 871 350 q 844 361 856 350 q 832 388 832 372 q 844 414 832 403 q 871 425 856 425 q 897 414 886 425 q 908 388 908 403 q 897 362 908 374 q 871 350 886 350 m 669 424 q 681 419 676 424 q 686 407 686 414 q 681 397 686 401 q 669 392 676 392 l 649 392 l 649 424 l 669 424 m 1715 394 l 1689 418 l 1686 414 q 1688 406 1683 410 l 1701 393 l 1067 393 l 1067 383 l 1700 383 l 1688 371 q 1686 363 1685 365 l 1689 358 l 1715 383 q 1718 389 1718 386 l 1715 394 m 771 294 q 722 275 742 294 q 701 226 701 256 q 722 176 701 196 q 771 157 742 157 q 822 176 801 157 q 842 226 842 196 q 822 275 842 256 q 771 294 801 294 m 1113 179 q 1165 157 1138 157 q 1202 169 1188 157 q 1217 201 1217 182 q 1175 246 1217 238 q 1161 254 1161 250 q 1168 260 1161 260 l 1175 257 q 1185 256 1178 256 q 1201 265 1196 256 l 1208 279 q 1168 294 1194 294 q 1134 283 1147 294 q 1121 254 1121 272 q 1165 211 1121 226 q 1176 201 1176 207 q 1165 193 1176 193 q 1147 200 1161 193 q 1136 203 1143 203 q 1119 194 1128 203 l 1113 179 m 1281 226 q 1300 176 1281 196 q 1350 157 1319 157 q 1381 165 1367 157 q 1401 183 1394 172 l 1393 196 q 1378 201 1389 201 q 1367 199 1371 201 q 1349 193 1358 193 q 1328 203 1336 193 q 1319 226 1319 213 q 1328 249 1319 240 q 1349 258 1336 258 q 1367 253 1356 258 q 1378 250 1369 250 q 1393 256 1389 250 l 1401 268 q 1381 287 1396 279 q 1350 294 1365 294 q 1300 275 1319 294 q 1281 226 1281 256 m 1482 294 q 1431 275 1451 294 q 1411 226 1411 256 q 1431 176 1411 196 q 1482 157 1451 157 q 1532 176 1513 157 q 1551 226 1551 196 q 1532 275 1551 256 q 1482 294 1513 294 m 219 158 l 219 196 l 181 196 q 163 189 172 196 l 215 260 q 221 275 221 265 l 221 293 l 117 293 l 117 257 l 153 257 q 168 263 163 257 l 118 194 q 111 176 111 186 l 111 158 l 219 158 m 331 158 l 331 196 l 276 196 l 276 210 l 321 210 l 321 243 l 276 243 l 276 257 l 331 257 l 331 293 l 238 293 l 238 158 l 331 158 m 339 257 l 375 257 l 375 158 l 414 158 l 414 257 l 446 257 l 446 293 l 339 293 l 339 257 m 493 293 l 433 158 l 464 158 q 481 172 476 158 l 485 181 l 533 181 l 538 172 q 544 163 539 167 q 556 158 550 158 l 586 158 l 526 293 l 493 293 m 597 158 l 638 158 l 638 204 l 681 204 l 681 239 l 638 239 l 638 257 l 690 257 l 690 293 l 597 293 l 597 158 m 946 246 q 950 221 946 231 l 910 281 q 903 290 907 286 q 892 293 899 293 l 861 293 l 861 158 l 900 158 l 900 213 q 896 236 900 224 l 897 236 l 943 167 q 957 158 949 158 l 986 158 l 986 293 l 946 293 l 946 246 m 1001 257 l 1035 257 l 1035 158 l 1075 158 l 1075 257 l 1108 257 l 1108 293 l 1001 293 l 1001 257 m 1694 293 q 1679 281 1683 293 l 1654 232 q 1651 217 1651 224 l 1650 217 q 1646 232 1650 226 l 1622 281 q 1615 290 1618 286 q 1606 293 1611 293 l 1571 293 l 1571 158 l 1610 158 l 1610 217 q 1606 238 1610 228 l 1607 238 l 1633 181 q 1651 171 1638 171 q 1667 181 1661 171 l 1693 238 q 1690 217 1690 224 l 1690 158 l 1728 158 l 1728 293 l 1694 293 m 771 193 q 749 203 758 193 q 740 226 740 213 q 749 249 740 240 q 771 258 758 258 q 793 249 785 258 q 801 226 801 240 q 793 202 801 211 q 771 193 785 193 m 1482 193 q 1460 202 1468 193 q 1451 226 1451 211 q 1460 249 1451 240 q 1482 258 1468 258 q 1503 249 1494 258 q 1513 226 1513 240 q 1503 203 1513 213 q 1482 193 1494 193 m 504 225 q 508 251 508 242 l 510 251 q 514 225 510 233 l 522 207 l 497 207 l 504 225 m 1228 176 q 1233 163 1228 168 q 1249 157 1239 157 q 1263 163 1257 157 q 1268 176 1268 168 q 1263 192 1268 186 q 1249 199 1257 199 q 1233 192 1239 199 q 1228 176 1228 186 z "},"6":{"ha":1824,"x_min":111,"x_max":1743,"o":"m 1743 475 l 113 475 l 113 700 l 729 700 l 729 701 q 731 718 729 713 l 731 721 l 731 722 q 733 739 731 728 q 736 751 733 743 q 806 858 753 817 q 928 900 858 900 q 1028 874 982 900 q 1101 801 1074 847 q 1128 701 1128 756 l 1128 700 l 1743 700 l 1743 475 m 931 515 q 1022 540 979 515 q 1088 606 1064 564 q 1113 699 1113 649 q 1088 790 1113 747 q 1022 856 1064 832 q 931 881 979 881 q 838 856 881 881 q 772 790 796 832 q 747 699 747 749 q 772 606 747 649 q 838 540 796 564 q 931 515 881 515 m 1014 836 q 1038 821 1025 826 l 817 821 q 842 839 831 833 q 869 850 858 847 q 928 863 893 863 q 989 850 960 863 l 1014 836 m 1050 808 q 1092 700 1092 754 q 1083 643 1092 672 q 1054 593 1076 619 l 839 593 l 1050 808 m 806 588 q 774 640 786 608 q 764 700 764 668 q 765 725 764 717 q 775 756 768 742 q 803 801 783 782 l 1018 801 l 806 588 m 147 625 l 183 625 l 183 521 l 224 521 l 224 625 l 260 625 l 260 663 l 147 663 l 147 625 m 318 564 l 329 564 l 347 533 q 364 521 351 521 l 400 521 l 375 565 q 349 579 361 579 l 353 579 q 375 589 364 579 q 386 613 386 599 q 371 649 386 635 q 335 663 356 663 l 276 663 l 276 521 l 318 521 l 318 564 m 456 521 l 456 663 l 415 663 l 415 521 l 456 521 m 531 663 l 469 521 l 501 521 q 521 535 511 521 l 524 544 l 574 544 l 579 535 q 596 521 583 521 l 628 521 l 567 663 l 531 663 m 643 521 l 732 521 l 732 558 l 683 558 l 683 663 l 643 663 l 643 521 m 1232 663 q 1180 642 1200 663 q 1160 589 1160 621 q 1181 538 1160 558 q 1232 517 1201 517 q 1285 537 1264 517 q 1306 589 1306 557 q 1285 642 1306 621 q 1232 663 1264 663 m 1417 611 q 1421 583 1417 594 l 1419 583 l 1376 647 q 1360 660 1371 660 l 1325 660 l 1325 519 l 1367 519 l 1368 575 q 1363 601 1368 589 l 1411 528 q 1426 519 1419 519 l 1457 519 l 1457 660 l 1417 660 l 1417 611 m 1485 519 l 1575 519 l 1575 556 l 1525 556 l 1525 660 l 1485 660 l 1485 519 m 1654 561 q 1658 575 1654 569 l 1710 660 l 1671 660 q 1654 650 1660 660 l 1639 624 q 1635 609 1636 615 q 1633 600 1635 603 q 1628 624 1633 611 l 1613 650 q 1596 660 1607 660 l 1558 660 l 1610 575 q 1613 561 1613 571 l 1613 519 l 1654 519 l 1654 561 m 332 624 q 343 613 343 624 q 333 603 343 603 l 318 603 l 318 624 l 332 624 m 1232 556 q 1208 565 1218 556 q 1199 589 1199 575 q 1208 613 1199 603 q 1232 624 1218 624 q 1255 614 1246 624 q 1264 589 1264 604 q 1255 565 1264 574 q 1232 556 1246 556 m 543 592 q 549 618 549 608 l 550 618 q 554 592 550 604 l 563 574 l 536 574 l 543 592 m 871 544 q 819 575 849 553 l 1038 575 l 1014 557 q 989 544 996 547 l 958 538 q 928 533 942 533 q 871 544 896 533 m 119 342 l 129 342 l 129 382 l 168 382 l 168 392 l 129 392 l 129 424 l 175 424 l 175 435 l 119 435 l 119 342 m 226 350 q 208 358 215 350 q 201 378 201 365 l 201 435 l 190 435 l 190 378 q 201 351 190 361 q 226 340 211 340 q 253 351 243 340 q 264 378 264 361 l 264 435 l 253 435 l 253 378 q 246 358 253 365 q 226 350 239 350 m 289 342 l 339 342 l 339 351 l 299 351 l 299 435 l 289 435 l 289 342 m 358 342 l 411 342 l 411 351 l 368 351 l 368 435 l 358 435 l 358 342 m 539 435 q 533 431 533 435 l 504 363 q 501 353 501 354 q 499 363 501 354 l 469 431 q 463 435 468 435 l 456 435 l 497 342 l 506 342 l 546 435 l 539 435 m 617 342 l 617 351 l 569 351 l 569 383 l 608 383 l 608 394 l 569 394 l 569 424 l 617 424 l 617 435 l 560 435 l 560 342 l 617 342 m 649 381 l 663 381 l 690 346 q 700 342 696 342 l 707 342 l 678 379 q 672 382 675 382 l 675 382 q 690 390 682 383 q 697 407 697 397 q 689 427 697 419 q 669 435 681 435 l 638 435 l 638 342 l 649 342 l 649 381 m 713 354 q 742 340 726 340 q 763 348 756 340 q 771 368 771 356 q 744 396 771 389 q 728 411 728 404 q 732 421 728 417 q 743 425 736 425 q 758 421 753 425 q 765 424 763 418 l 767 426 q 743 435 761 435 q 724 428 732 435 q 717 411 717 422 q 742 386 717 397 q 763 368 763 378 q 757 355 763 360 q 742 350 751 350 q 724 358 732 353 q 719 359 722 360 q 715 357 717 358 l 713 354 m 801 342 l 801 435 l 793 435 l 793 342 l 801 342 m 871 435 q 837 421 851 435 q 822 388 822 407 q 837 354 822 368 q 871 340 851 340 q 905 354 892 340 q 918 388 918 368 q 905 421 918 407 q 871 435 892 435 m 1001 365 q 1003 358 1001 361 l 954 432 q 946 435 950 435 l 938 435 l 938 342 l 949 342 l 949 414 l 947 421 l 1001 344 q 1004 342 1001 342 l 1014 342 l 1014 435 l 1001 435 l 1001 365 m 871 350 q 844 361 856 350 q 832 388 832 372 q 844 414 832 403 q 871 425 856 425 q 897 414 886 425 q 908 388 908 403 q 897 362 908 374 q 871 350 886 350 m 669 424 q 681 419 676 424 q 686 407 686 414 q 681 397 686 401 q 669 392 676 392 l 649 392 l 649 424 l 669 424 m 1715 394 l 1689 418 l 1686 414 q 1688 406 1683 410 l 1701 393 l 1067 393 l 1067 383 l 1700 383 l 1688 371 q 1686 363 1685 365 l 1689 358 l 1715 383 q 1718 389 1718 386 l 1715 394 m 771 294 q 722 275 742 294 q 701 226 701 256 q 722 176 701 196 q 771 157 742 157 q 822 176 801 157 q 842 226 842 196 q 822 275 842 256 q 771 294 801 294 m 1113 179 q 1165 157 1138 157 q 1202 169 1188 157 q 1217 201 1217 182 q 1175 246 1217 238 q 1161 254 1161 250 q 1168 260 1161 260 l 1175 257 q 1185 256 1178 256 q 1201 265 1196 256 l 1208 279 q 1168 294 1194 294 q 1134 283 1147 294 q 1121 254 1121 272 q 1165 211 1121 226 q 1176 201 1176 207 q 1165 193 1176 193 q 1147 200 1161 193 q 1136 203 1143 203 q 1119 194 1128 203 l 1113 179 m 1281 226 q 1300 176 1281 196 q 1350 157 1319 157 q 1381 165 1367 157 q 1401 183 1394 172 l 1393 196 q 1378 201 1389 201 q 1367 199 1371 201 q 1349 193 1358 193 q 1328 203 1336 193 q 1319 226 1319 213 q 1328 249 1319 240 q 1349 258 1336 258 q 1367 253 1356 258 q 1378 250 1369 250 q 1393 256 1389 250 l 1401 268 q 1381 287 1396 279 q 1350 294 1365 294 q 1300 275 1319 294 q 1281 226 1281 256 m 1482 294 q 1431 275 1451 294 q 1411 226 1411 256 q 1431 176 1411 196 q 1482 157 1451 157 q 1532 176 1513 157 q 1551 226 1551 196 q 1532 275 1551 256 q 1482 294 1513 294 m 219 158 l 219 196 l 181 196 q 163 189 172 196 l 215 260 q 221 275 221 265 l 221 293 l 117 293 l 117 257 l 153 257 q 168 263 163 257 l 118 194 q 111 176 111 186 l 111 158 l 219 158 m 331 158 l 331 196 l 276 196 l 276 210 l 321 210 l 321 243 l 276 243 l 276 257 l 331 257 l 331 293 l 238 293 l 238 158 l 331 158 m 339 257 l 375 257 l 375 158 l 414 158 l 414 257 l 446 257 l 446 293 l 339 293 l 339 257 m 493 293 l 433 158 l 464 158 q 481 172 476 158 l 485 181 l 533 181 l 538 172 q 544 163 539 167 q 556 158 550 158 l 586 158 l 526 293 l 493 293 m 597 158 l 638 158 l 638 204 l 681 204 l 681 239 l 638 239 l 638 257 l 690 257 l 690 293 l 597 293 l 597 158 m 946 246 q 950 221 946 231 l 910 281 q 903 290 907 286 q 892 293 899 293 l 861 293 l 861 158 l 900 158 l 900 213 q 896 236 900 224 l 897 236 l 943 167 q 957 158 949 158 l 986 158 l 986 293 l 946 293 l 946 246 m 1001 257 l 1035 257 l 1035 158 l 1075 158 l 1075 257 l 1108 257 l 1108 293 l 1001 293 l 1001 257 m 1694 293 q 1679 281 1683 293 l 1654 232 q 1651 217 1651 224 l 1650 217 q 1646 232 1650 226 l 1622 281 q 1615 290 1618 286 q 1606 293 1611 293 l 1571 293 l 1571 158 l 1610 158 l 1610 217 q 1606 238 1610 228 l 1607 238 l 1633 181 q 1651 171 1638 171 q 1667 181 1661 171 l 1693 238 q 1690 217 1690 224 l 1690 158 l 1728 158 l 1728 293 l 1694 293 m 771 193 q 749 203 758 193 q 740 226 740 213 q 749 249 740 240 q 771 258 758 258 q 793 249 785 258 q 801 226 801 240 q 793 202 801 211 q 771 193 785 193 m 1482 193 q 1460 202 1468 193 q 1451 226 1451 211 q 1460 249 1451 240 q 1482 258 1468 258 q 1503 249 1494 258 q 1513 226 1513 240 q 1503 203 1513 213 q 1482 193 1494 193 m 504 225 q 508 251 508 242 l 510 251 q 514 225 510 233 l 522 207 l 497 207 l 504 225 m 1228 176 q 1233 163 1228 168 q 1249 157 1239 157 q 1263 163 1257 157 q 1268 176 1268 168 q 1263 192 1268 186 q 1249 199 1257 199 q 1233 192 1239 199 q 1228 176 1228 186 z "},"7":{"ha":1824,"x_min":111,"x_max":1743,"o":"m 1743 475 l 113 475 l 113 700 l 729 700 l 729 701 q 731 718 729 713 l 731 721 l 731 722 q 733 739 731 728 q 736 751 733 743 q 806 858 753 817 q 928 900 858 900 q 1028 874 982 900 q 1101 801 1074 847 q 1128 701 1128 756 l 1128 700 l 1743 700 l 1743 475 m 931 515 q 1022 540 979 515 q 1088 606 1064 564 q 1113 699 1113 649 q 1088 790 1113 747 q 1022 856 1064 832 q 931 881 979 881 q 838 856 881 881 q 772 790 796 832 q 747 699 747 749 q 772 606 747 649 q 838 540 796 564 q 931 515 881 515 m 1014 836 q 1038 821 1025 826 l 817 821 q 842 839 831 833 q 869 850 858 847 q 928 863 893 863 q 989 850 960 863 l 1014 836 m 1050 808 q 1092 700 1092 754 q 1083 643 1092 672 q 1054 593 1076 619 l 839 593 l 1050 808 m 806 588 q 774 640 786 608 q 764 700 764 668 q 765 725 764 717 q 775 756 768 742 q 803 801 783 782 l 1018 801 l 806 588 m 147 625 l 183 625 l 183 521 l 224 521 l 224 625 l 260 625 l 260 663 l 147 663 l 147 625 m 318 564 l 329 564 l 347 533 q 364 521 351 521 l 400 521 l 375 565 q 349 579 361 579 l 353 579 q 375 589 364 579 q 386 613 386 599 q 371 649 386 635 q 335 663 356 663 l 276 663 l 276 521 l 318 521 l 318 564 m 456 521 l 456 663 l 415 663 l 415 521 l 456 521 m 531 663 l 469 521 l 501 521 q 521 535 511 521 l 524 544 l 574 544 l 579 535 q 596 521 583 521 l 628 521 l 567 663 l 531 663 m 643 521 l 732 521 l 732 558 l 683 558 l 683 663 l 643 663 l 643 521 m 1232 663 q 1180 642 1200 663 q 1160 589 1160 621 q 1181 538 1160 558 q 1232 517 1201 517 q 1285 537 1264 517 q 1306 589 1306 557 q 1285 642 1306 621 q 1232 663 1264 663 m 1417 611 q 1421 583 1417 594 l 1419 583 l 1376 647 q 1360 660 1371 660 l 1325 660 l 1325 519 l 1367 519 l 1368 575 q 1363 601 1368 589 l 1411 528 q 1426 519 1419 519 l 1457 519 l 1457 660 l 1417 660 l 1417 611 m 1485 519 l 1575 519 l 1575 556 l 1525 556 l 1525 660 l 1485 660 l 1485 519 m 1654 561 q 1658 575 1654 569 l 1710 660 l 1671 660 q 1654 650 1660 660 l 1639 624 q 1635 609 1636 615 q 1633 600 1635 603 q 1628 624 1633 611 l 1613 650 q 1596 660 1607 660 l 1558 660 l 1610 575 q 1613 561 1613 571 l 1613 519 l 1654 519 l 1654 561 m 332 624 q 343 613 343 624 q 333 603 343 603 l 318 603 l 318 624 l 332 624 m 1232 556 q 1208 565 1218 556 q 1199 589 1199 575 q 1208 613 1199 603 q 1232 624 1218 624 q 1255 614 1246 624 q 1264 589 1264 604 q 1255 565 1264 574 q 1232 556 1246 556 m 543 592 q 549 618 549 608 l 550 618 q 554 592 550 604 l 563 574 l 536 574 l 543 592 m 871 544 q 819 575 849 553 l 1038 575 l 1014 557 q 989 544 996 547 l 958 538 q 928 533 942 533 q 871 544 896 533 m 119 342 l 129 342 l 129 382 l 168 382 l 168 392 l 129 392 l 129 424 l 175 424 l 175 435 l 119 435 l 119 342 m 226 350 q 208 358 215 350 q 201 378 201 365 l 201 435 l 190 435 l 190 378 q 201 351 190 361 q 226 340 211 340 q 253 351 243 340 q 264 378 264 361 l 264 435 l 253 435 l 253 378 q 246 358 253 365 q 226 350 239 350 m 289 342 l 339 342 l 339 351 l 299 351 l 299 435 l 289 435 l 289 342 m 358 342 l 411 342 l 411 351 l 368 351 l 368 435 l 358 435 l 358 342 m 539 435 q 533 431 533 435 l 504 363 q 501 353 501 354 q 499 363 501 354 l 469 431 q 463 435 468 435 l 456 435 l 497 342 l 506 342 l 546 435 l 539 435 m 617 342 l 617 351 l 569 351 l 569 383 l 608 383 l 608 394 l 569 394 l 569 424 l 617 424 l 617 435 l 560 435 l 560 342 l 617 342 m 649 381 l 663 381 l 690 346 q 700 342 696 342 l 707 342 l 678 379 q 672 382 675 382 l 675 382 q 690 390 682 383 q 697 407 697 397 q 689 427 697 419 q 669 435 681 435 l 638 435 l 638 342 l 649 342 l 649 381 m 713 354 q 742 340 726 340 q 763 348 756 340 q 771 368 771 356 q 744 396 771 389 q 728 411 728 404 q 732 421 728 417 q 743 425 736 425 q 758 421 753 425 q 765 424 763 418 l 767 426 q 743 435 761 435 q 724 428 732 435 q 717 411 717 422 q 742 386 717 397 q 763 368 763 378 q 757 355 763 360 q 742 350 751 350 q 724 358 732 353 q 719 359 722 360 q 715 357 717 358 l 713 354 m 801 342 l 801 435 l 793 435 l 793 342 l 801 342 m 871 435 q 837 421 851 435 q 822 388 822 407 q 837 354 822 368 q 871 340 851 340 q 905 354 892 340 q 918 388 918 368 q 905 421 918 407 q 871 435 892 435 m 1001 365 q 1003 358 1001 361 l 954 432 q 946 435 950 435 l 938 435 l 938 342 l 949 342 l 949 414 l 947 421 l 1001 344 q 1004 342 1001 342 l 1014 342 l 1014 435 l 1001 435 l 1001 365 m 871 350 q 844 361 856 350 q 832 388 832 372 q 844 414 832 403 q 871 425 856 425 q 897 414 886 425 q 908 388 908 403 q 897 362 908 374 q 871 350 886 350 m 669 424 q 681 419 676 424 q 686 407 686 414 q 681 397 686 401 q 669 392 676 392 l 649 392 l 649 424 l 669 424 m 1715 394 l 1689 418 l 1686 414 q 1688 406 1683 410 l 1701 393 l 1067 393 l 1067 383 l 1700 383 l 1688 371 q 1686 363 1685 365 l 1689 358 l 1715 383 q 1718 389 1718 386 l 1715 394 m 771 294 q 722 275 742 294 q 701 226 701 256 q 722 176 701 196 q 771 157 742 157 q 822 176 801 157 q 842 226 842 196 q 822 275 842 256 q 771 294 801 294 m 1113 179 q 1165 157 1138 157 q 1202 169 1188 157 q 1217 201 1217 182 q 1175 246 1217 238 q 1161 254 1161 250 q 1168 260 1161 260 l 1175 257 q 1185 256 1178 256 q 1201 265 1196 256 l 1208 279 q 1168 294 1194 294 q 1134 283 1147 294 q 1121 254 1121 272 q 1165 211 1121 226 q 1176 201 1176 207 q 1165 193 1176 193 q 1147 200 1161 193 q 1136 203 1143 203 q 1119 194 1128 203 l 1113 179 m 1281 226 q 1300 176 1281 196 q 1350 157 1319 157 q 1381 165 1367 157 q 1401 183 1394 172 l 1393 196 q 1378 201 1389 201 q 1367 199 1371 201 q 1349 193 1358 193 q 1328 203 1336 193 q 1319 226 1319 213 q 1328 249 1319 240 q 1349 258 1336 258 q 1367 253 1356 258 q 1378 250 1369 250 q 1393 256 1389 250 l 1401 268 q 1381 287 1396 279 q 1350 294 1365 294 q 1300 275 1319 294 q 1281 226 1281 256 m 1482 294 q 1431 275 1451 294 q 1411 226 1411 256 q 1431 176 1411 196 q 1482 157 1451 157 q 1532 176 1513 157 q 1551 226 1551 196 q 1532 275 1551 256 q 1482 294 1513 294 m 219 158 l 219 196 l 181 196 q 163 189 172 196 l 215 260 q 221 275 221 265 l 221 293 l 117 293 l 117 257 l 153 257 q 168 263 163 257 l 118 194 q 111 176 111 186 l 111 158 l 219 158 m 331 158 l 331 196 l 276 196 l 276 210 l 321 210 l 321 243 l 276 243 l 276 257 l 331 257 l 331 293 l 238 293 l 238 158 l 331 158 m 339 257 l 375 257 l 375 158 l 414 158 l 414 257 l 446 257 l 446 293 l 339 293 l 339 257 m 493 293 l 433 158 l 464 158 q 481 172 476 158 l 485 181 l 533 181 l 538 172 q 544 163 539 167 q 556 158 550 158 l 586 158 l 526 293 l 493 293 m 597 158 l 638 158 l 638 204 l 681 204 l 681 239 l 638 239 l 638 257 l 690 257 l 690 293 l 597 293 l 597 158 m 946 246 q 950 221 946 231 l 910 281 q 903 290 907 286 q 892 293 899 293 l 861 293 l 861 158 l 900 158 l 900 213 q 896 236 900 224 l 897 236 l 943 167 q 957 158 949 158 l 986 158 l 986 293 l 946 293 l 946 246 m 1001 257 l 1035 257 l 1035 158 l 1075 158 l 1075 257 l 1108 257 l 1108 293 l 1001 293 l 1001 257 m 1694 293 q 1679 281 1683 293 l 1654 232 q 1651 217 1651 224 l 1650 217 q 1646 232 1650 226 l 1622 281 q 1615 290 1618 286 q 1606 293 1611 293 l 1571 293 l 1571 158 l 1610 158 l 1610 217 q 1606 238 1610 228 l 1607 238 l 1633 181 q 1651 171 1638 171 q 1667 181 1661 171 l 1693 238 q 1690 217 1690 224 l 1690 158 l 1728 158 l 1728 293 l 1694 293 m 771 193 q 749 203 758 193 q 740 226 740 213 q 749 249 740 240 q 771 258 758 258 q 793 249 785 258 q 801 226 801 240 q 793 202 801 211 q 771 193 785 193 m 1482 193 q 1460 202 1468 193 q 1451 226 1451 211 q 1460 249 1451 240 q 1482 258 1468 258 q 1503 249 1494 258 q 1513 226 1513 240 q 1503 203 1513 213 q 1482 193 1494 193 m 504 225 q 508 251 508 242 l 510 251 q 514 225 510 233 l 522 207 l 497 207 l 504 225 m 1228 176 q 1233 163 1228 168 q 1249 157 1239 157 q 1263 163 1257 157 q 1268 176 1268 168 q 1263 192 1268 186 q 1249 199 1257 199 q 1233 192 1239 199 q 1228 176 1228 186 z "},"8":{"ha":1824,"x_min":111,"x_max":1743,"o":"m 1743 475 l 113 475 l 113 700 l 729 700 l 729 701 q 731 718 729 713 l 731 721 l 731 722 q 733 739 731 728 q 736 751 733 743 q 806 858 753 817 q 928 900 858 900 q 1028 874 982 900 q 1101 801 1074 847 q 1128 701 1128 756 l 1128 700 l 1743 700 l 1743 475 m 931 515 q 1022 540 979 515 q 1088 606 1064 564 q 1113 699 1113 649 q 1088 790 1113 747 q 1022 856 1064 832 q 931 881 979 881 q 838 856 881 881 q 772 790 796 832 q 747 699 747 749 q 772 606 747 649 q 838 540 796 564 q 931 515 881 515 m 1014 836 q 1038 821 1025 826 l 817 821 q 842 839 831 833 q 869 850 858 847 q 928 863 893 863 q 989 850 960 863 l 1014 836 m 1050 808 q 1092 700 1092 754 q 1083 643 1092 672 q 1054 593 1076 619 l 839 593 l 1050 808 m 806 588 q 774 640 786 608 q 764 700 764 668 q 765 725 764 717 q 775 756 768 742 q 803 801 783 782 l 1018 801 l 806 588 m 147 625 l 183 625 l 183 521 l 224 521 l 224 625 l 260 625 l 260 663 l 147 663 l 147 625 m 318 564 l 329 564 l 347 533 q 364 521 351 521 l 400 521 l 375 565 q 349 579 361 579 l 353 579 q 375 589 364 579 q 386 613 386 599 q 371 649 386 635 q 335 663 356 663 l 276 663 l 276 521 l 318 521 l 318 564 m 456 521 l 456 663 l 415 663 l 415 521 l 456 521 m 531 663 l 469 521 l 501 521 q 521 535 511 521 l 524 544 l 574 544 l 579 535 q 596 521 583 521 l 628 521 l 567 663 l 531 663 m 643 521 l 732 521 l 732 558 l 683 558 l 683 663 l 643 663 l 643 521 m 1232 663 q 1180 642 1200 663 q 1160 589 1160 621 q 1181 538 1160 558 q 1232 517 1201 517 q 1285 537 1264 517 q 1306 589 1306 557 q 1285 642 1306 621 q 1232 663 1264 663 m 1417 611 q 1421 583 1417 594 l 1419 583 l 1376 647 q 1360 660 1371 660 l 1325 660 l 1325 519 l 1367 519 l 1368 575 q 1363 601 1368 589 l 1411 528 q 1426 519 1419 519 l 1457 519 l 1457 660 l 1417 660 l 1417 611 m 1485 519 l 1575 519 l 1575 556 l 1525 556 l 1525 660 l 1485 660 l 1485 519 m 1654 561 q 1658 575 1654 569 l 1710 660 l 1671 660 q 1654 650 1660 660 l 1639 624 q 1635 609 1636 615 q 1633 600 1635 603 q 1628 624 1633 611 l 1613 650 q 1596 660 1607 660 l 1558 660 l 1610 575 q 1613 561 1613 571 l 1613 519 l 1654 519 l 1654 561 m 332 624 q 343 613 343 624 q 333 603 343 603 l 318 603 l 318 624 l 332 624 m 1232 556 q 1208 565 1218 556 q 1199 589 1199 575 q 1208 613 1199 603 q 1232 624 1218 624 q 1255 614 1246 624 q 1264 589 1264 604 q 1255 565 1264 574 q 1232 556 1246 556 m 543 592 q 549 618 549 608 l 550 618 q 554 592 550 604 l 563 574 l 536 574 l 543 592 m 871 544 q 819 575 849 553 l 1038 575 l 1014 557 q 989 544 996 547 l 958 538 q 928 533 942 533 q 871 544 896 533 m 119 342 l 129 342 l 129 382 l 168 382 l 168 392 l 129 392 l 129 424 l 175 424 l 175 435 l 119 435 l 119 342 m 226 350 q 208 358 215 350 q 201 378 201 365 l 201 435 l 190 435 l 190 378 q 201 351 190 361 q 226 340 211 340 q 253 351 243 340 q 264 378 264 361 l 264 435 l 253 435 l 253 378 q 246 358 253 365 q 226 350 239 350 m 289 342 l 339 342 l 339 351 l 299 351 l 299 435 l 289 435 l 289 342 m 358 342 l 411 342 l 411 351 l 368 351 l 368 435 l 358 435 l 358 342 m 539 435 q 533 431 533 435 l 504 363 q 501 353 501 354 q 499 363 501 354 l 469 431 q 463 435 468 435 l 456 435 l 497 342 l 506 342 l 546 435 l 539 435 m 617 342 l 617 351 l 569 351 l 569 383 l 608 383 l 608 394 l 569 394 l 569 424 l 617 424 l 617 435 l 560 435 l 560 342 l 617 342 m 649 381 l 663 381 l 690 346 q 700 342 696 342 l 707 342 l 678 379 q 672 382 675 382 l 675 382 q 690 390 682 383 q 697 407 697 397 q 689 427 697 419 q 669 435 681 435 l 638 435 l 638 342 l 649 342 l 649 381 m 713 354 q 742 340 726 340 q 763 348 756 340 q 771 368 771 356 q 744 396 771 389 q 728 411 728 404 q 732 421 728 417 q 743 425 736 425 q 758 421 753 425 q 765 424 763 418 l 767 426 q 743 435 761 435 q 724 428 732 435 q 717 411 717 422 q 742 386 717 397 q 763 368 763 378 q 757 355 763 360 q 742 350 751 350 q 724 358 732 353 q 719 359 722 360 q 715 357 717 358 l 713 354 m 801 342 l 801 435 l 793 435 l 793 342 l 801 342 m 871 435 q 837 421 851 435 q 822 388 822 407 q 837 354 822 368 q 871 340 851 340 q 905 354 892 340 q 918 388 918 368 q 905 421 918 407 q 871 435 892 435 m 1001 365 q 1003 358 1001 361 l 954 432 q 946 435 950 435 l 938 435 l 938 342 l 949 342 l 949 414 l 947 421 l 1001 344 q 1004 342 1001 342 l 1014 342 l 1014 435 l 1001 435 l 1001 365 m 871 350 q 844 361 856 350 q 832 388 832 372 q 844 414 832 403 q 871 425 856 425 q 897 414 886 425 q 908 388 908 403 q 897 362 908 374 q 871 350 886 350 m 669 424 q 681 419 676 424 q 686 407 686 414 q 681 397 686 401 q 669 392 676 392 l 649 392 l 649 424 l 669 424 m 1715 394 l 1689 418 l 1686 414 q 1688 406 1683 410 l 1701 393 l 1067 393 l 1067 383 l 1700 383 l 1688 371 q 1686 363 1685 365 l 1689 358 l 1715 383 q 1718 389 1718 386 l 1715 394 m 771 294 q 722 275 742 294 q 701 226 701 256 q 722 176 701 196 q 771 157 742 157 q 822 176 801 157 q 842 226 842 196 q 822 275 842 256 q 771 294 801 294 m 1113 179 q 1165 157 1138 157 q 1202 169 1188 157 q 1217 201 1217 182 q 1175 246 1217 238 q 1161 254 1161 250 q 1168 260 1161 260 l 1175 257 q 1185 256 1178 256 q 1201 265 1196 256 l 1208 279 q 1168 294 1194 294 q 1134 283 1147 294 q 1121 254 1121 272 q 1165 211 1121 226 q 1176 201 1176 207 q 1165 193 1176 193 q 1147 200 1161 193 q 1136 203 1143 203 q 1119 194 1128 203 l 1113 179 m 1281 226 q 1300 176 1281 196 q 1350 157 1319 157 q 1381 165 1367 157 q 1401 183 1394 172 l 1393 196 q 1378 201 1389 201 q 1367 199 1371 201 q 1349 193 1358 193 q 1328 203 1336 193 q 1319 226 1319 213 q 1328 249 1319 240 q 1349 258 1336 258 q 1367 253 1356 258 q 1378 250 1369 250 q 1393 256 1389 250 l 1401 268 q 1381 287 1396 279 q 1350 294 1365 294 q 1300 275 1319 294 q 1281 226 1281 256 m 1482 294 q 1431 275 1451 294 q 1411 226 1411 256 q 1431 176 1411 196 q 1482 157 1451 157 q 1532 176 1513 157 q 1551 226 1551 196 q 1532 275 1551 256 q 1482 294 1513 294 m 219 158 l 219 196 l 181 196 q 163 189 172 196 l 215 260 q 221 275 221 265 l 221 293 l 117 293 l 117 257 l 153 257 q 168 263 163 257 l 118 194 q 111 176 111 186 l 111 158 l 219 158 m 331 158 l 331 196 l 276 196 l 276 210 l 321 210 l 321 243 l 276 243 l 276 257 l 331 257 l 331 293 l 238 293 l 238 158 l 331 158 m 339 257 l 375 257 l 375 158 l 414 158 l 414 257 l 446 257 l 446 293 l 339 293 l 339 257 m 493 293 l 433 158 l 464 158 q 481 172 476 158 l 485 181 l 533 181 l 538 172 q 544 163 539 167 q 556 158 550 158 l 586 158 l 526 293 l 493 293 m 597 158 l 638 158 l 638 204 l 681 204 l 681 239 l 638 239 l 638 257 l 690 257 l 690 293 l 597 293 l 597 158 m 946 246 q 950 221 946 231 l 910 281 q 903 290 907 286 q 892 293 899 293 l 861 293 l 861 158 l 900 158 l 900 213 q 896 236 900 224 l 897 236 l 943 167 q 957 158 949 158 l 986 158 l 986 293 l 946 293 l 946 246 m 1001 257 l 1035 257 l 1035 158 l 1075 158 l 1075 257 l 1108 257 l 1108 293 l 1001 293 l 1001 257 m 1694 293 q 1679 281 1683 293 l 1654 232 q 1651 217 1651 224 l 1650 217 q 1646 232 1650 226 l 1622 281 q 1615 290 1618 286 q 1606 293 1611 293 l 1571 293 l 1571 158 l 1610 158 l 1610 217 q 1606 238 1610 228 l 1607 238 l 1633 181 q 1651 171 1638 171 q 1667 181 1661 171 l 1693 238 q 1690 217 1690 224 l 1690 158 l 1728 158 l 1728 293 l 1694 293 m 771 193 q 749 203 758 193 q 740 226 740 213 q 749 249 740 240 q 771 258 758 258 q 793 249 785 258 q 801 226 801 240 q 793 202 801 211 q 771 193 785 193 m 1482 193 q 1460 202 1468 193 q 1451 226 1451 211 q 1460 249 1451 240 q 1482 258 1468 258 q 1503 249 1494 258 q 1513 226 1513 240 q 1503 203 1513 213 q 1482 193 1494 193 m 504 225 q 508 251 508 242 l 510 251 q 514 225 510 233 l 522 207 l 497 207 l 504 225 m 1228 176 q 1233 163 1228 168 q 1249 157 1239 157 q 1263 163 1257 157 q 1268 176 1268 168 q 1263 192 1268 186 q 1249 199 1257 199 q 1233 192 1239 199 q 1228 176 1228 186 z "},"9":{"ha":1824,"x_min":111,"x_max":1743,"o":"m 1743 475 l 113 475 l 113 700 l 729 700 l 729 701 q 731 718 729 713 l 731 721 l 731 722 q 733 739 731 728 q 736 751 733 743 q 806 858 753 817 q 928 900 858 900 q 1028 874 982 900 q 1101 801 1074 847 q 1128 701 1128 756 l 1128 700 l 1743 700 l 1743 475 m 931 515 q 1022 540 979 515 q 1088 606 1064 564 q 1113 699 1113 649 q 1088 790 1113 747 q 1022 856 1064 832 q 931 881 979 881 q 838 856 881 881 q 772 790 796 832 q 747 699 747 749 q 772 606 747 649 q 838 540 796 564 q 931 515 881 515 m 1014 836 q 1038 821 1025 826 l 817 821 q 842 839 831 833 q 869 850 858 847 q 928 863 893 863 q 989 850 960 863 l 1014 836 m 1050 808 q 1092 700 1092 754 q 1083 643 1092 672 q 1054 593 1076 619 l 839 593 l 1050 808 m 806 588 q 774 640 786 608 q 764 700 764 668 q 765 725 764 717 q 775 756 768 742 q 803 801 783 782 l 1018 801 l 806 588 m 147 625 l 183 625 l 183 521 l 224 521 l 224 625 l 260 625 l 260 663 l 147 663 l 147 625 m 318 564 l 329 564 l 347 533 q 364 521 351 521 l 400 521 l 375 565 q 349 579 361 579 l 353 579 q 375 589 364 579 q 386 613 386 599 q 371 649 386 635 q 335 663 356 663 l 276 663 l 276 521 l 318 521 l 318 564 m 456 521 l 456 663 l 415 663 l 415 521 l 456 521 m 531 663 l 469 521 l 501 521 q 521 535 511 521 l 524 544 l 574 544 l 579 535 q 596 521 583 521 l 628 521 l 567 663 l 531 663 m 643 521 l 732 521 l 732 558 l 683 558 l 683 663 l 643 663 l 643 521 m 1232 663 q 1180 642 1200 663 q 1160 589 1160 621 q 1181 538 1160 558 q 1232 517 1201 517 q 1285 537 1264 517 q 1306 589 1306 557 q 1285 642 1306 621 q 1232 663 1264 663 m 1417 611 q 1421 583 1417 594 l 1419 583 l 1376 647 q 1360 660 1371 660 l 1325 660 l 1325 519 l 1367 519 l 1368 575 q 1363 601 1368 589 l 1411 528 q 1426 519 1419 519 l 1457 519 l 1457 660 l 1417 660 l 1417 611 m 1485 519 l 1575 519 l 1575 556 l 1525 556 l 1525 660 l 1485 660 l 1485 519 m 1654 561 q 1658 575 1654 569 l 1710 660 l 1671 660 q 1654 650 1660 660 l 1639 624 q 1635 609 1636 615 q 1633 600 1635 603 q 1628 624 1633 611 l 1613 650 q 1596 660 1607 660 l 1558 660 l 1610 575 q 1613 561 1613 571 l 1613 519 l 1654 519 l 1654 561 m 332 624 q 343 613 343 624 q 333 603 343 603 l 318 603 l 318 624 l 332 624 m 1232 556 q 1208 565 1218 556 q 1199 589 1199 575 q 1208 613 1199 603 q 1232 624 1218 624 q 1255 614 1246 624 q 1264 589 1264 604 q 1255 565 1264 574 q 1232 556 1246 556 m 543 592 q 549 618 549 608 l 550 618 q 554 592 550 604 l 563 574 l 536 574 l 543 592 m 871 544 q 819 575 849 553 l 1038 575 l 1014 557 q 989 544 996 547 l 958 538 q 928 533 942 533 q 871 544 896 533 m 119 342 l 129 342 l 129 382 l 168 382 l 168 392 l 129 392 l 129 424 l 175 424 l 175 435 l 119 435 l 119 342 m 226 350 q 208 358 215 350 q 201 378 201 365 l 201 435 l 190 435 l 190 378 q 201 351 190 361 q 226 340 211 340 q 253 351 243 340 q 264 378 264 361 l 264 435 l 253 435 l 253 378 q 246 358 253 365 q 226 350 239 350 m 289 342 l 339 342 l 339 351 l 299 351 l 299 435 l 289 435 l 289 342 m 358 342 l 411 342 l 411 351 l 368 351 l 368 435 l 358 435 l 358 342 m 539 435 q 533 431 533 435 l 504 363 q 501 353 501 354 q 499 363 501 354 l 469 431 q 463 435 468 435 l 456 435 l 497 342 l 506 342 l 546 435 l 539 435 m 617 342 l 617 351 l 569 351 l 569 383 l 608 383 l 608 394 l 569 394 l 569 424 l 617 424 l 617 435 l 560 435 l 560 342 l 617 342 m 649 381 l 663 381 l 690 346 q 700 342 696 342 l 707 342 l 678 379 q 672 382 675 382 l 675 382 q 690 390 682 383 q 697 407 697 397 q 689 427 697 419 q 669 435 681 435 l 638 435 l 638 342 l 649 342 l 649 381 m 713 354 q 742 340 726 340 q 763 348 756 340 q 771 368 771 356 q 744 396 771 389 q 728 411 728 404 q 732 421 728 417 q 743 425 736 425 q 758 421 753 425 q 765 424 763 418 l 767 426 q 743 435 761 435 q 724 428 732 435 q 717 411 717 422 q 742 386 717 397 q 763 368 763 378 q 757 355 763 360 q 742 350 751 350 q 724 358 732 353 q 719 359 722 360 q 715 357 717 358 l 713 354 m 801 342 l 801 435 l 793 435 l 793 342 l 801 342 m 871 435 q 837 421 851 435 q 822 388 822 407 q 837 354 822 368 q 871 340 851 340 q 905 354 892 340 q 918 388 918 368 q 905 421 918 407 q 871 435 892 435 m 1001 365 q 1003 358 1001 361 l 954 432 q 946 435 950 435 l 938 435 l 938 342 l 949 342 l 949 414 l 947 421 l 1001 344 q 1004 342 1001 342 l 1014 342 l 1014 435 l 1001 435 l 1001 365 m 871 350 q 844 361 856 350 q 832 388 832 372 q 844 414 832 403 q 871 425 856 425 q 897 414 886 425 q 908 388 908 403 q 897 362 908 374 q 871 350 886 350 m 669 424 q 681 419 676 424 q 686 407 686 414 q 681 397 686 401 q 669 392 676 392 l 649 392 l 649 424 l 669 424 m 1715 394 l 1689 418 l 1686 414 q 1688 406 1683 410 l 1701 393 l 1067 393 l 1067 383 l 1700 383 l 1688 371 q 1686 363 1685 365 l 1689 358 l 1715 383 q 1718 389 1718 386 l 1715 394 m 771 294 q 722 275 742 294 q 701 226 701 256 q 722 176 701 196 q 771 157 742 157 q 822 176 801 157 q 842 226 842 196 q 822 275 842 256 q 771 294 801 294 m 1113 179 q 1165 157 1138 157 q 1202 169 1188 157 q 1217 201 1217 182 q 1175 246 1217 238 q 1161 254 1161 250 q 1168 260 1161 260 l 1175 257 q 1185 256 1178 256 q 1201 265 1196 256 l 1208 279 q 1168 294 1194 294 q 1134 283 1147 294 q 1121 254 1121 272 q 1165 211 1121 226 q 1176 201 1176 207 q 1165 193 1176 193 q 1147 200 1161 193 q 1136 203 1143 203 q 1119 194 1128 203 l 1113 179 m 1281 226 q 1300 176 1281 196 q 1350 157 1319 157 q 1381 165 1367 157 q 1401 183 1394 172 l 1393 196 q 1378 201 1389 201 q 1367 199 1371 201 q 1349 193 1358 193 q 1328 203 1336 193 q 1319 226 1319 213 q 1328 249 1319 240 q 1349 258 1336 258 q 1367 253 1356 258 q 1378 250 1369 250 q 1393 256 1389 250 l 1401 268 q 1381 287 1396 279 q 1350 294 1365 294 q 1300 275 1319 294 q 1281 226 1281 256 m 1482 294 q 1431 275 1451 294 q 1411 226 1411 256 q 1431 176 1411 196 q 1482 157 1451 157 q 1532 176 1513 157 q 1551 226 1551 196 q 1532 275 1551 256 q 1482 294 1513 294 m 219 158 l 219 196 l 181 196 q 163 189 172 196 l 215 260 q 221 275 221 265 l 221 293 l 117 293 l 117 257 l 153 257 q 168 263 163 257 l 118 194 q 111 176 111 186 l 111 158 l 219 158 m 331 158 l 331 196 l 276 196 l 276 210 l 321 210 l 321 243 l 276 243 l 276 257 l 331 257 l 331 293 l 238 293 l 238 158 l 331 158 m 339 257 l 375 257 l 375 158 l 414 158 l 414 257 l 446 257 l 446 293 l 339 293 l 339 257 m 493 293 l 433 158 l 464 158 q 481 172 476 158 l 485 181 l 533 181 l 538 172 q 544 163 539 167 q 556 158 550 158 l 586 158 l 526 293 l 493 293 m 597 158 l 638 158 l 638 204 l 681 204 l 681 239 l 638 239 l 638 257 l 690 257 l 690 293 l 597 293 l 597 158 m 946 246 q 950 221 946 231 l 910 281 q 903 290 907 286 q 892 293 899 293 l 861 293 l 861 158 l 900 158 l 900 213 q 896 236 900 224 l 897 236 l 943 167 q 957 158 949 158 l 986 158 l 986 293 l 946 293 l 946 246 m 1001 257 l 1035 257 l 1035 158 l 1075 158 l 1075 257 l 1108 257 l 1108 293 l 1001 293 l 1001 257 m 1694 293 q 1679 281 1683 293 l 1654 232 q 1651 217 1651 224 l 1650 217 q 1646 232 1650 226 l 1622 281 q 1615 290 1618 286 q 1606 293 1611 293 l 1571 293 l 1571 158 l 1610 158 l 1610 217 q 1606 238 1610 228 l 1607 238 l 1633 181 q 1651 171 1638 171 q 1667 181 1661 171 l 1693 238 q 1690 217 1690 224 l 1690 158 l 1728 158 l 1728 293 l 1694 293 m 771 193 q 749 203 758 193 q 740 226 740 213 q 749 249 740 240 q 771 258 758 258 q 793 249 785 258 q 801 226 801 240 q 793 202 801 211 q 771 193 785 193 m 1482 193 q 1460 202 1468 193 q 1451 226 1451 211 q 1460 249 1451 240 q 1482 258 1468 258 q 1503 249 1494 258 q 1513 226 1513 240 q 1503 203 1513 213 q 1482 193 1494 193 m 504 225 q 508 251 508 242 l 510 251 q 514 225 510 233 l 522 207 l 497 207 l 504 225 m 1228 176 q 1233 163 1228 168 q 1249 157 1239 157 q 1263 163 1257 157 q 1268 176 1268 168 q 1263 192 1268 186 q 1249 199 1257 199 q 1233 192 1239 199 q 1228 176 1228 186 z "}," ":{"ha":333,"x_min":0,"x_max":0,"o":""},"A":{"ha":1057,"x_min":-11,"x_max":1069,"o":"m 713 0 q 686 124 693 92 q 678 160 683 140 q 668 206 674 181 l 526 206 l 386 206 l 339 0 l -11 0 l 58 297 q 233 1060 194 874 l 822 1060 q 1069 0 886 765 l 713 0 m 631 378 q 535 947 550 749 l 517 947 q 422 378 493 724 l 631 378 z "},"B":{"ha":1103,"x_min":72,"x_max":1065,"o":"m 74 124 q 79 529 79 401 q 78 716 79 626 q 75 871 76 806 q 72 1060 72 1015 l 583 1060 q 838 1041 740 1060 q 988 967 935 1022 q 1040 806 1040 913 q 1008 672 1040 724 q 891 592 975 621 q 654 557 807 564 l 654 536 q 903 503 814 529 q 1028 426 992 476 q 1065 290 1065 375 q 1017 115 1065 178 q 869 26 968 51 q 608 0 771 0 l 72 0 l 74 124 m 547 625 q 652 651 617 625 q 688 735 688 676 q 651 821 688 796 q 543 846 614 846 l 410 846 l 410 625 l 547 625 m 553 239 q 679 265 639 239 q 719 356 719 292 q 676 440 719 415 q 546 464 633 464 l 410 464 l 410 239 l 553 239 z "},"C":{"ha":1074,"x_min":38,"x_max":1036,"o":"m 542 -19 q 251 39 363 -19 q 89 218 140 97 q 38 531 38 339 q 89 841 38 721 q 251 1019 140 961 q 542 1078 363 1078 q 914 963 800 1078 q 1036 622 1028 849 l 696 589 q 642 776 688 718 q 494 833 597 833 q 411 817 443 833 q 379 497 379 672 q 426 290 379 356 q 586 224 472 224 q 665 236 632 224 q 693 401 683 306 l 1032 401 q 903 88 1022 194 q 542 -19 785 -19 z "},"D":{"ha":1086,"x_min":72,"x_max":1049,"o":"m 72 0 q 81 529 81 250 q 72 1060 81 833 l 524 1060 q 922 932 794 1060 q 1049 531 1049 804 q 935 131 1049 261 q 568 0 821 1 l 72 0 m 526 229 q 633 260 594 229 q 688 354 671 290 q 704 526 704 418 q 687 701 704 636 q 628 798 669 767 q 518 829 588 829 l 414 829 l 414 229 l 526 229 z "},"E":{"ha":960,"x_min":72,"x_max":921,"o":"m 72 0 q 78 250 76 107 q 81 529 81 393 q 72 1060 81 813 l 918 1060 l 918 811 l 414 811 l 414 622 l 879 633 l 879 428 l 414 439 l 414 249 l 921 249 l 921 0 l 72 0 z "},"F":{"ha":944,"x_min":72,"x_max":906,"o":"m 72 0 q 81 529 81 338 q 75 875 81 636 q 72 1060 72 1019 l 906 1060 l 906 811 l 413 811 l 414 583 l 868 594 l 868 378 l 414 389 q 417 0 414 225 l 72 0 z "},"G":{"ha":1061,"x_min":14,"x_max":1047,"o":"m 432 -19 q 119 122 224 -19 q 14 531 14 263 q 131 947 14 815 q 510 1078 249 1078 q 801 1031 696 1078 q 952 884 906 985 q 1007 611 999 783 l 665 576 q 622 765 660 697 q 503 832 583 832 q 388 815 439 832 q 361 690 369 750 q 353 543 353 629 q 399 314 353 406 q 532 222 444 222 q 639 236 586 222 q 697 272 661 244 q 721 290 707 282 q 697 369 721 340 q 625 397 674 397 l 540 397 l 540 467 l 1046 467 l 1046 340 q 1047 0 1046 146 l 714 0 l 721 236 l 700 236 q 616 44 685 107 q 432 -19 547 -19 z "},"H":{"ha":1119,"x_min":72,"x_max":1047,"o":"m 1047 1060 q 1043 529 1043 943 q 1047 0 1043 115 l 704 0 q 710 442 710 190 l 413 442 q 415 0 413 242 l 72 0 q 79 529 79 294 q 72 1060 79 764 l 415 1060 q 413 640 413 815 l 710 640 q 704 1060 710 867 l 1047 1060 z "},"I":{"ha":488,"x_min":72,"x_max":415,"o":"m 72 0 q 79 531 79 221 q 72 1060 79 839 l 415 1060 q 408 532 408 883 q 415 0 408 178 l 72 0 z "},"J":{"ha":614,"x_min":38,"x_max":560,"o":"m 43 222 q 142 227 94 222 q 203 240 190 232 q 218 360 218 288 l 218 811 l 38 807 l 38 1060 l 560 1060 l 560 478 q 435 99 560 217 q 43 -19 311 -19 l 43 222 z "},"K":{"ha":1090,"x_min":72,"x_max":1079,"o":"m 1079 0 l 701 0 l 458 469 l 407 469 l 417 0 l 72 0 q 79 529 79 296 q 72 1060 79 761 l 417 1060 l 407 601 l 458 601 l 697 1060 l 1061 1060 l 846 661 q 801 600 824 619 q 735 571 778 581 q 597 549 693 561 l 597 529 q 738 508 696 518 q 800 478 779 497 q 844 413 821 458 l 1079 0 z "},"L":{"ha":807,"x_min":72,"x_max":819,"o":"m 72 0 q 79 529 79 296 q 72 1060 79 764 l 422 1060 q 417 571 417 825 q 419 264 417 417 q 819 267 589 264 l 796 0 l 72 0 z "},"M":{"ha":1506,"x_min":72,"x_max":1433,"o":"m 72 0 q 88 788 88 456 l 86 1060 l 600 1060 l 739 314 l 767 314 l 904 1060 l 1419 1060 l 1418 788 q 1433 0 1418 390 l 1124 0 q 1121 443 1124 283 l 1117 789 l 1096 789 l 929 0 l 576 0 l 410 789 l 389 789 l 385 442 q 382 108 382 208 l 382 0 l 72 0 z "},"N":{"ha":1210,"x_min":72,"x_max":1138,"o":"m 72 0 q 79 581 79 281 q 72 1060 79 796 l 558 1060 l 763 496 l 776 446 q 817 300 803 356 l 838 300 q 829 463 829 397 q 822 1060 829 710 l 1138 1060 q 1132 536 1132 815 q 1138 0 1132 256 l 650 0 l 469 481 q 396 764 426 626 l 374 764 q 378 671 375 749 q 381 557 381 593 q 386 0 381 244 l 72 0 z "},"O":{"ha":1082,"x_min":38,"x_max":1044,"o":"m 544 -19 q 253 38 364 -19 q 90 217 142 96 q 38 531 38 338 q 156 947 38 817 q 535 1078 275 1078 q 826 1019 714 1078 q 991 840 938 961 q 1044 525 1044 718 q 922 112 1044 243 q 544 -19 800 -19 m 556 222 q 664 236 622 222 q 700 517 700 369 q 658 743 700 654 q 526 832 615 832 q 408 815 464 832 q 385 691 393 753 q 378 542 378 629 q 422 313 378 404 q 556 222 467 222 z "},"P":{"ha":1088,"x_min":72,"x_max":1049,"o":"m 72 0 q 75 531 75 328 q 72 1060 75 732 l 607 1060 q 938 964 828 1060 q 1049 663 1049 868 q 943 347 1049 449 q 643 246 838 246 l 413 246 q 417 0 413 69 l 72 0 m 542 456 q 660 499 618 456 q 701 646 701 543 q 660 788 701 746 q 538 829 618 829 l 411 829 l 411 456 l 542 456 z "},"Q":{"ha":1129,"x_min":39,"x_max":1126,"o":"m 725 21 q 1064 26 939 26 l 1126 26 l 1126 -165 l 1067 -165 q 787 -170 896 -167 q 565 -190 678 -174 q 364 -242 451 -207 l 303 -58 q 646 129 467 25 l 633 153 q 357 68 506 68 q 116 197 193 68 q 39 531 39 325 q 88 842 39 722 q 247 1019 138 961 q 542 1078 357 1078 q 835 1019 725 1078 q 995 842 946 961 q 1044 529 1044 722 q 967 208 1044 328 q 719 32 890 88 l 725 21 m 379 550 q 426 345 379 411 q 586 279 474 279 q 665 292 631 279 q 703 564 703 415 q 656 769 703 704 q 494 835 610 835 q 411 817 447 835 q 379 550 379 689 z "},"R":{"ha":1138,"x_min":72,"x_max":1099,"o":"m 72 0 q 79 529 79 281 q 72 1060 79 782 l 599 1060 q 853 1035 756 1060 q 1003 949 951 1011 q 1054 775 1054 888 q 971 550 1054 615 q 703 485 888 485 l 703 463 q 960 409 882 460 q 1047 249 1038 358 q 1067 124 1050 210 q 1099 0 1085 39 l 729 0 q 699 242 703 156 q 680 316 692 290 q 642 353 668 342 q 565 364 615 364 l 415 364 l 415 249 l 415 0 l 72 0 m 540 564 q 661 594 621 564 q 701 696 701 624 q 661 800 701 771 q 538 829 621 829 l 411 829 l 411 564 l 540 564 z "},"S":{"ha":1071,"x_min":38,"x_max":1031,"o":"m 561 -17 q 286 16 396 -17 q 114 126 176 49 q 38 335 51 203 l 410 364 q 451 255 417 297 q 567 213 485 213 q 627 216 593 213 q 672 226 661 219 q 688 329 688 275 q 676 390 688 368 q 631 424 664 413 q 535 440 599 436 q 167 525 272 446 q 61 749 61 604 q 191 995 61 911 q 535 1079 321 1079 q 892 981 772 1079 q 1031 676 1011 883 l 688 653 q 669 758 681 722 q 625 816 658 794 q 522 838 592 838 q 468 835 500 838 q 425 828 436 832 q 404 711 404 769 q 436 624 404 651 q 554 589 468 596 q 851 553 749 585 q 991 464 954 521 q 1028 313 1028 407 q 967 135 1028 210 q 801 22 907 60 q 561 -17 694 -17 z "},"T":{"ha":853,"x_min":-11,"x_max":865,"o":"m 250 0 q 257 515 257 288 q 254 804 257 663 q -11 799 147 804 l -11 1060 l 865 1060 l 865 799 q 596 804 721 804 q 593 485 593 710 q 597 0 593 240 l 250 0 z "},"U":{"ha":1088,"x_min":72,"x_max":1015,"o":"m 511 -19 q 259 28 354 -19 q 121 174 164 75 q 78 431 78 272 l 78 742 q 72 1060 78 932 l 414 1060 l 413 528 q 442 303 413 381 q 551 225 472 225 q 615 231 582 225 q 663 247 649 236 l 669 325 q 676 404 675 372 q 678 518 678 436 q 674 1060 678 722 l 1015 1060 q 1011 667 1011 929 l 1013 376 q 954 138 1013 225 q 787 16 896 51 q 511 -19 678 -19 z "},"V":{"ha":1051,"x_min":-11,"x_max":1064,"o":"m 232 0 q 19 932 185 222 l -11 1060 l 338 1060 q 371 914 354 985 q 467 467 429 658 q 514 129 504 276 l 533 129 q 581 466 544 276 q 674 903 618 656 l 708 1060 l 1064 1060 q 978 693 1051 1006 q 819 0 853 157 l 232 0 z "},"W":{"ha":1451,"x_min":-11,"x_max":1464,"o":"m 139 0 q -11 1060 81 535 l 350 1060 q 365 944 357 1003 q 379 828 372 885 q 404 630 383 790 q 438 340 425 469 q 456 128 451 211 l 474 128 l 594 1060 l 861 1060 l 979 128 l 996 128 q 1037 526 1007 279 q 1074 828 1067 774 q 1103 1060 1089 940 l 1464 1060 q 1383 544 1429 879 q 1315 0 1338 208 l 803 0 q 736 489 750 335 l 718 489 q 651 0 696 275 l 139 0 z "},"X":{"ha":1121,"x_min":11,"x_max":1110,"o":"m 11 0 q 77 167 38 72 q 131 296 117 263 q 192 440 167 376 q 263 502 206 475 q 383 529 319 529 l 383 551 q 259 574 313 551 q 190 642 206 597 l 128 793 q 19 1060 60 950 l 390 1060 l 544 629 l 578 629 l 731 1060 l 1101 1060 q 996 794 1071 972 q 932 643 967 731 q 867 574 915 596 q 739 550 818 553 l 739 529 q 864 502 810 529 q 932 425 918 475 q 1110 0 988 282 l 738 0 l 578 433 l 544 433 l 382 0 l 11 0 z "},"Y":{"ha":1015,"x_min":-12,"x_max":1028,"o":"m 1028 1060 l 781 83 q 728 21 769 42 q 607 0 688 0 l 313 0 l 403 308 l 476 308 l 540 458 l 513 458 q 432 371 485 401 q 322 340 379 340 q 214 373 258 340 q 146 485 169 406 q 79 726 132 542 q -12 1060 1 1007 l 346 1060 l 492 504 l 518 504 l 664 1060 l 1028 1060 z "},"Z":{"ha":1001,"x_min":38,"x_max":964,"o":"m 38 324 q 579 742 249 507 l 579 763 q 149 757 294 757 l 47 756 l 47 1060 l 951 1060 l 951 757 q 410 319 626 475 l 410 299 l 964 306 l 964 0 l 38 0 l 38 324 z "},"":{"ha":1608,"x_min":8,"x_max":1571,"o":"m 1571 249 l 1571 0 l 768 0 l 772 183 l 635 183 l 465 183 q 410 42 446 132 l 393 0 l 8 0 q 82 164 47 88 q 147 307 117 240 q 482 1060 356 763 l 1567 1060 l 1567 811 l 1110 811 l 1111 617 l 1529 617 l 1529 444 l 1111 444 l 1110 249 l 1571 249 m 775 394 q 776 529 776 443 q 771 958 776 706 l 756 958 q 547 394 686 754 l 775 394 z "},"":{"ha":1589,"x_min":38,"x_max":1551,"o":"m 1551 0 l 724 0 q 544 -19 642 -19 q 253 38 364 -19 q 90 217 142 96 q 38 531 38 338 q 156 947 38 817 q 535 1078 275 1078 q 714 1060 638 1078 l 1547 1060 l 1547 811 l 1043 811 l 1043 622 l 1508 633 l 1508 428 l 1043 439 l 1043 249 l 1551 249 l 1551 0 m 664 236 q 700 517 700 369 q 658 743 700 654 q 526 832 615 832 q 408 815 464 832 q 385 691 393 753 q 378 542 378 629 q 422 313 378 404 q 556 222 467 222 q 664 236 622 222 z "},"":{"ha":1086,"x_min":3,"x_max":1049,"o":"m 524 1060 q 922 932 794 1060 q 1049 531 1049 804 q 935 131 1049 261 q 568 0 821 1 l 72 0 q 81 475 81 224 l 3 472 l 3 593 l 81 590 q 72 1060 81 860 l 524 1060 m 526 229 q 633 260 594 229 q 688 354 671 290 q 704 526 704 418 q 687 701 704 636 q 628 798 669 767 q 518 829 588 829 l 414 829 l 414 590 q 504 593 443 590 l 504 472 l 414 475 l 414 229 l 526 229 z "},"":{"ha":1082,"x_min":72,"x_max":1044,"o":"m 72 0 q 75 531 75 328 q 72 1060 75 732 l 413 1060 l 413 882 l 610 885 q 1044 513 1044 885 q 939 214 1044 310 q 618 118 833 118 l 413 118 l 415 0 l 72 0 m 536 338 q 653 377 611 338 q 696 504 696 417 q 653 627 696 589 q 532 665 611 665 l 411 665 l 411 338 l 536 338 z "},"":{"ha":1228,"x_min":47,"x_max":1185,"o":"m 729 576 q 933 547 842 567 q 1105 461 1025 526 q 1185 272 1185 396 q 1126 110 1185 174 q 985 17 1068 46 q 824 -11 901 -11 q 519 69 631 -11 q 388 328 407 150 q 390 0 388 125 l 47 0 q 56 561 56 246 q 50 1060 56 856 l 1101 1060 q 1040 858 1094 963 q 901 681 985 754 q 728 594 817 607 l 729 576 m 893 242 q 901 275 901 258 q 859 390 900 347 q 758 454 818 433 q 590 499 697 475 l 525 514 l 522 643 q 650 710 588 657 q 726 817 713 764 l 388 817 l 388 385 l 678 414 l 681 365 q 723 269 688 310 q 819 229 758 229 q 893 242 856 229 z "},"a":{"ha":1053,"x_min":39,"x_max":974,"o":"m 329 -18 q 115 42 190 -18 q 39 204 39 101 q 98 342 39 285 q 256 429 157 400 q 472 458 354 458 q 636 450 539 458 l 636 471 q 602 630 636 569 q 475 690 568 690 q 411 671 439 686 q 386 507 393 600 l 65 549 q 135 761 72 675 q 299 890 197 847 q 522 933 400 933 q 789 883 690 933 q 929 738 888 832 q 972 504 971 644 l 972 317 l 972 239 q 974 0 972 63 l 633 0 l 658 239 l 639 239 q 532 56 614 129 q 329 -18 450 -18 m 479 213 q 567 242 524 213 q 636 300 611 271 l 636 393 q 579 394 621 394 q 428 368 488 394 q 368 289 368 342 q 399 232 368 251 q 479 213 429 213 z "},"b":{"ha":1072,"x_min":78,"x_max":1033,"o":"m 724 -18 q 528 51 604 -18 q 419 235 451 119 l 399 235 l 368 0 l 78 0 q 82 535 82 299 q 78 1038 82 803 l 422 1071 l 422 886 q 414 796 421 853 q 399 678 404 729 l 421 678 q 548 874 463 815 q 731 932 633 932 q 965 811 896 932 q 1033 457 1033 690 q 724 -18 1033 -18 m 583 222 q 671 240 632 222 q 693 451 693 344 q 662 622 693 550 q 550 693 631 693 q 418 633 471 693 l 418 433 q 464 276 418 331 q 583 222 510 222 z "},"c":{"ha":1006,"x_min":39,"x_max":967,"o":"m 492 -17 q 157 101 275 -17 q 39 458 39 219 q 528 932 39 932 q 764 892 672 932 q 903 767 856 851 q 964 543 951 682 l 639 514 q 500 694 621 694 q 445 688 475 694 q 393 668 415 681 q 378 457 378 558 q 414 290 378 354 q 526 226 450 226 q 578 231 550 226 q 622 244 606 236 q 640 393 633 304 l 967 393 q 908 159 957 249 q 758 26 858 69 q 492 -17 657 -17 z "},"d":{"ha":1072,"x_min":39,"x_max":993,"o":"m 640 0 q 674 238 654 108 l 653 239 q 532 49 607 115 q 333 -17 457 -17 q 110 96 182 -17 q 39 461 39 208 q 117 815 39 697 q 363 932 196 932 q 488 905 426 932 q 592 822 549 878 q 647 686 636 767 l 669 686 q 657 836 668 758 l 651 878 l 651 1038 l 992 1071 q 989 763 989 989 l 989 513 q 993 0 989 119 l 640 0 m 513 222 q 592 240 549 222 q 654 282 636 257 l 654 486 q 611 634 654 575 q 496 693 568 693 q 401 676 454 693 q 385 575 390 622 q 379 465 379 528 q 408 294 379 367 q 513 222 438 222 z "},"e":{"ha":1006,"x_min":39,"x_max":965,"o":"m 965 501 l 378 447 q 415 287 379 347 q 525 226 451 226 q 576 231 549 226 q 621 244 603 236 q 638 393 633 313 l 964 392 q 906 165 954 254 q 758 30 858 76 q 492 -17 657 -17 q 155 100 271 -17 q 39 457 39 217 q 162 815 39 697 q 528 932 285 932 q 850 831 747 932 q 965 511 953 731 l 961 511 l 965 501 m 500 693 q 444 686 474 693 q 392 667 415 679 q 379 515 381 563 l 635 539 q 500 693 614 693 z "},"f":{"ha":682,"x_min":19,"x_max":661,"o":"m 565 836 q 447 812 493 836 q 401 738 401 788 q 404 715 401 732 q 644 718 483 715 l 635 485 l 461 489 l 460 303 q 465 0 460 138 l 119 0 q 124 300 124 106 l 124 489 l 19 485 l 19 718 l 64 717 l 171 715 l 171 717 q 104 779 126 743 q 82 882 82 815 q 181 1043 82 990 q 444 1096 279 1096 q 558 1091 494 1096 q 661 1079 622 1086 l 649 826 q 565 836 597 836 z "},"g":{"ha":1032,"x_min":39,"x_max":986,"o":"m 492 -179 q 261 -149 350 -179 q 124 -52 172 -119 q 60 131 76 15 l 383 163 q 431 84 399 110 q 519 58 464 58 q 646 135 618 58 q 649 231 646 204 q 660 289 651 257 q 675 351 671 332 l 653 354 q 576 244 631 281 q 463 199 522 208 q 331 190 403 190 q 119 273 200 190 q 39 525 39 356 q 66 771 39 685 q 160 894 93 857 q 356 932 228 932 q 555 874 486 932 q 638 692 624 817 l 661 697 l 658 729 q 651 828 654 782 q 640 914 647 874 l 986 914 l 985 872 q 982 536 982 725 l 981 281 q 861 -67 978 44 q 492 -179 744 -179 m 650 482 q 616 637 650 582 q 513 692 582 692 q 413 675 456 692 l 401 639 q 392 599 394 617 q 389 536 389 581 q 402 476 389 517 q 446 403 415 436 q 526 369 476 369 q 597 382 567 369 q 650 422 626 394 l 650 482 z "},"h":{"ha":1088,"x_min":78,"x_max":1008,"o":"m 78 0 q 82 481 82 150 q 78 1036 82 907 l 422 1071 l 422 886 l 393 696 l 411 696 q 531 871 444 810 q 728 932 617 932 q 888 890 829 932 q 973 768 947 849 q 1003 560 999 688 q 1004 426 1004 501 q 1006 276 1004 350 q 1008 0 1006 86 l 664 0 q 667 96 667 106 q 668 218 668 140 l 668 471 q 637 635 668 578 q 542 693 606 693 q 472 674 511 693 q 417 633 432 656 l 417 421 q 422 0 417 132 l 78 0 z "},"i":{"ha":503,"x_min":46,"x_max":457,"o":"m 251 899 q 92 928 139 899 q 46 1022 46 957 q 92 1117 46 1088 q 251 1147 139 1147 q 410 1117 364 1147 q 457 1022 457 1088 q 410 928 457 957 q 251 899 364 899 m 79 0 q 85 388 85 185 q 79 850 85 663 q 251 836 179 836 q 346 841 301 836 q 424 850 390 846 q 421 388 421 667 q 424 0 421 178 l 79 0 z "},"":{"ha":500,"x_min":78,"x_max":421,"o":"m 78 0 q 83 388 83 185 q 78 919 83 732 q 250 914 118 914 q 421 919 381 914 q 418 388 418 736 q 421 0 418 178 l 78 0 z "},"j":{"ha":528,"x_min":-31,"x_max":490,"o":"m 285 899 q 126 928 172 899 q 79 1022 79 957 q 126 1117 79 1088 q 285 1147 172 1147 q 444 1117 397 1147 q 490 1022 490 1088 q 444 928 490 957 q 285 899 397 899 m 136 -176 q -31 -164 47 -176 l -24 89 q 26 83 7 83 q 107 110 107 83 l 110 447 q 104 850 110 651 q 165 842 115 849 q 285 836 215 836 q 449 850 361 836 q 446 457 446 703 l 446 108 q 414 -63 446 -1 q 315 -151 382 -125 q 136 -176 249 -176 z "},"":{"ha":528,"x_min":-31,"x_max":449,"o":"m 138 -174 q -31 -161 47 -174 q -26 -72 -28 -119 q -25 -4 -25 -24 q -24 90 -25 57 q 26 81 -3 81 q 87 89 67 81 q 107 118 107 97 l 110 461 q 104 921 110 722 q 285 914 161 914 q 449 921 406 914 q 446 457 446 847 l 444 108 q 413 -61 444 0 q 316 -148 382 -122 q 138 -174 250 -174 z "},"k":{"ha":1018,"x_min":78,"x_max":1032,"o":"m 78 0 q 81 532 81 328 q 78 996 81 699 l 78 1038 l 428 1071 q 414 518 418 769 l 458 518 l 658 914 l 1010 914 q 813 564 889 697 q 744 500 794 519 q 596 476 693 481 l 596 458 q 739 434 690 456 q 811 365 788 413 q 1032 0 924 183 l 661 0 l 460 406 l 414 406 q 415 350 415 385 q 428 0 421 167 l 78 0 z "},"l":{"ha":500,"x_min":78,"x_max":421,"o":"m 78 0 q 83 449 83 213 q 78 1038 83 821 l 421 1071 q 418 449 418 860 q 421 0 418 208 l 78 0 z "},"m":{"ha":1635,"x_min":78,"x_max":1556,"o":"m 78 0 q 83 456 83 142 q 78 914 83 771 l 425 914 l 396 682 l 415 682 q 509 865 432 797 q 693 933 586 932 q 878 870 804 935 q 961 682 953 806 l 979 682 q 1039 831 990 775 q 1151 909 1088 886 q 1275 932 1214 932 q 1485 833 1418 932 q 1551 576 1551 735 l 1553 307 q 1554 136 1554 222 q 1556 0 1554 50 l 1213 0 q 1217 267 1217 190 l 1217 449 q 1189 628 1217 565 q 1081 692 1161 692 q 1026 674 1054 692 q 985 632 997 657 l 985 450 q 992 0 986 285 l 647 0 q 649 223 649 81 q 650 464 650 365 q 615 637 649 582 q 517 692 581 692 q 460 674 489 692 q 418 632 431 657 l 418 474 q 425 0 418 200 l 78 0 z "},"n":{"ha":1089,"x_min":78,"x_max":1010,"o":"m 78 0 q 83 456 83 142 q 78 914 83 771 l 424 914 l 394 678 l 414 678 q 533 863 447 793 q 729 932 619 932 q 890 890 831 932 q 974 768 949 849 q 1004 560 1000 688 q 1006 426 1006 501 q 1007 276 1006 350 q 1010 0 1007 86 l 667 0 q 669 267 669 115 l 669 471 q 638 635 669 578 q 543 693 607 693 q 472 675 513 693 q 418 633 432 657 l 418 426 q 424 0 418 136 l 78 0 z "},"o":{"ha":1043,"x_min":39,"x_max":1003,"o":"m 515 -17 q 160 103 282 -17 q 39 456 39 224 q 160 810 39 689 q 515 932 282 932 q 878 810 754 932 q 1003 457 1003 689 q 878 104 1003 225 q 515 -17 754 -17 m 564 222 q 640 239 607 222 q 661 461 661 342 q 616 638 661 581 q 471 694 571 694 q 396 668 426 694 q 382 457 382 572 q 424 280 382 338 q 564 222 467 222 z "},"p":{"ha":1071,"x_min":78,"x_max":1031,"o":"m 78 -167 q 81 458 81 -18 q 78 914 81 794 l 431 914 q 399 678 410 774 l 419 676 q 531 857 453 782 q 731 932 610 932 q 963 808 896 932 q 1031 453 1031 685 q 953 101 1031 219 q 719 -18 875 -18 q 533 50 614 -18 q 419 244 451 118 l 400 244 q 406 188 403 214 q 410 140 408 163 q 428 -76 425 -18 l 429 -167 l 78 -167 m 572 222 q 671 240 621 222 q 693 451 693 332 q 661 621 693 547 q 551 694 629 694 q 472 678 507 694 q 415 635 436 663 l 415 435 q 460 285 417 349 q 572 222 503 222 z "},"q":{"ha":1072,"x_min":39,"x_max":993,"o":"m 644 46 q 663 149 653 97 l 675 210 l 651 211 q 538 43 613 103 q 333 -17 464 -17 q 107 104 175 -17 q 39 458 39 225 q 117 813 39 694 q 363 932 196 932 q 487 901 425 932 q 592 811 549 869 q 646 676 636 753 l 669 676 q 640 914 664 772 l 993 914 q 989 649 989 775 l 989 371 l 989 142 q 993 -167 989 -79 l 642 -167 l 644 46 m 518 222 q 594 239 553 222 q 654 281 635 256 l 654 485 q 635 585 654 538 q 579 663 615 633 q 496 693 543 693 q 403 676 456 693 q 392 639 400 668 q 382 569 385 610 q 379 458 379 528 q 412 283 379 343 q 518 222 444 222 z "},"r":{"ha":988,"x_min":78,"x_max":963,"o":"m 704 921 q 859 872 804 921 q 936 728 914 824 q 963 469 958 632 l 626 435 q 589 626 621 558 q 475 693 557 693 q 418 663 442 693 l 418 572 l 418 454 q 424 0 418 142 l 78 0 q 83 456 83 142 q 78 914 83 771 l 424 914 l 381 675 l 388 674 l 399 672 q 522 864 433 807 q 704 921 610 921 z "},"s":{"ha":965,"x_min":28,"x_max":938,"o":"m 460 -17 q 147 71 258 -17 q 28 326 35 158 l 336 354 q 382 256 344 289 q 501 222 419 222 q 606 235 550 222 q 615 272 611 253 q 618 311 618 290 q 579 375 618 356 q 438 399 540 394 q 194 434 282 403 q 73 520 107 465 q 39 658 39 575 q 92 801 39 739 q 244 897 146 863 q 472 932 342 932 q 725 897 626 932 q 876 781 824 863 q 938 557 929 699 l 632 528 q 584 652 625 611 q 442 693 543 693 q 375 683 407 693 q 361 596 361 642 q 372 542 361 563 q 415 508 382 521 q 511 493 447 496 q 768 458 682 488 q 882 383 854 429 q 910 263 910 336 q 851 113 910 176 q 691 17 793 50 q 460 -17 589 -17 z "},"t":{"ha":703,"x_min":19,"x_max":674,"o":"m 476 -11 q 264 29 339 -11 q 159 153 189 69 q 129 385 129 238 l 129 676 l 19 671 l 19 917 q 126 913 51 917 q 125 947 126 936 l 124 1063 q 474 1074 288 1063 l 471 913 l 674 918 q 668 794 668 835 q 665 729 668 774 q 663 669 663 690 l 468 676 l 469 393 q 476 283 469 321 q 503 244 483 244 q 653 251 583 244 q 644 4 644 85 q 476 -11 561 -11 z "},"u":{"ha":1089,"x_min":79,"x_max":1010,"o":"m 1010 914 q 1004 458 1004 772 q 1010 0 1004 143 l 663 0 l 693 236 l 674 236 q 558 49 643 115 q 367 -18 472 -18 q 153 72 217 -18 q 85 353 89 163 q 83 488 83 413 q 82 638 83 563 q 79 914 82 828 l 421 914 q 418 647 418 799 l 418 443 q 544 221 418 221 q 615 239 575 221 q 668 281 656 257 l 668 488 q 663 914 668 778 l 1010 914 z "},"v":{"ha":986,"x_min":6,"x_max":979,"o":"m 201 0 q 6 914 142 329 l 356 914 q 419 531 369 813 q 485 131 472 238 l 501 131 q 561 499 514 225 q 631 914 607 763 l 979 914 q 785 0 842 314 l 201 0 z "},"w":{"ha":1472,"x_min":6,"x_max":1467,"o":"m 140 0 q 78 463 115 208 q 6 914 40 717 l 372 914 l 382 844 q 431 436 413 607 q 457 135 450 265 l 479 135 q 585 914 529 563 l 892 914 q 996 135 956 529 l 1018 135 q 1056 555 1028 300 q 1100 914 1083 810 l 1467 914 q 1332 0 1389 458 l 826 0 q 772 331 799 189 q 747 472 756 418 l 729 472 q 715 397 721 422 q 692 261 710 367 q 651 0 674 156 l 140 0 z "},"x":{"ha":1028,"x_min":19,"x_max":1008,"o":"m 19 0 q 165 376 68 131 q 228 432 176 408 q 340 456 281 456 l 340 476 q 226 496 275 476 q 164 554 176 515 l 139 618 q 26 914 106 703 l 388 914 l 501 542 l 529 542 l 640 914 l 1001 914 q 867 556 947 760 q 807 496 853 514 q 689 475 761 478 l 689 456 q 805 433 756 456 q 867 368 854 411 q 905 269 883 325 q 950 154 926 214 q 1008 0 992 39 l 647 0 l 529 374 l 501 374 l 382 0 l 19 0 z "},"y":{"ha":974,"x_min":7,"x_max":968,"o":"m 428 -172 q 140 -156 268 -172 l 168 92 l 469 92 q 494 194 483 142 q 508 250 499 208 l 493 250 q 422 185 476 208 q 317 163 367 163 q 198 199 247 163 q 133 321 149 236 q 7 914 86 567 l 357 914 q 476 289 447 492 l 497 289 l 529 450 q 618 914 592 757 l 968 914 q 822 196 901 606 q 752 -30 793 47 q 636 -140 711 -107 q 428 -172 561 -172 z "},"z":{"ha":879,"x_min":19,"x_max":860,"o":"m 19 257 q 518 618 211 428 l 518 638 l 490 636 l 279 632 l 22 631 l 22 914 l 846 914 l 846 644 q 624 470 743 551 q 344 290 506 389 l 344 272 l 569 278 l 860 279 l 860 0 l 19 0 l 19 257 z "},"":{"ha":1604,"x_min":42,"x_max":1564,"o":"m 1564 501 l 976 447 q 1014 287 978 347 q 1124 226 1050 226 q 1174 231 1147 226 q 1219 244 1201 236 q 1236 393 1232 313 l 1563 392 q 1505 165 1553 254 q 1356 30 1457 76 q 1090 -17 1256 -17 q 672 232 765 -17 l 669 221 q 599 109 649 164 q 478 18 550 54 q 322 -18 406 -18 q 110 40 179 -18 q 42 201 42 97 q 99 341 42 283 q 256 428 157 399 q 475 458 354 458 q 638 450 542 458 l 638 471 q 604 631 638 571 q 481 690 571 690 q 413 681 442 690 q 386 507 392 597 l 69 542 q 138 753 74 665 q 303 884 201 840 q 518 928 404 928 q 821 861 714 928 q 1126 932 938 932 q 1449 831 1346 932 q 1564 511 1551 731 l 1560 511 l 1564 501 m 1099 693 q 1043 686 1072 693 q 990 667 1014 679 q 978 515 979 563 l 1233 539 q 1099 693 1213 693 m 639 393 q 592 394 622 394 q 371 286 371 394 q 398 231 371 250 q 472 213 425 213 q 565 238 522 213 q 639 299 608 263 l 639 393 z "},"":{"ha":1632,"x_min":39,"x_max":1592,"o":"m 1592 501 l 1004 447 q 1042 287 1006 347 q 1151 226 1078 226 q 1202 231 1175 226 q 1247 244 1229 236 q 1264 393 1260 313 l 1590 392 q 1533 165 1581 254 q 1384 30 1485 76 q 1118 -17 1283 -17 q 826 61 935 -17 q 515 -17 707 -17 q 160 103 282 -17 q 39 456 39 224 q 160 810 39 689 q 515 932 282 932 q 831 850 711 932 q 1154 932 950 932 q 1476 831 1374 932 q 1592 511 1579 731 l 1588 511 l 1592 501 m 640 239 q 661 461 661 342 q 616 638 661 581 q 471 694 571 694 q 396 668 426 694 q 382 457 382 572 q 424 280 382 338 q 564 222 467 222 q 640 239 607 222 m 1126 693 q 1071 686 1100 693 q 1018 667 1042 679 q 1006 515 1007 563 l 1261 539 q 1126 693 1240 693 z "},"":{"ha":1029,"x_min":44,"x_max":986,"o":"m 986 425 l 986 411 q 877 90 986 196 q 521 -17 768 -17 q 155 86 265 -17 q 44 406 44 189 q 158 726 44 619 q 504 832 272 832 q 680 797 604 832 q 801 711 756 761 q 865 614 847 661 l 882 614 q 748 828 857 751 q 469 911 639 904 l 463 853 l 358 863 l 364 911 q 213 890 290 904 l 229 1156 q 394 1144 339 1150 l 401 1199 l 504 1189 l 497 1129 q 764 1031 657 1100 q 928 831 871 961 q 986 499 986 701 l 986 425 m 485 221 q 604 275 564 221 q 644 422 644 329 q 629 568 644 494 q 554 593 603 593 q 429 544 472 593 q 386 417 386 494 q 407 239 386 339 q 485 221 446 221 z "},"":{"ha":1064,"x_min":78,"x_max":1024,"o":"m 78 -165 q 81 458 81 -17 q 78 1060 81 794 l 424 1060 q 410 841 418 921 q 392 678 403 761 l 413 676 q 526 858 444 785 q 733 932 607 932 q 916 873 853 932 q 1001 707 979 814 q 1024 431 1024 600 q 945 97 1024 213 q 713 -18 867 -18 q 576 10 643 -18 q 465 94 510 39 q 417 225 421 149 l 397 225 l 410 72 q 416 7 411 51 q 422 -76 421 -37 l 422 -165 l 78 -165 m 565 222 q 664 240 614 222 q 686 451 686 332 q 654 621 686 547 q 544 694 622 694 q 465 678 500 694 q 410 635 431 663 l 410 457 q 452 286 410 350 q 565 222 494 222 z "},"":{"ha":1214,"x_min":46,"x_max":1185,"o":"m 726 579 q 916 549 822 569 q 1097 461 1010 528 q 1185 272 1185 394 q 1126 110 1185 174 q 985 17 1068 46 q 824 -11 901 -11 q 519 69 631 -11 q 386 326 407 149 q 390 0 386 142 l 46 0 q 49 252 49 90 q 50 725 50 414 q 122 917 50 838 q 301 1038 193 997 q 517 1079 410 1079 q 770 1044 661 1079 q 938 951 879 1008 q 994 829 996 893 q 927 703 994 756 q 726 599 860 651 l 726 579 m 893 240 q 894 268 894 249 q 878 351 894 313 q 825 403 861 389 q 663 461 796 414 q 522 510 585 486 l 522 632 q 580 656 531 636 q 661 703 629 676 q 693 758 693 731 q 655 803 692 785 q 560 822 618 822 q 443 786 486 822 q 386 643 386 739 l 386 385 l 590 406 l 590 413 l 678 414 l 678 399 q 717 278 678 328 q 819 229 756 229 q 893 240 860 229 z "},"":{"ha":1057,"x_min":-11,"x_max":1069,"o":"m 713 0 q 686 124 693 92 q 678 160 683 140 q 668 206 674 181 l 526 206 l 386 206 l 339 0 l -11 0 l 58 297 q 233 1060 194 874 l 822 1060 q 1069 0 886 765 l 713 0 m 631 378 q 535 947 550 749 l 517 947 q 422 378 493 724 l 631 378 z "},"":{"ha":1057,"x_min":-11,"x_max":1069,"o":"m 713 0 q 686 124 693 92 q 678 160 683 140 q 668 206 674 181 l 526 206 l 386 206 l 339 0 l -11 0 l 58 297 q 233 1060 194 874 l 822 1060 q 1069 0 886 765 l 713 0 m 631 378 q 535 947 550 749 l 517 947 q 422 378 493 724 l 631 378 z "},"":{"ha":1057,"x_min":-11,"x_max":1069,"o":"m 713 0 q 686 124 693 92 q 678 160 683 140 q 668 206 674 181 l 526 206 l 386 206 l 339 0 l -11 0 l 58 297 q 233 1060 194 874 l 822 1060 q 1069 0 886 765 l 713 0 m 631 378 q 535 947 550 749 l 517 947 q 422 378 493 724 l 631 378 z "},"":{"ha":1057,"x_min":-11,"x_max":1069,"o":"m 713 0 q 686 124 693 92 q 678 160 683 140 q 668 206 674 181 l 526 206 l 386 206 l 339 0 l -11 0 l 58 297 q 233 1060 194 874 l 822 1060 q 1069 0 886 765 l 713 0 m 631 378 q 535 947 550 749 l 517 947 q 422 378 493 724 l 631 378 z "},"":{"ha":1057,"x_min":-11,"x_max":1069,"o":"m 713 0 q 686 124 693 92 q 678 160 683 140 q 668 206 674 181 l 526 206 l 386 206 l 339 0 l -11 0 l 58 297 q 233 1060 194 874 l 822 1060 q 1069 0 886 765 l 713 0 m 631 378 q 535 947 550 749 l 517 947 q 422 378 493 724 l 631 378 z "},"":{"ha":1057,"x_min":-11,"x_max":1069,"o":"m 713 0 q 686 124 693 92 q 678 160 683 140 q 668 206 674 181 l 526 206 l 386 206 l 339 0 l -11 0 l 58 297 q 233 1060 194 874 l 822 1060 q 1069 0 886 765 l 713 0 m 631 378 q 535 947 550 749 l 517 947 q 422 378 493 724 l 631 378 z "},"":{"ha":1057,"x_min":-11,"x_max":1069,"o":"m 713 0 q 686 124 693 92 q 678 160 683 140 q 668 206 674 181 l 526 206 l 386 206 l 339 0 l -11 0 l 58 297 q 233 1060 194 874 l 822 1060 q 1069 0 886 765 l 713 0 m 631 378 q 535 947 550 749 l 517 947 q 422 378 493 724 l 631 378 z "},"":{"ha":1057,"x_min":-11,"x_max":1069,"o":"m 713 0 q 686 124 693 92 q 678 160 683 140 q 668 206 674 181 l 526 206 l 386 206 l 339 0 l -11 0 l 58 297 q 233 1060 194 874 l 822 1060 q 1069 0 886 765 l 713 0 m 631 378 q 535 947 550 749 l 517 947 q 422 378 493 724 l 631 378 z "},"":{"ha":1057,"x_min":-11,"x_max":1082,"o":"m 1082 1458 l 783 1294 l 643 1351 l 904 1546 l 1082 1458 m 529 1201 l 315 1101 l 272 1244 l 514 1385 l 546 1385 l 788 1244 l 746 1101 l 529 1201 m 822 1060 q 1069 0 886 765 l 713 0 q 686 124 693 92 q 678 160 683 140 q 668 206 674 181 l 526 206 l 386 206 l 339 0 l -11 0 l 58 297 q 233 1060 194 874 l 822 1060 m 631 378 q 535 947 550 749 l 517 947 q 422 378 493 724 l 631 378 z "},"":{"ha":1057,"x_min":-11,"x_max":1069,"o":"m 713 0 q 686 124 693 92 q 678 160 683 140 q 668 206 674 181 l 526 206 l 386 206 l 339 0 l -11 0 l 58 297 q 233 1060 194 874 l 822 1060 q 1069 0 886 765 l 713 0 m 631 378 q 535 947 550 749 l 517 947 q 422 378 493 724 l 631 378 z "},"":{"ha":1057,"x_min":-24,"x_max":1069,"o":"m 403 1353 l 267 1297 l -24 1457 l 150 1542 l 403 1353 m 315 1101 l 272 1244 l 514 1385 l 546 1385 l 788 1244 l 746 1101 l 529 1201 l 315 1101 m 713 0 q 686 124 693 92 q 678 160 683 140 q 668 206 674 181 l 526 206 l 386 206 l 339 0 l -11 0 l 58 297 q 233 1060 194 874 l 822 1060 q 1069 0 886 765 l 713 0 m 631 378 q 535 947 550 749 l 517 947 q 422 378 493 724 l 631 378 z "},"":{"ha":1057,"x_min":-11,"x_max":1069,"o":"m 713 0 q 686 124 693 92 q 678 160 683 140 q 668 206 674 181 l 526 206 l 386 206 l 339 0 l -11 0 l 58 297 q 233 1060 194 874 l 822 1060 q 1069 0 886 765 l 713 0 m 631 378 q 535 947 550 749 l 517 947 q 422 378 493 724 l 631 378 z "},"":{"ha":1057,"x_min":-11,"x_max":1069,"o":"m 713 0 q 686 124 693 92 q 678 160 683 140 q 668 206 674 181 l 526 206 l 386 206 l 339 0 l -11 0 l 58 297 q 233 1060 194 874 l 822 1060 q 1069 0 886 765 l 713 0 m 631 378 q 535 947 550 749 l 517 947 q 422 378 493 724 l 631 378 z "},"":{"ha":1057,"x_min":-11,"x_max":1069,"o":"m 713 0 q 686 124 693 92 q 678 160 683 140 q 668 206 674 181 l 526 206 l 386 206 l 339 0 l -11 0 l 58 297 q 233 1060 194 874 l 822 1060 q 1069 0 886 765 l 713 0 m 631 378 q 535 947 550 749 l 517 947 q 422 378 493 724 l 631 378 z "},"":{"ha":1057,"x_min":-11,"x_max":1069,"o":"m 713 0 q 686 124 693 92 q 678 160 683 140 q 668 206 674 181 l 526 206 l 386 206 l 339 0 l -11 0 l 58 297 q 233 1060 194 874 l 822 1060 q 1069 0 886 765 l 713 0 m 631 378 q 535 947 550 749 l 517 947 q 422 378 493 724 l 631 378 z "},"":{"ha":1057,"x_min":-11,"x_max":1069,"o":"m 713 0 q 686 124 693 92 q 678 160 683 140 q 668 206 674 181 l 526 206 l 386 206 l 339 0 l -11 0 l 58 297 q 233 1060 194 874 l 822 1060 q 1069 0 886 765 l 713 0 m 631 378 q 535 947 550 749 l 517 947 q 422 378 493 724 l 631 378 z "},"":{"ha":1057,"x_min":-11,"x_max":1125,"o":"m 1125 -250 q 961 -306 1064 -306 q 825 -270 876 -306 q 774 -169 774 -235 q 816 -73 774 -117 q 982 0 858 -29 l 713 0 q 686 124 693 92 q 678 160 683 140 q 668 206 674 181 l 526 206 l 386 206 l 339 0 l -11 0 l 58 297 q 233 1060 194 874 l 822 1060 q 1069 0 886 765 q 1000 -58 1021 -37 q 979 -104 979 -79 q 1029 -153 979 -153 q 1058 -149 1046 -153 q 1086 -135 1071 -144 l 1125 -250 m 631 378 q 535 947 550 749 l 517 947 q 422 378 493 724 l 631 378 z "},"":{"ha":1057,"x_min":-11,"x_max":1069,"o":"m 713 0 q 686 124 693 92 q 678 160 683 140 q 668 206 674 181 l 526 206 l 386 206 l 339 0 l -11 0 l 58 297 q 233 1060 194 874 l 822 1060 q 1069 0 886 765 l 713 0 m 631 378 q 535 947 550 749 l 517 947 q 422 378 493 724 l 631 378 z "},"":{"ha":1057,"x_min":-11,"x_max":1069,"o":"m 713 0 q 686 124 693 92 q 678 160 683 140 q 668 206 674 181 l 526 206 l 386 206 l 339 0 l -11 0 l 58 297 q 233 1060 194 874 l 822 1060 q 1069 0 886 765 l 713 0 m 631 378 q 535 947 550 749 l 517 947 q 422 378 493 724 l 631 378 z "},"":{"ha":1057,"x_min":-11,"x_max":1069,"o":"m 713 0 q 686 124 693 92 q 678 160 683 140 q 668 206 674 181 l 526 206 l 386 206 l 339 0 l -11 0 l 58 297 q 233 1060 194 874 l 822 1060 q 1069 0 886 765 l 713 0 m 631 378 q 535 947 550 749 l 517 947 q 422 378 493 724 l 631 378 z "},"":{"ha":1608,"x_min":8,"x_max":1571,"o":"m 1571 249 l 1571 0 l 768 0 l 772 183 l 635 183 l 465 183 q 410 42 446 132 l 393 0 l 8 0 q 82 164 47 88 q 147 307 117 240 q 482 1060 356 763 l 1567 1060 l 1567 811 l 1110 811 l 1111 617 l 1529 617 l 1529 444 l 1111 444 l 1110 249 l 1571 249 m 775 394 q 776 529 776 443 q 771 958 776 706 l 756 958 q 547 394 686 754 l 775 394 z "},"":{"ha":1103,"x_min":72,"x_max":1065,"o":"m 74 124 q 79 529 79 401 q 78 716 79 626 q 75 871 76 806 q 72 1060 72 1015 l 583 1060 q 838 1041 740 1060 q 988 967 935 1022 q 1040 806 1040 913 q 1008 672 1040 724 q 891 592 975 621 q 654 557 807 564 l 654 536 q 903 503 814 529 q 1028 426 992 476 q 1065 290 1065 375 q 1017 115 1065 178 q 869 26 968 51 q 608 0 771 0 l 72 0 l 74 124 m 547 625 q 652 651 617 625 q 688 735 688 676 q 651 821 688 796 q 543 846 614 846 l 410 846 l 410 625 l 547 625 m 553 239 q 679 265 639 239 q 719 356 719 292 q 676 440 719 415 q 546 464 633 464 l 410 464 l 410 239 l 553 239 z "},"":{"ha":1074,"x_min":38,"x_max":1036,"o":"m 542 -19 q 251 39 363 -19 q 89 218 140 97 q 38 531 38 339 q 89 841 38 721 q 251 1019 140 961 q 542 1078 363 1078 q 914 963 800 1078 q 1036 622 1028 849 l 696 589 q 642 776 688 718 q 494 833 597 833 q 411 817 443 833 q 379 497 379 672 q 426 290 379 356 q 586 224 472 224 q 665 236 632 224 q 693 401 683 306 l 1032 401 q 903 88 1022 194 q 542 -19 785 -19 z "},"":{"ha":1074,"x_min":38,"x_max":1036,"o":"m 542 -19 q 251 39 363 -19 q 89 218 140 97 q 38 531 38 339 q 89 841 38 721 q 251 1019 140 961 q 542 1078 363 1078 q 914 963 800 1078 q 1036 622 1028 849 l 696 589 q 642 776 688 718 q 494 833 597 833 q 411 817 443 833 q 379 497 379 672 q 426 290 379 356 q 586 224 472 224 q 665 236 632 224 q 693 401 683 306 l 1032 401 q 903 88 1022 194 q 542 -19 785 -19 z "},"":{"ha":1074,"x_min":38,"x_max":1036,"o":"m 665 236 q 693 401 683 306 l 1032 401 q 913 97 1022 203 q 579 -19 803 -10 l 575 -40 q 703 -73 656 -43 q 751 -154 751 -103 q 720 -226 751 -196 q 642 -272 689 -256 q 547 -287 594 -287 q 476 -278 510 -287 q 418 -257 442 -269 l 435 -151 q 500 -162 464 -162 q 549 -152 531 -162 q 567 -128 567 -142 q 546 -96 567 -107 q 467 -76 525 -85 l 479 -18 q 142 129 247 -3 q 38 531 38 261 q 89 841 38 721 q 251 1019 140 961 q 542 1078 363 1078 q 914 963 800 1078 q 1036 622 1028 849 l 696 589 q 642 776 688 718 q 494 833 597 833 q 411 817 443 833 q 379 497 379 672 q 426 290 379 356 q 586 224 472 224 q 665 236 632 224 z "},"":{"ha":1074,"x_min":38,"x_max":1036,"o":"m 542 -19 q 251 39 363 -19 q 89 218 140 97 q 38 531 38 339 q 89 841 38 721 q 251 1019 140 961 q 542 1078 363 1078 q 914 963 800 1078 q 1036 622 1028 849 l 696 589 q 642 776 688 718 q 494 833 597 833 q 411 817 443 833 q 379 497 379 672 q 426 290 379 356 q 586 224 472 224 q 665 236 632 224 q 693 401 683 306 l 1032 401 q 903 88 1022 194 q 542 -19 785 -19 z "},"":{"ha":1074,"x_min":38,"x_max":1036,"o":"m 542 -19 q 251 39 363 -19 q 89 218 140 97 q 38 531 38 339 q 89 841 38 721 q 251 1019 140 961 q 542 1078 363 1078 q 914 963 800 1078 q 1036 622 1028 849 l 696 589 q 642 776 688 718 q 494 833 597 833 q 411 817 443 833 q 379 497 379 672 q 426 290 379 356 q 586 224 472 224 q 665 236 632 224 q 693 401 683 306 l 1032 401 q 903 88 1022 194 q 542 -19 785 -19 z "},"":{"ha":1086,"x_min":72,"x_max":1049,"o":"m 72 0 q 81 529 81 250 q 72 1060 81 833 l 524 1060 q 922 932 794 1060 q 1049 531 1049 804 q 935 131 1049 261 q 568 0 821 1 l 72 0 m 526 229 q 633 260 594 229 q 688 354 671 290 q 704 526 704 418 q 687 701 704 636 q 628 798 669 767 q 518 829 588 829 l 414 829 l 414 229 l 526 229 z "},"":{"ha":1086,"x_min":72,"x_max":1049,"o":"m 72 0 q 81 529 81 250 q 72 1060 81 833 l 524 1060 q 922 932 794 1060 q 1049 531 1049 804 q 935 131 1049 261 q 568 0 821 1 l 72 0 m 526 229 q 633 260 594 229 q 688 354 671 290 q 704 526 704 418 q 687 701 704 636 q 628 798 669 767 q 518 829 588 829 l 414 829 l 414 229 l 526 229 z "},"":{"ha":1086,"x_min":3,"x_max":1049,"o":"m 524 1060 q 922 932 794 1060 q 1049 531 1049 804 q 935 131 1049 261 q 568 0 821 1 l 72 0 q 81 475 81 224 l 3 472 l 3 593 l 81 590 q 72 1060 81 860 l 524 1060 m 526 229 q 633 260 594 229 q 688 354 671 290 q 704 526 704 418 q 687 701 704 636 q 628 798 669 767 q 518 829 588 829 l 414 829 l 414 590 q 504 593 443 590 l 504 472 l 414 475 l 414 229 l 526 229 z "},"":{"ha":1086,"x_min":72,"x_max":1049,"o":"m 72 0 q 81 529 81 250 q 72 1060 81 833 l 524 1060 q 922 932 794 1060 q 1049 531 1049 804 q 935 131 1049 261 q 568 0 821 1 l 72 0 m 526 229 q 633 260 594 229 q 688 354 671 290 q 704 526 704 418 q 687 701 704 636 q 628 798 669 767 q 518 829 588 829 l 414 829 l 414 229 l 526 229 z "},"":{"ha":1086,"x_min":72,"x_max":1049,"o":"m 72 0 q 81 529 81 250 q 72 1060 81 833 l 524 1060 q 922 932 794 1060 q 1049 531 1049 804 q 935 131 1049 261 q 568 0 821 1 l 72 0 m 526 229 q 633 260 594 229 q 688 354 671 290 q 704 526 704 418 q 687 701 704 636 q 628 798 669 767 q 518 829 588 829 l 414 829 l 414 229 l 526 229 z "},"":{"ha":960,"x_min":72,"x_max":921,"o":"m 72 0 q 78 250 76 107 q 81 529 81 393 q 72 1060 81 813 l 918 1060 l 918 811 l 414 811 l 414 622 l 879 633 l 879 428 l 414 439 l 414 249 l 921 249 l 921 0 l 72 0 z "},"":{"ha":960,"x_min":72,"x_max":921,"o":"m 72 0 q 78 250 76 107 q 81 529 81 393 q 72 1060 81 813 l 918 1060 l 918 811 l 414 811 l 414 622 l 879 633 l 879 428 l 414 439 l 414 249 l 921 249 l 921 0 l 72 0 z "},"":{"ha":960,"x_min":72,"x_max":921,"o":"m 72 0 q 78 250 76 107 q 81 529 81 393 q 72 1060 81 813 l 918 1060 l 918 811 l 414 811 l 414 622 l 879 633 l 879 428 l 414 439 l 414 249 l 921 249 l 921 0 l 72 0 z "},"":{"ha":960,"x_min":72,"x_max":921,"o":"m 72 0 q 78 250 76 107 q 81 529 81 393 q 72 1060 81 813 l 918 1060 l 918 811 l 414 811 l 414 622 l 879 633 l 879 428 l 414 439 l 414 249 l 921 249 l 921 0 l 72 0 z "},"":{"ha":960,"x_min":72,"x_max":1029,"o":"m 871 1519 l 1029 1442 l 764 1296 l 640 1347 l 871 1519 m 240 1244 l 482 1385 l 514 1385 l 756 1244 l 714 1101 l 497 1201 l 283 1101 l 240 1244 m 72 0 q 78 250 76 107 q 81 529 81 393 q 72 1060 81 813 l 918 1060 l 918 811 l 414 811 l 414 622 l 879 633 l 879 428 l 414 439 l 414 249 l 921 249 l 921 0 l 72 0 z "},"":{"ha":960,"x_min":72,"x_max":921,"o":"m 72 0 q 78 250 76 107 q 81 529 81 393 q 72 1060 81 813 l 918 1060 l 918 811 l 414 811 l 414 622 l 879 633 l 879 428 l 414 439 l 414 249 l 921 249 l 921 0 l 72 0 z "},"":{"ha":960,"x_min":-58,"x_max":921,"o":"m 208 1285 l -58 1432 l 101 1510 l 333 1336 l 208 1285 m 240 1244 l 482 1385 l 514 1385 l 756 1244 l 714 1101 l 497 1201 l 283 1101 l 240 1244 m 72 0 q 78 250 76 107 q 81 529 81 393 q 72 1060 81 813 l 918 1060 l 918 811 l 414 811 l 414 622 l 879 633 l 879 428 l 414 439 l 414 249 l 921 249 l 921 0 l 72 0 z "},"":{"ha":960,"x_min":72,"x_max":921,"o":"m 72 0 q 78 250 76 107 q 81 529 81 393 q 72 1060 81 813 l 918 1060 l 918 811 l 414 811 l 414 622 l 879 633 l 879 428 l 414 439 l 414 249 l 921 249 l 921 0 l 72 0 z "},"":{"ha":960,"x_min":72,"x_max":921,"o":"m 72 0 q 78 250 76 107 q 81 529 81 393 q 72 1060 81 813 l 918 1060 l 918 811 l 414 811 l 414 622 l 879 633 l 879 428 l 414 439 l 414 249 l 921 249 l 921 0 l 72 0 z "},"":{"ha":960,"x_min":72,"x_max":921,"o":"m 72 0 q 78 250 76 107 q 81 529 81 393 q 72 1060 81 813 l 918 1060 l 918 811 l 414 811 l 414 622 l 879 633 l 879 428 l 414 439 l 414 249 l 921 249 l 921 0 l 72 0 z "},"":{"ha":960,"x_min":72,"x_max":921,"o":"m 72 0 q 78 250 76 107 q 81 529 81 393 q 72 1060 81 813 l 918 1060 l 918 811 l 414 811 l 414 622 l 879 633 l 879 428 l 414 439 l 414 249 l 921 249 l 921 0 l 72 0 z "},"":{"ha":960,"x_min":72,"x_max":921,"o":"m 72 0 q 78 250 76 107 q 81 529 81 393 q 72 1060 81 813 l 918 1060 l 918 811 l 414 811 l 414 622 l 879 633 l 879 428 l 414 439 l 414 249 l 921 249 l 921 0 l 72 0 z "},"":{"ha":960,"x_min":72,"x_max":921,"o":"m 72 0 q 78 250 76 107 q 81 529 81 393 q 72 1060 81 813 l 918 1060 l 918 811 l 414 811 l 414 622 l 879 633 l 879 428 l 414 439 l 414 249 l 921 249 l 921 0 l 72 0 z "},"":{"ha":960,"x_min":72,"x_max":978,"o":"m 978 -250 q 814 -306 917 -306 q 678 -270 729 -306 q 626 -169 626 -235 q 669 -73 626 -117 q 835 0 711 -29 l 72 0 q 78 250 76 107 q 81 529 81 393 q 72 1060 81 813 l 918 1060 l 918 811 l 414 811 l 414 622 l 879 633 l 879 428 l 414 439 l 414 249 l 921 249 l 921 1 l 922 0 q 853 -58 874 -37 q 832 -104 832 -79 q 882 -153 832 -153 q 911 -149 899 -153 q 939 -135 924 -144 l 978 -250 z "},"":{"ha":960,"x_min":72,"x_max":921,"o":"m 72 0 q 78 250 76 107 q 81 529 81 393 q 72 1060 81 813 l 918 1060 l 918 811 l 414 811 l 414 622 l 879 633 l 879 428 l 414 439 l 414 249 l 921 249 l 921 0 l 72 0 z "},"":{"ha":944,"x_min":72,"x_max":906,"o":"m 72 0 q 81 529 81 338 q 75 875 81 636 q 72 1060 72 1019 l 906 1060 l 906 811 l 413 811 l 414 583 l 868 594 l 868 378 l 414 389 q 417 0 414 225 l 72 0 z "},"":{"ha":1061,"x_min":14,"x_max":1047,"o":"m 432 -19 q 119 122 224 -19 q 14 531 14 263 q 131 947 14 815 q 510 1078 249 1078 q 801 1031 696 1078 q 952 884 906 985 q 1007 611 999 783 l 665 576 q 622 765 660 697 q 503 832 583 832 q 388 815 439 832 q 361 690 369 750 q 353 543 353 629 q 399 314 353 406 q 532 222 444 222 q 639 236 586 222 q 697 272 661 244 q 721 290 707 282 q 697 369 721 340 q 625 397 674 397 l 540 397 l 540 467 l 1046 467 l 1046 340 q 1047 0 1046 146 l 714 0 l 721 236 l 700 236 q 616 44 685 107 q 432 -19 547 -19 z "},"":{"ha":1061,"x_min":14,"x_max":1047,"o":"m 432 -19 q 119 122 224 -19 q 14 531 14 263 q 131 947 14 815 q 510 1078 249 1078 q 801 1031 696 1078 q 952 884 906 985 q 1007 611 999 783 l 665 576 q 622 765 660 697 q 503 832 583 832 q 388 815 439 832 q 361 690 369 750 q 353 543 353 629 q 399 314 353 406 q 532 222 444 222 q 639 236 586 222 q 697 272 661 244 q 721 290 707 282 q 697 369 721 340 q 625 397 674 397 l 540 397 l 540 467 l 1046 467 l 1046 340 q 1047 0 1046 146 l 714 0 l 721 236 l 700 236 q 616 44 685 107 q 432 -19 547 -19 z "},"":{"ha":1061,"x_min":14,"x_max":1047,"o":"m 432 -19 q 119 122 224 -19 q 14 531 14 263 q 131 947 14 815 q 510 1078 249 1078 q 801 1031 696 1078 q 952 884 906 985 q 1007 611 999 783 l 665 576 q 622 765 660 697 q 503 832 583 832 q 388 815 439 832 q 361 690 369 750 q 353 543 353 629 q 399 314 353 406 q 532 222 444 222 q 639 236 586 222 q 697 272 661 244 q 721 290 707 282 q 697 369 721 340 q 625 397 674 397 l 540 397 l 540 467 l 1046 467 l 1046 340 q 1047 0 1046 146 l 714 0 l 721 236 l 700 236 q 616 44 685 107 q 432 -19 547 -19 z "},"":{"ha":1061,"x_min":14,"x_max":1047,"o":"m 432 -19 q 119 122 224 -19 q 14 531 14 263 q 131 947 14 815 q 510 1078 249 1078 q 801 1031 696 1078 q 952 884 906 985 q 1007 611 999 783 l 665 576 q 622 765 660 697 q 503 832 583 832 q 388 815 439 832 q 361 690 369 750 q 353 543 353 629 q 399 314 353 406 q 532 222 444 222 q 639 236 586 222 q 697 272 661 244 q 721 290 707 282 q 697 369 721 340 q 625 397 674 397 l 540 397 l 540 467 l 1046 467 l 1046 340 q 1047 0 1046 146 l 714 0 l 721 236 l 700 236 q 616 44 685 107 q 432 -19 547 -19 z "},"":{"ha":1061,"x_min":14,"x_max":1047,"o":"m 432 -19 q 119 122 224 -19 q 14 531 14 263 q 131 947 14 815 q 510 1078 249 1078 q 801 1031 696 1078 q 952 884 906 985 q 1007 611 999 783 l 665 576 q 622 765 660 697 q 503 832 583 832 q 388 815 439 832 q 361 690 369 750 q 353 543 353 629 q 399 314 353 406 q 532 222 444 222 q 639 236 586 222 q 697 272 661 244 q 721 290 707 282 q 697 369 721 340 q 625 397 674 397 l 540 397 l 540 467 l 1046 467 l 1046 340 q 1047 0 1046 146 l 714 0 l 721 236 l 700 236 q 616 44 685 107 q 432 -19 547 -19 z "},"":{"ha":1119,"x_min":29,"x_max":1090,"o":"m 1043 747 l 1043 529 q 1047 0 1043 115 l 704 0 q 710 442 710 190 l 413 442 q 415 0 413 242 l 72 0 q 79 529 79 294 q 78 747 79 672 l 29 747 l 29 882 l 76 882 l 72 1060 l 415 1060 l 414 882 l 708 882 l 704 1060 l 1047 1060 q 1044 882 1044 965 l 1090 882 l 1090 747 l 1043 747 m 710 640 l 710 747 l 413 747 l 413 640 l 710 640 z "},"":{"ha":1119,"x_min":72,"x_max":1047,"o":"m 1047 1060 q 1043 529 1043 943 q 1047 0 1043 115 l 704 0 q 710 442 710 190 l 413 442 q 415 0 413 242 l 72 0 q 79 529 79 294 q 72 1060 79 764 l 415 1060 q 413 640 413 815 l 710 640 q 704 1060 710 867 l 1047 1060 z "},"":{"ha":1119,"x_min":72,"x_max":1047,"o":"m 1047 1060 q 1043 529 1043 943 q 1047 0 1043 115 l 704 0 q 710 442 710 190 l 413 442 q 415 0 413 242 l 72 0 q 79 529 79 294 q 72 1060 79 764 l 415 1060 q 413 640 413 815 l 710 640 q 704 1060 710 867 l 1047 1060 z "},"":{"ha":1119,"x_min":72,"x_max":1047,"o":"m 1047 1060 q 1043 529 1043 943 q 1047 0 1043 115 l 704 0 q 710 442 710 190 l 413 442 q 415 0 413 242 l 72 0 q 79 529 79 294 q 72 1060 79 764 l 415 1060 q 413 640 413 815 l 710 640 q 704 1060 710 867 l 1047 1060 z "},"":{"ha":1481,"x_min":72,"x_max":1426,"o":"m 972 -19 q 636 86 747 -19 q 525 411 525 192 l 851 411 q 885 265 851 307 q 982 222 918 222 q 1069 240 1031 222 q 1085 360 1085 288 l 1085 806 l 410 806 q 408 532 408 714 q 415 0 408 178 l 72 0 q 79 531 79 221 q 72 1060 79 839 l 1426 1060 l 1426 478 q 1317 99 1426 217 q 972 -19 1207 -19 z "},"":{"ha":488,"x_min":42,"x_max":550,"o":"m 72 0 q 79 531 79 221 q 72 1060 79 839 l 415 1060 q 408 532 408 883 q 415 0 408 178 l 72 0 z "},"":{"ha":488,"x_min":10,"x_max":483,"o":"m 72 0 q 79 531 79 221 q 72 1060 79 839 l 415 1060 q 408 532 408 883 q 415 0 408 178 l 72 0 z "},"":{"ha":488,"x_min":-12,"x_max":503,"o":"m 72 0 q 79 531 79 221 q 72 1060 79 839 l 415 1060 q 408 532 408 883 q 415 0 408 178 l 72 0 z "},"":{"ha":488,"x_min":-17,"x_max":499,"o":"m 72 0 q 79 531 79 221 q 72 1060 79 839 l 415 1060 q 408 532 408 883 q 415 0 408 178 l 72 0 z "},"":{"ha":488,"x_min":-99,"x_max":583,"o":"m 72 0 q 79 531 79 221 q 72 1060 79 839 l 415 1060 q 408 532 408 883 q 415 0 408 178 l 72 0 z "},"":{"ha":488,"x_min":72,"x_max":415,"o":"m 72 0 q 79 531 79 221 q 72 1060 79 839 l 415 1060 q 408 532 408 883 q 415 0 408 178 l 72 0 z "},"":{"ha":488,"x_min":72,"x_max":415,"o":"m 72 0 q 79 531 79 221 q 72 1060 79 839 l 415 1060 q 408 532 408 883 q 415 0 408 178 l 72 0 z "},"":{"ha":488,"x_min":3,"x_max":511,"o":"m 72 0 q 79 531 79 221 q 72 1060 79 839 l 415 1060 q 408 532 408 883 q 415 0 408 178 l 72 0 z "},"":{"ha":488,"x_min":-18,"x_max":504,"o":"m 72 0 q 79 531 79 221 q 72 1060 79 839 l 415 1060 q 408 532 408 883 q 415 0 408 178 l 72 0 z "},"":{"ha":488,"x_min":38,"x_max":415,"o":"m 333 0 q 264 -58 285 -37 q 243 -104 243 -79 q 293 -153 243 -153 q 322 -149 310 -153 q 350 -135 335 -144 l 389 -250 q 225 -306 328 -306 q 89 -270 140 -306 q 38 -169 38 -235 q 80 -73 38 -117 q 246 0 122 -29 l 72 0 q 79 531 79 221 q 72 1060 79 839 l 415 1060 q 408 532 408 883 q 415 0 408 178 l 333 0 z "},"":{"ha":488,"x_min":-104,"x_max":588,"o":"m 72 0 q 79 531 79 221 q 72 1060 79 839 l 415 1060 q 408 532 408 883 q 415 0 408 178 l 72 0 z "},"":{"ha":614,"x_min":38,"x_max":563,"o":"m 43 222 q 142 227 94 222 q 203 240 190 232 q 218 360 218 288 l 218 811 l 38 807 l 38 1060 l 560 1060 l 560 478 q 435 99 560 217 q 43 -19 311 -19 l 43 222 z "},"":{"ha":1090,"x_min":72,"x_max":1079,"o":"m 1079 0 l 701 0 l 458 469 l 407 469 l 417 0 l 72 0 q 79 529 79 296 q 72 1060 79 761 l 417 1060 l 407 601 l 458 601 l 697 1060 l 1061 1060 l 846 661 q 801 600 824 619 q 735 571 778 581 q 597 549 693 561 l 597 529 q 738 508 696 518 q 800 478 779 497 q 844 413 821 458 l 1079 0 z "},"":{"ha":1092,"x_min":72,"x_max":1079,"o":"m 793 493 q 919 313 858 419 q 1079 0 979 207 l 701 0 l 453 485 l 407 485 q 415 51 410 272 q 417 0 417 29 l 72 0 q 79 529 79 296 q 72 1060 79 761 l 417 1060 q 415 1013 417 1033 q 407 586 410 803 l 454 586 l 697 1060 l 1061 1060 q 911 774 978 889 q 779 586 844 658 q 667 563 725 571 q 517 550 610 554 l 517 529 q 793 493 676 522 z "},"":{"ha":807,"x_min":56,"x_max":819,"o":"m 72 0 q 79 529 79 296 q 72 1060 79 764 l 422 1060 q 417 571 417 825 q 419 264 417 417 q 819 267 589 264 l 796 0 l 72 0 z "},"":{"ha":807,"x_min":72,"x_max":850,"o":"m 72 0 q 79 529 79 296 q 72 1060 79 764 l 422 1060 q 417 571 417 825 q 419 264 417 417 q 819 267 589 264 l 796 0 l 72 0 m 850 1033 q 832 874 850 950 q 821 838 829 858 q 810 810 813 818 q 785 739 790 765 l 714 739 q 690 804 710 761 q 667 874 671 850 q 649 1035 649 950 l 649 1060 l 850 1060 l 850 1033 z "},"":{"ha":807,"x_min":72,"x_max":819,"o":"m 72 0 q 79 529 79 296 q 72 1060 79 764 l 422 1060 q 417 571 417 825 q 419 264 417 417 q 819 267 589 264 l 796 0 l 72 0 z "},"":{"ha":807,"x_min":72,"x_max":907,"o":"m 72 0 q 79 529 79 296 q 72 1060 79 764 l 422 1060 q 417 571 417 825 q 419 264 417 417 q 819 267 589 264 l 796 0 l 72 0 z "},"":{"ha":807,"x_min":72,"x_max":819,"o":"m 72 0 q 79 529 79 296 q 72 1060 79 764 l 422 1060 q 417 571 417 825 q 419 264 417 417 q 819 267 589 264 l 796 0 l 72 0 z "},"":{"ha":807,"x_min":-37,"x_max":819,"o":"m 419 264 q 819 267 589 264 l 796 0 l 72 0 q 79 400 78 257 q 13 356 57 386 l -37 439 l 79 510 l 79 529 q 72 1060 79 764 l 422 1060 q 417 728 419 949 l 515 796 l 567 707 l 417 618 l 417 571 q 419 264 417 417 z "},"":{"ha":1506,"x_min":72,"x_max":1433,"o":"m 72 0 q 88 788 88 456 l 86 1060 l 600 1060 l 739 314 l 767 314 l 904 1060 l 1419 1060 l 1418 788 q 1433 0 1418 390 l 1124 0 q 1121 443 1124 283 l 1117 789 l 1096 789 l 929 0 l 576 0 l 410 789 l 389 789 l 385 442 q 382 108 382 208 l 382 0 l 72 0 z "},"":{"ha":1506,"x_min":72,"x_max":1433,"o":"m 72 0 q 88 788 88 456 l 86 1060 l 600 1060 l 739 314 l 767 314 l 904 1060 l 1419 1060 l 1418 788 q 1433 0 1418 390 l 1124 0 q 1121 443 1124 283 l 1117 789 l 1096 789 l 929 0 l 576 0 l 410 789 l 389 789 l 385 442 q 382 108 382 208 l 382 0 l 72 0 z "},"":{"ha":2065,"x_min":72,"x_max":1769,"o":"m 72 0 q 79 581 79 281 q 72 1060 79 796 l 558 1060 l 763 496 l 776 446 q 817 300 803 356 l 838 300 q 829 463 829 397 q 822 1060 829 710 l 1138 1060 q 1132 536 1132 815 q 1138 0 1132 256 l 650 0 l 469 481 q 396 764 426 626 l 374 764 q 378 671 375 749 q 381 557 381 593 q 386 0 381 244 l 72 0 m 1253 222 q 1352 227 1304 222 q 1413 240 1400 232 q 1428 360 1428 288 l 1428 811 l 1247 807 l 1247 1060 l 1769 1060 l 1769 478 q 1645 99 1769 217 q 1253 -19 1521 -19 l 1253 222 z "},"":{"ha":1210,"x_min":72,"x_max":1138,"o":"m 72 0 q 79 581 79 281 q 72 1060 79 796 l 558 1060 l 763 496 l 776 446 q 817 300 803 356 l 838 300 q 829 463 829 397 q 822 1060 829 710 l 1138 1060 q 1132 536 1132 815 q 1138 0 1132 256 l 650 0 l 469 481 q 396 764 426 626 l 374 764 q 378 671 375 749 q 381 557 381 593 q 386 0 381 244 l 72 0 z "},"":{"ha":1210,"x_min":72,"x_max":1138,"o":"m 72 0 q 79 581 79 281 q 72 1060 79 796 l 558 1060 l 763 496 l 776 446 q 817 300 803 356 l 838 300 q 829 463 829 397 q 822 1060 829 710 l 1138 1060 q 1132 536 1132 815 q 1138 0 1132 256 l 650 0 l 469 481 q 396 764 426 626 l 374 764 q 378 671 375 749 q 381 557 381 593 q 386 0 381 244 l 72 0 z "},"":{"ha":1210,"x_min":72,"x_max":1138,"o":"m 72 0 q 79 581 79 281 q 72 1060 79 796 l 558 1060 l 763 496 l 776 446 q 817 300 803 356 l 838 300 q 829 463 829 397 q 822 1060 829 710 l 1138 1060 q 1132 536 1132 815 q 1138 0 1132 256 l 650 0 l 469 481 q 396 764 426 626 l 374 764 q 378 671 375 749 q 381 557 381 593 q 386 0 381 244 l 72 0 z "},"":{"ha":1210,"x_min":72,"x_max":1138,"o":"m 72 0 q 79 581 79 281 q 72 1060 79 796 l 558 1060 l 763 496 l 776 446 q 817 300 803 356 l 838 300 q 829 463 829 397 q 822 1060 829 710 l 1138 1060 q 1132 536 1132 815 q 1138 0 1132 256 l 650 0 l 469 481 q 396 764 426 626 l 374 764 q 378 671 375 749 q 381 557 381 593 q 386 0 381 244 l 72 0 z "},"":{"ha":1210,"x_min":72,"x_max":1138,"o":"m 72 0 q 79 581 79 281 q 72 1060 79 796 l 558 1060 l 763 496 l 776 446 q 817 300 803 356 l 838 300 q 829 463 829 397 q 822 1060 829 710 l 1138 1060 q 1132 536 1132 815 q 1138 0 1132 256 l 650 0 l 469 481 q 396 764 426 626 l 374 764 q 378 671 375 749 q 381 557 381 593 q 386 0 381 244 l 72 0 z "},"":{"ha":1192,"x_min":72,"x_max":1138,"o":"m 1138 1060 q 1132 536 1132 815 l 1132 106 q 1092 -70 1132 3 q 979 -207 1053 -143 l 736 -139 q 815 1 796 -58 l 639 0 l 469 481 q 406 746 438 586 l 381 746 l 381 557 q 386 0 381 244 l 72 0 q 79 581 79 281 q 72 1060 79 796 l 568 1060 l 763 496 q 807 318 790 399 l 832 318 q 829 463 829 413 q 822 1060 829 710 l 1138 1060 z "},"":{"ha":1738,"x_min":72,"x_max":1700,"o":"m 72 0 q 79 581 79 281 q 72 1060 79 796 l 558 1060 l 763 496 l 776 446 q 817 300 803 356 l 838 300 q 829 463 829 397 q 822 1060 829 710 l 1138 1060 q 1132 536 1132 815 q 1138 0 1132 256 l 650 0 l 469 481 q 396 764 426 626 l 374 764 q 378 671 375 749 q 381 557 381 593 q 386 0 381 244 l 72 0 m 1494 899 q 1335 928 1382 899 q 1289 1022 1289 957 q 1335 1117 1289 1088 q 1494 1147 1382 1147 q 1653 1117 1607 1147 q 1700 1022 1700 1088 q 1653 928 1700 957 q 1494 899 1607 899 m 1346 -176 q 1179 -164 1257 -176 l 1186 89 q 1236 83 1217 83 q 1317 110 1317 83 l 1319 447 q 1314 850 1319 651 q 1375 842 1325 849 q 1494 836 1425 836 q 1658 850 1571 836 q 1656 457 1656 703 l 1656 108 q 1624 -63 1656 -1 q 1525 -151 1592 -125 q 1346 -176 1458 -176 z "},"":{"ha":1210,"x_min":72,"x_max":1138,"o":"m 72 0 q 79 581 79 281 q 72 1060 79 796 l 558 1060 l 763 496 l 776 446 q 817 300 803 356 l 838 300 q 829 463 829 397 q 822 1060 829 710 l 1138 1060 q 1132 536 1132 815 q 1138 0 1132 256 l 650 0 l 469 481 q 396 764 426 626 l 374 764 q 378 671 375 749 q 381 557 381 593 q 386 0 381 244 l 72 0 z "},"":{"ha":1082,"x_min":38,"x_max":1044,"o":"m 544 -19 q 253 38 364 -19 q 90 217 142 96 q 38 531 38 338 q 156 947 38 817 q 535 1078 275 1078 q 826 1019 714 1078 q 991 840 938 961 q 1044 525 1044 718 q 922 112 1044 243 q 544 -19 800 -19 m 556 222 q 664 236 622 222 q 700 517 700 369 q 658 743 700 654 q 526 832 615 832 q 408 815 464 832 q 385 691 393 753 q 378 542 378 629 q 422 313 378 404 q 556 222 467 222 z "},"":{"ha":1082,"x_min":38,"x_max":1044,"o":"m 544 -19 q 253 38 364 -19 q 90 217 142 96 q 38 531 38 338 q 156 947 38 817 q 535 1078 275 1078 q 826 1019 714 1078 q 991 840 938 961 q 1044 525 1044 718 q 922 112 1044 243 q 544 -19 800 -19 m 556 222 q 664 236 622 222 q 700 517 700 369 q 658 743 700 654 q 526 832 615 832 q 408 815 464 832 q 385 691 393 753 q 378 542 378 629 q 422 313 378 404 q 556 222 467 222 z "},"":{"ha":1082,"x_min":38,"x_max":1044,"o":"m 544 -19 q 253 38 364 -19 q 90 217 142 96 q 38 531 38 338 q 156 947 38 817 q 535 1078 275 1078 q 826 1019 714 1078 q 991 840 938 961 q 1044 525 1044 718 q 922 112 1044 243 q 544 -19 800 -19 m 556 222 q 664 236 622 222 q 700 517 700 369 q 658 743 700 654 q 526 832 615 832 q 408 815 464 832 q 385 691 393 753 q 378 542 378 629 q 422 313 378 404 q 556 222 467 222 z "},"":{"ha":1082,"x_min":38,"x_max":1044,"o":"m 544 -19 q 253 38 364 -19 q 90 217 142 96 q 38 531 38 338 q 156 947 38 817 q 535 1078 275 1078 q 826 1019 714 1078 q 991 840 938 961 q 1044 525 1044 718 q 922 112 1044 243 q 544 -19 800 -19 m 556 222 q 664 236 622 222 q 700 517 700 369 q 658 743 700 654 q 526 832 615 832 q 408 815 464 832 q 385 691 393 753 q 378 542 378 629 q 422 313 378 404 q 556 222 467 222 z "},"":{"ha":1082,"x_min":38,"x_max":1088,"o":"m 931 1511 l 1088 1435 l 825 1290 l 703 1340 l 931 1511 m 285 1244 l 526 1385 l 558 1385 l 800 1244 l 758 1101 l 542 1201 l 328 1101 l 285 1244 m 544 -19 q 253 38 364 -19 q 90 217 142 96 q 38 531 38 338 q 156 947 38 817 q 535 1078 275 1078 q 826 1019 714 1078 q 991 840 938 961 q 1044 525 1044 718 q 922 112 1044 243 q 544 -19 800 -19 m 556 222 q 664 236 622 222 q 700 517 700 369 q 658 743 700 654 q 526 832 615 832 q 408 815 464 832 q 385 691 393 753 q 378 542 378 629 q 422 313 378 404 q 556 222 467 222 z "},"":{"ha":1082,"x_min":38,"x_max":1044,"o":"m 544 -19 q 253 38 364 -19 q 90 217 142 96 q 38 531 38 338 q 156 947 38 817 q 535 1078 275 1078 q 826 1019 714 1078 q 991 840 938 961 q 1044 525 1044 718 q 922 112 1044 243 q 544 -19 800 -19 m 556 222 q 664 236 622 222 q 700 517 700 369 q 658 743 700 654 q 526 832 615 832 q 408 815 464 832 q 385 691 393 753 q 378 542 378 629 q 422 313 378 404 q 556 222 467 222 z "},"":{"ha":1082,"x_min":4,"x_max":1044,"o":"m 261 1299 l 4 1439 l 157 1514 l 381 1347 l 261 1299 m 285 1244 l 526 1385 l 558 1385 l 800 1244 l 758 1101 l 542 1201 l 328 1101 l 285 1244 m 544 -19 q 253 38 364 -19 q 90 217 142 96 q 38 531 38 338 q 156 947 38 817 q 535 1078 275 1078 q 826 1019 714 1078 q 991 840 938 961 q 1044 525 1044 718 q 922 112 1044 243 q 544 -19 800 -19 m 556 222 q 664 236 622 222 q 700 517 700 369 q 658 743 700 654 q 526 832 615 832 q 408 815 464 832 q 385 691 393 753 q 378 542 378 629 q 422 313 378 404 q 556 222 467 222 z "},"":{"ha":1082,"x_min":38,"x_max":1044,"o":"m 544 -19 q 253 38 364 -19 q 90 217 142 96 q 38 531 38 338 q 156 947 38 817 q 535 1078 275 1078 q 826 1019 714 1078 q 991 840 938 961 q 1044 525 1044 718 q 922 112 1044 243 q 544 -19 800 -19 m 556 222 q 664 236 622 222 q 700 517 700 369 q 658 743 700 654 q 526 832 615 832 q 408 815 464 832 q 385 691 393 753 q 378 542 378 629 q 422 313 378 404 q 556 222 467 222 z "},"":{"ha":1082,"x_min":38,"x_max":1044,"o":"m 544 -19 q 253 38 364 -19 q 90 217 142 96 q 38 531 38 338 q 156 947 38 817 q 535 1078 275 1078 q 826 1019 714 1078 q 991 840 938 961 q 1044 525 1044 718 q 922 112 1044 243 q 544 -19 800 -19 m 556 222 q 664 236 622 222 q 700 517 700 369 q 658 743 700 654 q 526 832 615 832 q 408 815 464 832 q 385 691 393 753 q 378 542 378 629 q 422 313 378 404 q 556 222 467 222 z "},"":{"ha":1082,"x_min":38,"x_max":1044,"o":"m 544 -19 q 253 38 364 -19 q 90 217 142 96 q 38 531 38 338 q 156 947 38 817 q 535 1078 275 1078 q 826 1019 714 1078 q 991 840 938 961 q 1044 525 1044 718 q 922 112 1044 243 q 544 -19 800 -19 m 556 222 q 664 236 622 222 q 700 517 700 369 q 658 743 700 654 q 526 832 615 832 q 408 815 464 832 q 385 691 393 753 q 378 542 378 629 q 422 313 378 404 q 556 222 467 222 z "},"":{"ha":1082,"x_min":38,"x_max":1044,"o":"m 544 -19 q 253 38 364 -19 q 90 217 142 96 q 38 531 38 338 q 156 947 38 817 q 535 1078 275 1078 q 826 1019 714 1078 q 991 840 938 961 q 1044 525 1044 718 q 922 112 1044 243 q 544 -19 800 -19 m 556 222 q 664 236 622 222 q 700 517 700 369 q 658 743 700 654 q 526 832 615 832 q 408 815 464 832 q 385 691 393 753 q 378 542 378 629 q 422 313 378 404 q 556 222 467 222 z "},"":{"ha":1082,"x_min":38,"x_max":1094,"o":"m 544 -19 q 253 38 364 -19 q 90 217 142 96 q 38 531 38 338 q 156 947 38 817 q 535 1078 275 1078 q 826 1019 714 1078 q 991 840 938 961 q 1044 525 1044 718 q 922 112 1044 243 q 544 -19 800 -19 m 556 222 q 664 236 622 222 q 700 517 700 369 q 658 743 700 654 q 526 832 615 832 q 408 815 464 832 q 385 691 393 753 q 378 542 378 629 q 422 313 378 404 q 556 222 467 222 z "},"":{"ha":1082,"x_min":38,"x_max":1044,"o":"m 544 -19 q 253 38 364 -19 q 90 217 142 96 q 38 531 38 338 q 156 947 38 817 q 535 1078 275 1078 q 826 1019 714 1078 q 991 840 938 961 q 1044 525 1044 718 q 922 112 1044 243 q 544 -19 800 -19 m 556 222 q 664 236 622 222 q 700 517 700 369 q 658 743 700 654 q 526 832 615 832 q 408 815 464 832 q 385 691 393 753 q 378 542 378 629 q 422 313 378 404 q 556 222 467 222 z "},"":{"ha":1082,"x_min":38,"x_max":1044,"o":"m 847 -82 q 876 -78 864 -82 q 904 -64 889 -74 l 943 -179 q 779 -235 882 -235 q 643 -199 694 -235 q 592 -99 592 -164 q 621 -17 592 -51 q 544 -19 571 -19 q 253 38 364 -19 q 90 217 142 96 q 38 531 38 338 q 156 947 38 817 q 535 1078 275 1078 q 826 1019 714 1078 q 991 840 938 961 q 1044 525 1044 718 q 1004 249 1044 361 q 882 74 964 138 l 888 71 q 818 13 839 33 q 797 -33 797 -8 q 847 -82 797 -82 m 378 542 q 422 313 378 404 q 556 222 467 222 q 664 236 622 222 q 700 517 700 369 q 658 743 700 654 q 526 832 615 832 q 408 815 464 832 q 385 691 393 753 q 378 542 378 629 z "},"":{"ha":1082,"x_min":38,"x_max":1044,"o":"m 849 1007 q 997 827 949 946 q 1044 525 1044 708 q 922 112 1044 243 q 544 -19 800 -19 q 336 6 426 -19 l 286 -90 l 182 -33 q 228 51 213 25 q 83 231 129 114 q 38 531 38 347 q 156 947 38 817 q 535 1078 275 1078 q 744 1051 657 1078 l 797 1150 l 897 1100 q 879 1067 888 1082 q 864 1038 871 1051 l 849 1007 m 378 542 q 397 378 378 453 l 478 533 q 614 800 569 711 q 526 832 578 832 q 408 815 464 832 q 385 691 393 753 q 378 542 378 629 m 664 236 q 700 517 700 369 q 682 676 700 608 l 593 506 q 464 257 507 346 q 556 222 503 222 q 664 236 622 222 z "},"":{"ha":1082,"x_min":38,"x_max":1044,"o":"m 849 1007 q 997 827 949 946 q 1044 525 1044 708 q 922 112 1044 243 q 544 -19 800 -19 q 336 6 426 -19 l 286 -90 l 182 -33 q 228 51 213 25 q 83 231 129 114 q 38 531 38 347 q 156 947 38 817 q 535 1078 275 1078 q 744 1051 657 1078 l 797 1150 l 897 1100 q 879 1067 888 1082 q 864 1038 871 1051 l 849 1007 m 378 542 q 397 378 378 453 l 478 533 q 614 800 569 711 q 526 832 578 832 q 408 815 464 832 q 385 691 393 753 q 378 542 378 629 m 664 236 q 700 517 700 369 q 682 676 700 608 l 593 506 q 464 257 507 346 q 556 222 503 222 q 664 236 622 222 z "},"":{"ha":1082,"x_min":38,"x_max":1044,"o":"m 544 -19 q 253 38 364 -19 q 90 217 142 96 q 38 531 38 338 q 156 947 38 817 q 535 1078 275 1078 q 826 1019 714 1078 q 991 840 938 961 q 1044 525 1044 718 q 922 112 1044 243 q 544 -19 800 -19 m 556 222 q 664 236 622 222 q 700 517 700 369 q 658 743 700 654 q 526 832 615 832 q 408 815 464 832 q 385 691 393 753 q 378 542 378 629 q 422 313 378 404 q 556 222 467 222 z "},"":{"ha":1088,"x_min":72,"x_max":1049,"o":"m 72 0 q 75 531 75 328 q 72 1060 75 732 l 607 1060 q 938 964 828 1060 q 1049 663 1049 868 q 943 347 1049 449 q 643 246 838 246 l 413 246 q 417 0 413 69 l 72 0 m 542 456 q 660 499 618 456 q 701 646 701 543 q 660 788 701 746 q 538 829 618 829 l 411 829 l 411 456 l 542 456 z "},"":{"ha":1138,"x_min":72,"x_max":1099,"o":"m 72 0 q 79 529 79 281 q 72 1060 79 782 l 599 1060 q 853 1035 756 1060 q 1003 949 951 1011 q 1054 775 1054 888 q 971 550 1054 615 q 703 485 888 485 l 703 463 q 960 409 882 460 q 1047 249 1038 358 q 1067 124 1050 210 q 1099 0 1085 39 l 729 0 q 699 242 703 156 q 680 316 692 290 q 642 353 668 342 q 565 364 615 364 l 415 364 l 415 249 l 415 0 l 72 0 m 540 564 q 661 594 621 564 q 701 696 701 624 q 661 800 701 771 q 538 829 621 829 l 411 829 l 411 564 l 540 564 z "},"":{"ha":1138,"x_min":72,"x_max":1099,"o":"m 72 0 q 79 529 79 281 q 72 1060 79 782 l 599 1060 q 853 1035 756 1060 q 1003 949 951 1011 q 1054 775 1054 888 q 971 550 1054 615 q 703 485 888 485 l 703 463 q 960 409 882 460 q 1047 249 1038 358 q 1067 124 1050 210 q 1099 0 1085 39 l 729 0 q 699 242 703 156 q 680 316 692 290 q 642 353 668 342 q 565 364 615 364 l 415 364 l 415 249 l 415 0 l 72 0 m 540 564 q 661 594 621 564 q 701 696 701 624 q 661 800 701 771 q 538 829 621 829 l 411 829 l 411 564 l 540 564 z "},"":{"ha":1138,"x_min":72,"x_max":1099,"o":"m 72 0 q 79 529 79 281 q 72 1060 79 782 l 599 1060 q 853 1035 756 1060 q 1003 949 951 1011 q 1054 775 1054 888 q 971 550 1054 615 q 703 485 888 485 l 703 463 q 960 409 882 460 q 1047 249 1038 358 q 1067 124 1050 210 q 1099 0 1085 39 l 729 0 q 699 242 703 156 q 680 316 692 290 q 642 353 668 342 q 565 364 615 364 l 415 364 l 415 249 l 415 0 l 72 0 m 540 564 q 661 594 621 564 q 701 696 701 624 q 661 800 701 771 q 538 829 621 829 l 411 829 l 411 564 l 540 564 z "},"":{"ha":1138,"x_min":72,"x_max":1099,"o":"m 72 0 q 79 529 79 281 q 72 1060 79 782 l 599 1060 q 853 1035 756 1060 q 1003 949 951 1011 q 1054 775 1054 888 q 971 550 1054 615 q 703 485 888 485 l 703 463 q 960 409 882 460 q 1047 249 1038 358 q 1067 124 1050 210 q 1099 0 1085 39 l 729 0 q 699 242 703 156 q 680 316 692 290 q 642 353 668 342 q 565 364 615 364 l 415 364 l 415 249 l 415 0 l 72 0 m 540 564 q 661 594 621 564 q 701 696 701 624 q 661 800 701 771 q 538 829 621 829 l 411 829 l 411 564 l 540 564 z "},"":{"ha":1071,"x_min":38,"x_max":1031,"o":"m 561 -17 q 286 16 396 -17 q 114 126 176 49 q 38 335 51 203 l 410 364 q 451 255 417 297 q 567 213 485 213 q 627 216 593 213 q 672 226 661 219 q 688 329 688 275 q 676 390 688 368 q 631 424 664 413 q 535 440 599 436 q 167 525 272 446 q 61 749 61 604 q 191 995 61 911 q 535 1079 321 1079 q 892 981 772 1079 q 1031 676 1011 883 l 688 653 q 669 758 681 722 q 625 816 658 794 q 522 838 592 838 q 468 835 500 838 q 425 828 436 832 q 404 711 404 769 q 436 624 404 651 q 554 589 468 596 q 851 553 749 585 q 991 464 954 521 q 1028 313 1028 407 q 967 135 1028 210 q 801 22 907 60 q 561 -17 694 -17 z "},"":{"ha":1071,"x_min":38,"x_max":1031,"o":"m 561 -17 q 286 16 396 -17 q 114 126 176 49 q 38 335 51 203 l 410 364 q 451 255 417 297 q 567 213 485 213 q 627 216 593 213 q 672 226 661 219 q 688 329 688 275 q 676 390 688 368 q 631 424 664 413 q 535 440 599 436 q 167 525 272 446 q 61 749 61 604 q 191 995 61 911 q 535 1079 321 1079 q 892 981 772 1079 q 1031 676 1011 883 l 688 653 q 669 758 681 722 q 625 816 658 794 q 522 838 592 838 q 468 835 500 838 q 425 828 436 832 q 404 711 404 769 q 436 624 404 651 q 554 589 468 596 q 851 553 749 585 q 991 464 954 521 q 1028 313 1028 407 q 967 135 1028 210 q 801 22 907 60 q 561 -17 694 -17 z "},"":{"ha":1071,"x_min":38,"x_max":1031,"o":"m 554 589 q 851 553 749 585 q 991 464 954 521 q 1028 313 1028 407 q 970 138 1028 211 q 811 26 913 65 q 582 -17 710 -14 l 576 -40 q 705 -73 657 -43 q 753 -154 753 -103 q 722 -226 753 -196 q 643 -272 690 -256 q 549 -287 596 -287 q 477 -278 511 -287 q 419 -257 443 -269 l 436 -151 q 501 -162 465 -162 q 550 -152 532 -162 q 568 -128 568 -142 q 547 -96 568 -107 q 468 -76 526 -85 l 481 -15 q 165 76 274 -4 q 38 335 57 156 l 410 364 q 451 255 417 297 q 567 213 485 213 q 627 216 593 213 q 672 226 661 219 q 688 329 688 275 q 676 390 688 368 q 631 424 664 413 q 535 440 599 436 q 167 525 272 446 q 61 749 61 604 q 191 995 61 911 q 535 1079 321 1079 q 892 981 772 1079 q 1031 676 1011 883 l 688 653 q 669 758 681 722 q 625 816 658 794 q 522 838 592 838 q 468 835 500 838 q 425 828 436 832 q 404 711 404 769 q 436 624 404 651 q 554 589 468 596 z "},"":{"ha":1071,"x_min":38,"x_max":1031,"o":"m 561 -17 q 286 16 396 -17 q 114 126 176 49 q 38 335 51 203 l 410 364 q 451 255 417 297 q 567 213 485 213 q 627 216 593 213 q 672 226 661 219 q 688 329 688 275 q 676 390 688 368 q 631 424 664 413 q 535 440 599 436 q 167 525 272 446 q 61 749 61 604 q 191 995 61 911 q 535 1079 321 1079 q 892 981 772 1079 q 1031 676 1011 883 l 688 653 q 669 758 681 722 q 625 816 658 794 q 522 838 592 838 q 468 835 500 838 q 425 828 436 832 q 404 711 404 769 q 436 624 404 651 q 554 589 468 596 q 851 553 749 585 q 991 464 954 521 q 1028 313 1028 407 q 967 135 1028 210 q 801 22 907 60 q 561 -17 694 -17 z "},"":{"ha":1071,"x_min":38,"x_max":1031,"o":"m 561 -17 q 286 16 396 -17 q 114 126 176 49 q 38 335 51 203 l 410 364 q 451 255 417 297 q 567 213 485 213 q 627 216 593 213 q 672 226 661 219 q 688 329 688 275 q 676 390 688 368 q 631 424 664 413 q 535 440 599 436 q 167 525 272 446 q 61 749 61 604 q 191 995 61 911 q 535 1079 321 1079 q 892 981 772 1079 q 1031 676 1011 883 l 688 653 q 669 758 681 722 q 625 816 658 794 q 522 838 592 838 q 468 835 500 838 q 425 828 436 832 q 404 711 404 769 q 436 624 404 651 q 554 589 468 596 q 851 553 749 585 q 991 464 954 521 q 1028 313 1028 407 q 967 135 1028 210 q 801 22 907 60 q 561 -17 694 -17 z "},"":{"ha":1071,"x_min":38,"x_max":1031,"o":"m 561 -17 q 286 16 396 -17 q 114 126 176 49 q 38 335 51 203 l 410 364 q 451 255 417 297 q 567 213 485 213 q 627 216 593 213 q 672 226 661 219 q 688 329 688 275 q 676 390 688 368 q 631 424 664 413 q 535 440 599 436 q 167 525 272 446 q 61 749 61 604 q 191 995 61 911 q 535 1079 321 1079 q 892 981 772 1079 q 1031 676 1011 883 l 688 653 q 669 758 681 722 q 625 816 658 794 q 522 838 592 838 q 468 835 500 838 q 425 828 436 832 q 404 711 404 769 q 436 624 404 651 q 554 589 468 596 q 851 553 749 585 q 991 464 954 521 q 1028 313 1028 407 q 967 135 1028 210 q 801 22 907 60 q 561 -17 694 -17 z "},"":{"ha":1071,"x_min":38,"x_max":1031,"o":"m 561 -17 q 286 16 396 -17 q 114 126 176 49 q 38 335 51 203 l 410 364 q 451 255 417 297 q 567 213 485 213 q 627 216 593 213 q 672 226 661 219 q 688 329 688 275 q 676 390 688 368 q 631 424 664 413 q 535 440 599 436 q 167 525 272 446 q 61 749 61 604 q 191 995 61 911 q 535 1079 321 1079 q 892 981 772 1079 q 1031 676 1011 883 l 688 653 q 669 758 681 722 q 625 816 658 794 q 522 838 592 838 q 468 835 500 838 q 425 828 436 832 q 404 711 404 769 q 436 624 404 651 q 554 589 468 596 q 851 553 749 585 q 991 464 954 521 q 1028 313 1028 407 q 967 135 1028 210 q 801 22 907 60 q 561 -17 694 -17 z "},"":{"ha":1082,"x_min":39,"x_max":1044,"o":"m 533 1078 q 922 946 800 1078 q 1044 525 1044 814 q 922 112 1044 243 q 543 -19 799 -19 q 169 97 289 -19 q 39 468 50 213 l 700 529 q 655 747 697 661 q 526 832 613 832 q 408 815 463 832 q 390 711 397 758 q 381 600 383 664 l 40 600 q 172 964 54 850 q 533 1078 290 1078 m 556 222 q 663 236 621 222 q 700 482 696 363 l 382 451 q 437 285 393 347 q 556 222 481 222 z "},"":{"ha":853,"x_min":-11,"x_max":865,"o":"m 865 799 q 596 804 721 804 q 594 701 594 788 l 593 590 q 678 593 622 590 l 678 472 l 593 475 q 597 0 593 236 l 250 0 q 257 475 257 261 l 176 472 l 176 593 l 257 590 q 254 804 257 699 q -11 799 147 804 l -11 1060 l 865 1060 l 865 799 z "},"":{"ha":853,"x_min":-11,"x_max":865,"o":"m 250 0 q 257 515 257 288 q 254 804 257 663 q -11 799 147 804 l -11 1060 l 865 1060 l 865 799 q 596 804 721 804 q 593 485 593 710 q 597 0 593 240 l 250 0 z "},"":{"ha":853,"x_min":-11,"x_max":865,"o":"m 865 799 q 596 804 721 804 q 593 485 593 710 q 597 0 593 240 l 474 0 l 465 -40 q 594 -73 546 -43 q 642 -154 642 -103 q 610 -226 642 -196 q 532 -272 579 -256 q 438 -287 485 -287 q 366 -278 400 -287 q 308 -257 332 -269 l 325 -151 q 390 -162 354 -162 q 439 -152 421 -162 q 457 -128 457 -142 q 436 -96 457 -107 q 357 -76 415 -85 l 372 0 l 250 0 q 257 515 257 288 q 254 804 257 663 q -11 799 147 804 l -11 1060 l 865 1060 l 865 799 z "},"":{"ha":853,"x_min":-11,"x_max":865,"o":"m 250 0 q 257 515 257 288 q 254 804 257 663 q -11 799 147 804 l -11 1060 l 865 1060 l 865 799 q 596 804 721 804 q 593 485 593 710 q 597 0 593 240 l 250 0 z "},"":{"ha":853,"x_min":-11,"x_max":865,"o":"m 250 0 q 257 515 257 288 q 254 804 257 663 q -11 799 147 804 l -11 1060 l 865 1060 l 865 799 q 596 804 721 804 q 593 485 593 710 q 597 0 593 240 l 250 0 z "},"":{"ha":853,"x_min":-11,"x_max":865,"o":"m 250 0 q 257 515 257 288 q 254 804 257 663 q -11 799 147 804 l -11 1060 l 865 1060 l 865 799 q 596 804 721 804 q 593 485 593 710 q 597 0 593 240 l 250 0 z "},"":{"ha":1088,"x_min":72,"x_max":1015,"o":"m 511 -19 q 259 28 354 -19 q 121 174 164 75 q 78 431 78 272 l 78 742 q 72 1060 78 932 l 414 1060 l 413 528 q 442 303 413 381 q 551 225 472 225 q 615 231 582 225 q 663 247 649 236 l 669 325 q 676 404 675 372 q 678 518 678 436 q 674 1060 678 722 l 1015 1060 q 1011 667 1011 929 l 1013 376 q 954 138 1013 225 q 787 16 896 51 q 511 -19 678 -19 z "},"":{"ha":1088,"x_min":72,"x_max":1015,"o":"m 511 -19 q 259 28 354 -19 q 121 174 164 75 q 78 431 78 272 l 78 742 q 72 1060 78 932 l 414 1060 l 413 528 q 442 303 413 381 q 551 225 472 225 q 615 231 582 225 q 663 247 649 236 l 669 325 q 676 404 675 372 q 678 518 678 436 q 674 1060 678 722 l 1015 1060 q 1011 667 1011 929 l 1013 376 q 954 138 1013 225 q 787 16 896 51 q 511 -19 678 -19 z "},"":{"ha":1088,"x_min":72,"x_max":1015,"o":"m 511 -19 q 259 28 354 -19 q 121 174 164 75 q 78 431 78 272 l 78 742 q 72 1060 78 932 l 414 1060 l 413 528 q 442 303 413 381 q 551 225 472 225 q 615 231 582 225 q 663 247 649 236 l 669 325 q 676 404 675 372 q 678 518 678 436 q 674 1060 678 722 l 1015 1060 q 1011 667 1011 929 l 1013 376 q 954 138 1013 225 q 787 16 896 51 q 511 -19 678 -19 z "},"":{"ha":1088,"x_min":72,"x_max":1015,"o":"m 511 -19 q 259 28 354 -19 q 121 174 164 75 q 78 431 78 272 l 78 742 q 72 1060 78 932 l 414 1060 l 413 528 q 442 303 413 381 q 551 225 472 225 q 615 231 582 225 q 663 247 649 236 l 669 325 q 676 404 675 372 q 678 518 678 436 q 674 1060 678 722 l 1015 1060 q 1011 667 1011 929 l 1013 376 q 954 138 1013 225 q 787 16 896 51 q 511 -19 678 -19 z "},"":{"ha":1088,"x_min":72,"x_max":1015,"o":"m 511 -19 q 259 28 354 -19 q 121 174 164 75 q 78 431 78 272 l 78 742 q 72 1060 78 932 l 414 1060 l 413 528 q 442 303 413 381 q 551 225 472 225 q 615 231 582 225 q 663 247 649 236 l 669 325 q 676 404 675 372 q 678 518 678 436 q 674 1060 678 722 l 1015 1060 q 1011 667 1011 929 l 1013 376 q 954 138 1013 225 q 787 16 896 51 q 511 -19 678 -19 z "},"":{"ha":1088,"x_min":72,"x_max":1015,"o":"m 511 -19 q 259 28 354 -19 q 121 174 164 75 q 78 431 78 272 l 78 742 q 72 1060 78 932 l 414 1060 l 413 528 q 442 303 413 381 q 551 225 472 225 q 615 231 582 225 q 663 247 649 236 l 669 325 q 676 404 675 372 q 678 518 678 436 q 674 1060 678 722 l 1015 1060 q 1011 667 1011 929 l 1013 376 q 954 138 1013 225 q 787 16 896 51 q 511 -19 678 -19 z "},"":{"ha":1088,"x_min":72,"x_max":1015,"o":"m 511 -19 q 259 28 354 -19 q 121 174 164 75 q 78 431 78 272 l 78 742 q 72 1060 78 932 l 414 1060 l 413 528 q 442 303 413 381 q 551 225 472 225 q 615 231 582 225 q 663 247 649 236 l 669 325 q 676 404 675 372 q 678 518 678 436 q 674 1060 678 722 l 1015 1060 q 1011 667 1011 929 l 1013 376 q 954 138 1013 225 q 787 16 896 51 q 511 -19 678 -19 z "},"":{"ha":1088,"x_min":72,"x_max":1096,"o":"m 511 -19 q 259 28 354 -19 q 121 174 164 75 q 78 431 78 272 l 78 742 q 72 1060 78 932 l 414 1060 l 413 528 q 442 303 413 381 q 551 225 472 225 q 615 231 582 225 q 663 247 649 236 l 669 325 q 676 404 675 372 q 678 518 678 436 q 674 1060 678 722 l 1015 1060 q 1011 667 1011 929 l 1013 376 q 954 138 1013 225 q 787 16 896 51 q 511 -19 678 -19 z "},"":{"ha":1088,"x_min":72,"x_max":1015,"o":"m 511 -19 q 259 28 354 -19 q 121 174 164 75 q 78 431 78 272 l 78 742 q 72 1060 78 932 l 414 1060 l 413 528 q 442 303 413 381 q 551 225 472 225 q 615 231 582 225 q 663 247 649 236 l 669 325 q 676 404 675 372 q 678 518 678 436 q 674 1060 678 722 l 1015 1060 q 1011 667 1011 929 l 1013 376 q 954 138 1013 225 q 787 16 896 51 q 511 -19 678 -19 z "},"":{"ha":1088,"x_min":72,"x_max":1015,"o":"m 857 47 q 798 -3 817 17 q 779 -47 779 -24 q 829 -96 779 -96 q 858 -92 846 -96 q 886 -78 871 -87 l 925 -193 q 761 -249 864 -249 q 625 -213 676 -249 q 574 -112 574 -178 q 617 -15 574 -53 q 511 -19 567 -19 q 259 28 354 -19 q 121 174 164 75 q 78 431 78 272 l 78 742 q 72 1060 78 932 l 414 1060 l 413 528 q 442 303 413 381 q 551 225 472 225 q 615 231 582 225 q 663 247 649 236 l 669 325 q 676 404 675 372 q 678 518 678 436 q 674 1060 678 722 l 1015 1060 q 1011 667 1011 929 l 1013 376 q 974 173 1013 253 q 857 47 935 93 z "},"":{"ha":1088,"x_min":72,"x_max":1015,"o":"m 511 -19 q 259 28 354 -19 q 121 174 164 75 q 78 431 78 272 l 78 742 q 72 1060 78 932 l 414 1060 l 413 528 q 442 303 413 381 q 551 225 472 225 q 615 231 582 225 q 663 247 649 236 l 669 325 q 676 404 675 372 q 678 518 678 436 q 674 1060 678 722 l 1015 1060 q 1011 667 1011 929 l 1013 376 q 954 138 1013 225 q 787 16 896 51 q 511 -19 678 -19 z "},"":{"ha":1088,"x_min":72,"x_max":1015,"o":"m 511 -19 q 259 28 354 -19 q 121 174 164 75 q 78 431 78 272 l 78 742 q 72 1060 78 932 l 414 1060 l 413 528 q 442 303 413 381 q 551 225 472 225 q 615 231 582 225 q 663 247 649 236 l 669 325 q 676 404 675 372 q 678 518 678 436 q 674 1060 678 722 l 1015 1060 q 1011 667 1011 929 l 1013 376 q 954 138 1013 225 q 787 16 896 51 q 511 -19 678 -19 z "},"":{"ha":1051,"x_min":-11,"x_max":1064,"o":"m 232 0 q 19 932 185 222 l -11 1060 l 338 1060 q 371 914 354 985 q 467 467 429 658 q 514 129 504 276 l 533 129 q 581 466 544 276 q 674 903 618 656 l 708 1060 l 1064 1060 q 978 693 1051 1006 q 819 0 853 157 l 232 0 z "},"":{"ha":1451,"x_min":-11,"x_max":1464,"o":"m 139 0 q -11 1060 81 535 l 350 1060 q 365 944 357 1003 q 379 828 372 885 q 404 630 383 790 q 438 340 425 469 q 456 128 451 211 l 474 128 l 594 1060 l 861 1060 l 979 128 l 996 128 q 1037 526 1007 279 q 1074 828 1067 774 q 1103 1060 1089 940 l 1464 1060 q 1383 544 1429 879 q 1315 0 1338 208 l 803 0 q 736 489 750 335 l 718 489 q 651 0 696 275 l 139 0 z "},"":{"ha":1451,"x_min":-11,"x_max":1464,"o":"m 139 0 q -11 1060 81 535 l 350 1060 q 365 944 357 1003 q 379 828 372 885 q 404 630 383 790 q 438 340 425 469 q 456 128 451 211 l 474 128 l 594 1060 l 861 1060 l 979 128 l 996 128 q 1037 526 1007 279 q 1074 828 1067 774 q 1103 1060 1089 940 l 1464 1060 q 1383 544 1429 879 q 1315 0 1338 208 l 803 0 q 736 489 750 335 l 718 489 q 651 0 696 275 l 139 0 z "},"":{"ha":1451,"x_min":-11,"x_max":1464,"o":"m 139 0 q -11 1060 81 535 l 350 1060 q 365 944 357 1003 q 379 828 372 885 q 404 630 383 790 q 438 340 425 469 q 456 128 451 211 l 474 128 l 594 1060 l 861 1060 l 979 128 l 996 128 q 1037 526 1007 279 q 1074 828 1067 774 q 1103 1060 1089 940 l 1464 1060 q 1383 544 1429 879 q 1315 0 1338 208 l 803 0 q 736 489 750 335 l 718 489 q 651 0 696 275 l 139 0 z "},"":{"ha":1451,"x_min":-11,"x_max":1464,"o":"m 139 0 q -11 1060 81 535 l 350 1060 q 365 944 357 1003 q 379 828 372 885 q 404 630 383 790 q 438 340 425 469 q 456 128 451 211 l 474 128 l 594 1060 l 861 1060 l 979 128 l 996 128 q 1037 526 1007 279 q 1074 828 1067 774 q 1103 1060 1089 940 l 1464 1060 q 1383 544 1429 879 q 1315 0 1338 208 l 803 0 q 736 489 750 335 l 718 489 q 651 0 696 275 l 139 0 z "},"":{"ha":1015,"x_min":-12,"x_max":1028,"o":"m 1028 1060 l 781 83 q 728 21 769 42 q 607 0 688 0 l 313 0 l 403 308 l 476 308 l 540 458 l 513 458 q 432 371 485 401 q 322 340 379 340 q 214 373 258 340 q 146 485 169 406 q 79 726 132 542 q -12 1060 1 1007 l 346 1060 l 492 504 l 518 504 l 664 1060 l 1028 1060 z "},"":{"ha":1015,"x_min":-12,"x_max":1028,"o":"m 1028 1060 l 781 83 q 728 21 769 42 q 607 0 688 0 l 313 0 l 403 308 l 476 308 l 540 458 l 513 458 q 432 371 485 401 q 322 340 379 340 q 214 373 258 340 q 146 485 169 406 q 79 726 132 542 q -12 1060 1 1007 l 346 1060 l 492 504 l 518 504 l 664 1060 l 1028 1060 z "},"":{"ha":1015,"x_min":-12,"x_max":1028,"o":"m 1028 1060 l 781 83 q 728 21 769 42 q 607 0 688 0 l 313 0 l 403 308 l 476 308 l 540 458 l 513 458 q 432 371 485 401 q 322 340 379 340 q 214 373 258 340 q 146 485 169 406 q 79 726 132 542 q -12 1060 1 1007 l 346 1060 l 492 504 l 518 504 l 664 1060 l 1028 1060 z "},"":{"ha":1015,"x_min":-12,"x_max":1028,"o":"m 1028 1060 l 781 83 q 728 21 769 42 q 607 0 688 0 l 313 0 l 403 308 l 476 308 l 540 458 l 513 458 q 432 371 485 401 q 322 340 379 340 q 214 373 258 340 q 146 485 169 406 q 79 726 132 542 q -12 1060 1 1007 l 346 1060 l 492 504 l 518 504 l 664 1060 l 1028 1060 z "},"":{"ha":1015,"x_min":-12,"x_max":1028,"o":"m 1028 1060 l 781 83 q 728 21 769 42 q 607 0 688 0 l 313 0 l 403 308 l 476 308 l 540 458 l 513 458 q 432 371 485 401 q 322 340 379 340 q 214 373 258 340 q 146 485 169 406 q 79 726 132 542 q -12 1060 1 1007 l 346 1060 l 492 504 l 518 504 l 664 1060 l 1028 1060 z "},"":{"ha":1015,"x_min":-12,"x_max":1028,"o":"m 1028 1060 l 781 83 q 728 21 769 42 q 607 0 688 0 l 313 0 l 403 308 l 476 308 l 540 458 l 513 458 q 432 371 485 401 q 322 340 379 340 q 214 373 258 340 q 146 485 169 406 q 79 726 132 542 q -12 1060 1 1007 l 346 1060 l 492 504 l 518 504 l 664 1060 l 1028 1060 z "},"":{"ha":1015,"x_min":-12,"x_max":1028,"o":"m 1028 1060 l 781 83 q 728 21 769 42 q 607 0 688 0 l 313 0 l 403 308 l 476 308 l 540 458 l 513 458 q 432 371 485 401 q 322 340 379 340 q 214 373 258 340 q 146 485 169 406 q 79 726 132 542 q -12 1060 1 1007 l 346 1060 l 492 504 l 518 504 l 664 1060 l 1028 1060 z "},"":{"ha":1001,"x_min":38,"x_max":964,"o":"m 38 324 q 579 742 249 507 l 579 763 q 149 757 294 757 l 47 756 l 47 1060 l 951 1060 l 951 757 q 410 319 626 475 l 410 299 l 964 306 l 964 0 l 38 0 l 38 324 z "},"":{"ha":1001,"x_min":38,"x_max":964,"o":"m 38 324 q 579 742 249 507 l 579 763 q 149 757 294 757 l 47 756 l 47 1060 l 951 1060 l 951 757 q 410 319 626 475 l 410 299 l 964 306 l 964 0 l 38 0 l 38 324 z "},"":{"ha":1001,"x_min":38,"x_max":964,"o":"m 38 324 q 579 742 249 507 l 579 763 q 149 757 294 757 l 47 756 l 47 1060 l 951 1060 l 951 757 q 410 319 626 475 l 410 299 l 964 306 l 964 0 l 38 0 l 38 324 z "},"":{"ha":1001,"x_min":38,"x_max":964,"o":"m 38 324 q 579 742 249 507 l 579 763 q 149 757 294 757 l 47 756 l 47 1060 l 951 1060 l 951 757 q 410 319 626 475 l 410 299 l 964 306 l 964 0 l 38 0 l 38 324 z "},"":{"ha":1053,"x_min":39,"x_max":974,"o":"m 329 -18 q 115 42 190 -18 q 39 204 39 101 q 98 342 39 285 q 256 429 157 400 q 472 458 354 458 q 636 450 539 458 l 636 471 q 602 630 636 569 q 475 690 568 690 q 411 671 439 686 q 386 507 393 600 l 65 549 q 135 761 72 675 q 299 890 197 847 q 522 933 400 933 q 789 883 690 933 q 929 738 888 832 q 972 504 971 644 l 972 317 l 972 239 q 974 0 972 63 l 633 0 l 658 239 l 639 239 q 532 56 614 129 q 329 -18 450 -18 m 479 213 q 567 242 524 213 q 636 300 611 271 l 636 393 q 579 394 621 394 q 428 368 488 394 q 368 289 368 342 q 399 232 368 251 q 479 213 429 213 z "},"":{"ha":1053,"x_min":39,"x_max":974,"o":"m 329 -18 q 115 42 190 -18 q 39 204 39 101 q 98 342 39 285 q 256 429 157 400 q 472 458 354 458 q 636 450 539 458 l 636 471 q 602 630 636 569 q 475 690 568 690 q 411 671 439 686 q 386 507 393 600 l 65 549 q 135 761 72 675 q 299 890 197 847 q 522 933 400 933 q 789 883 690 933 q 929 738 888 832 q 972 504 971 644 l 972 317 l 972 239 q 974 0 972 63 l 633 0 l 658 239 l 639 239 q 532 56 614 129 q 329 -18 450 -18 m 479 213 q 567 242 524 213 q 636 300 611 271 l 636 393 q 579 394 621 394 q 428 368 488 394 q 368 289 368 342 q 399 232 368 251 q 479 213 429 213 z "},"":{"ha":1053,"x_min":39,"x_max":974,"o":"m 329 -18 q 115 42 190 -18 q 39 204 39 101 q 98 342 39 285 q 256 429 157 400 q 472 458 354 458 q 636 450 539 458 l 636 471 q 602 630 636 569 q 475 690 568 690 q 411 671 439 686 q 386 507 393 600 l 65 549 q 135 761 72 675 q 299 890 197 847 q 522 933 400 933 q 789 883 690 933 q 929 738 888 832 q 972 504 971 644 l 972 317 l 972 239 q 974 0 972 63 l 633 0 l 658 239 l 639 239 q 532 56 614 129 q 329 -18 450 -18 m 479 213 q 567 242 524 213 q 636 300 611 271 l 636 393 q 579 394 621 394 q 428 368 488 394 q 368 289 368 342 q 399 232 368 251 q 479 213 429 213 z "},"":{"ha":1053,"x_min":39,"x_max":974,"o":"m 329 -18 q 115 42 190 -18 q 39 204 39 101 q 98 342 39 285 q 256 429 157 400 q 472 458 354 458 q 636 450 539 458 l 636 471 q 602 630 636 569 q 475 690 568 690 q 411 671 439 686 q 386 507 393 600 l 65 549 q 135 761 72 675 q 299 890 197 847 q 522 933 400 933 q 789 883 690 933 q 929 738 888 832 q 972 504 971 644 l 972 317 l 972 239 q 974 0 972 63 l 633 0 l 658 239 l 639 239 q 532 56 614 129 q 329 -18 450 -18 m 479 213 q 567 242 524 213 q 636 300 611 271 l 636 393 q 579 394 621 394 q 428 368 488 394 q 368 289 368 342 q 399 232 368 251 q 479 213 429 213 z "},"":{"ha":1053,"x_min":39,"x_max":974,"o":"m 329 -18 q 115 42 190 -18 q 39 204 39 101 q 98 342 39 285 q 256 429 157 400 q 472 458 354 458 q 636 450 539 458 l 636 471 q 602 630 636 569 q 475 690 568 690 q 411 671 439 686 q 386 507 393 600 l 65 549 q 135 761 72 675 q 299 890 197 847 q 522 933 400 933 q 789 883 690 933 q 929 738 888 832 q 972 504 971 644 l 972 317 l 972 239 q 974 0 972 63 l 633 0 l 658 239 l 639 239 q 532 56 614 129 q 329 -18 450 -18 m 479 213 q 567 242 524 213 q 636 300 611 271 l 636 393 q 579 394 621 394 q 428 368 488 394 q 368 289 368 342 q 399 232 368 251 q 479 213 429 213 z "},"":{"ha":1053,"x_min":39,"x_max":974,"o":"m 329 -18 q 115 42 190 -18 q 39 204 39 101 q 98 342 39 285 q 256 429 157 400 q 472 458 354 458 q 636 450 539 458 l 636 471 q 602 630 636 569 q 475 690 568 690 q 411 671 439 686 q 386 507 393 600 l 65 549 q 135 761 72 675 q 299 890 197 847 q 522 933 400 933 q 789 883 690 933 q 929 738 888 832 q 972 504 971 644 l 972 317 l 972 239 q 974 0 972 63 l 633 0 l 658 239 l 639 239 q 532 56 614 129 q 329 -18 450 -18 m 479 213 q 567 242 524 213 q 636 300 611 271 l 636 393 q 579 394 621 394 q 428 368 488 394 q 368 289 368 342 q 399 232 368 251 q 479 213 429 213 z "},"":{"ha":1053,"x_min":39,"x_max":974,"o":"m 329 -18 q 115 42 190 -18 q 39 204 39 101 q 98 342 39 285 q 256 429 157 400 q 472 458 354 458 q 636 450 539 458 l 636 471 q 602 630 636 569 q 475 690 568 690 q 411 671 439 686 q 386 507 393 600 l 65 549 q 135 761 72 675 q 299 890 197 847 q 522 933 400 933 q 789 883 690 933 q 929 738 888 832 q 972 504 971 644 l 972 317 l 972 239 q 974 0 972 63 l 633 0 l 658 239 l 639 239 q 532 56 614 129 q 329 -18 450 -18 m 479 213 q 567 242 524 213 q 636 300 611 271 l 636 393 q 579 394 621 394 q 428 368 488 394 q 368 289 368 342 q 399 232 368 251 q 479 213 429 213 z "},"":{"ha":1053,"x_min":39,"x_max":974,"o":"m 329 -18 q 115 42 190 -18 q 39 204 39 101 q 98 342 39 285 q 256 429 157 400 q 472 458 354 458 q 636 450 539 458 l 636 471 q 602 630 636 569 q 475 690 568 690 q 411 671 439 686 q 386 507 393 600 l 65 549 q 135 761 72 675 q 299 890 197 847 q 522 933 400 933 q 789 883 690 933 q 929 738 888 832 q 972 504 971 644 l 972 317 l 972 239 q 974 0 972 63 l 633 0 l 658 239 l 639 239 q 532 56 614 129 q 329 -18 450 -18 m 479 213 q 567 242 524 213 q 636 300 611 271 l 636 393 q 579 394 621 394 q 428 368 488 394 q 368 289 368 342 q 399 232 368 251 q 479 213 429 213 z "},"":{"ha":1053,"x_min":39,"x_max":1081,"o":"m 914 1382 l 1081 1300 l 801 1146 l 671 1200 l 914 1382 m 263 1101 l 504 1242 l 536 1242 l 778 1101 l 736 960 l 519 1058 l 306 960 l 263 1101 m 329 -18 q 115 42 190 -18 q 39 204 39 101 q 98 342 39 285 q 256 429 157 400 q 472 458 354 458 q 636 450 539 458 l 636 471 q 602 630 636 569 q 475 690 568 690 q 411 671 439 686 q 386 507 393 600 l 65 549 q 135 761 72 675 q 299 890 197 847 q 522 933 400 933 q 789 883 690 933 q 929 738 888 832 q 972 504 971 644 l 972 317 l 972 239 q 974 0 972 63 l 633 0 l 658 239 l 639 239 q 532 56 614 129 q 329 -18 450 -18 m 479 213 q 567 242 524 213 q 636 300 611 271 l 636 393 q 579 394 621 394 q 428 368 488 394 q 368 289 368 342 q 399 232 368 251 q 479 213 429 213 z "},"":{"ha":1053,"x_min":39,"x_max":974,"o":"m 329 -18 q 115 42 190 -18 q 39 204 39 101 q 98 342 39 285 q 256 429 157 400 q 472 458 354 458 q 636 450 539 458 l 636 471 q 602 630 636 569 q 475 690 568 690 q 411 671 439 686 q 386 507 393 600 l 65 549 q 135 761 72 675 q 299 890 197 847 q 522 933 400 933 q 789 883 690 933 q 929 738 888 832 q 972 504 971 644 l 972 317 l 972 239 q 974 0 972 63 l 633 0 l 658 239 l 639 239 q 532 56 614 129 q 329 -18 450 -18 m 479 213 q 567 242 524 213 q 636 300 611 271 l 636 393 q 579 394 621 394 q 428 368 488 394 q 368 289 368 342 q 399 232 368 251 q 479 213 429 213 z "},"":{"ha":1053,"x_min":-11,"x_max":974,"o":"m 275 1157 l -11 1314 l 160 1397 l 408 1211 l 275 1157 m 263 1101 l 504 1242 l 536 1242 l 778 1101 l 736 960 l 519 1058 l 306 960 l 263 1101 m 329 -18 q 115 42 190 -18 q 39 204 39 101 q 98 342 39 285 q 256 429 157 400 q 472 458 354 458 q 636 450 539 458 l 636 471 q 602 630 636 569 q 475 690 568 690 q 411 671 439 686 q 386 507 393 600 l 65 549 q 135 761 72 675 q 299 890 197 847 q 522 933 400 933 q 789 883 690 933 q 929 738 888 832 q 972 504 971 644 l 972 317 l 972 239 q 974 0 972 63 l 633 0 l 658 239 l 639 239 q 532 56 614 129 q 329 -18 450 -18 m 479 213 q 567 242 524 213 q 636 300 611 271 l 636 393 q 579 394 621 394 q 428 368 488 394 q 368 289 368 342 q 399 232 368 251 q 479 213 429 213 z "},"":{"ha":1053,"x_min":39,"x_max":974,"o":"m 329 -18 q 115 42 190 -18 q 39 204 39 101 q 98 342 39 285 q 256 429 157 400 q 472 458 354 458 q 636 450 539 458 l 636 471 q 602 630 636 569 q 475 690 568 690 q 411 671 439 686 q 386 507 393 600 l 65 549 q 135 761 72 675 q 299 890 197 847 q 522 933 400 933 q 789 883 690 933 q 929 738 888 832 q 972 504 971 644 l 972 317 l 972 239 q 974 0 972 63 l 633 0 l 658 239 l 639 239 q 532 56 614 129 q 329 -18 450 -18 m 479 213 q 567 242 524 213 q 636 300 611 271 l 636 393 q 579 394 621 394 q 428 368 488 394 q 368 289 368 342 q 399 232 368 251 q 479 213 429 213 z "},"":{"ha":1053,"x_min":39,"x_max":974,"o":"m 329 -18 q 115 42 190 -18 q 39 204 39 101 q 98 342 39 285 q 256 429 157 400 q 472 458 354 458 q 636 450 539 458 l 636 471 q 602 630 636 569 q 475 690 568 690 q 411 671 439 686 q 386 507 393 600 l 65 549 q 135 761 72 675 q 299 890 197 847 q 522 933 400 933 q 789 883 690 933 q 929 738 888 832 q 972 504 971 644 l 972 317 l 972 239 q 974 0 972 63 l 633 0 l 658 239 l 639 239 q 532 56 614 129 q 329 -18 450 -18 m 479 213 q 567 242 524 213 q 636 300 611 271 l 636 393 q 579 394 621 394 q 428 368 488 394 q 368 289 368 342 q 399 232 368 251 q 479 213 429 213 z "},"":{"ha":1053,"x_min":39,"x_max":974,"o":"m 329 -18 q 115 42 190 -18 q 39 204 39 101 q 98 342 39 285 q 256 429 157 400 q 472 458 354 458 q 636 450 539 458 l 636 471 q 602 630 636 569 q 475 690 568 690 q 411 671 439 686 q 386 507 393 600 l 65 549 q 135 761 72 675 q 299 890 197 847 q 522 933 400 933 q 789 883 690 933 q 929 738 888 832 q 972 504 971 644 l 972 317 l 972 239 q 974 0 972 63 l 633 0 l 658 239 l 639 239 q 532 56 614 129 q 329 -18 450 -18 m 479 213 q 567 242 524 213 q 636 300 611 271 l 636 393 q 579 394 621 394 q 428 368 488 394 q 368 289 368 342 q 399 232 368 251 q 479 213 429 213 z "},"":{"ha":1053,"x_min":39,"x_max":974,"o":"m 329 -18 q 115 42 190 -18 q 39 204 39 101 q 98 342 39 285 q 256 429 157 400 q 472 458 354 458 q 636 450 539 458 l 636 471 q 602 630 636 569 q 475 690 568 690 q 411 671 439 686 q 386 507 393 600 l 65 549 q 135 761 72 675 q 299 890 197 847 q 522 933 400 933 q 789 883 690 933 q 929 738 888 832 q 972 504 971 644 l 972 317 l 972 239 q 974 0 972 63 l 633 0 l 658 239 l 639 239 q 532 56 614 129 q 329 -18 450 -18 m 479 213 q 567 242 524 213 q 636 300 611 271 l 636 393 q 579 394 621 394 q 428 368 488 394 q 368 289 368 342 q 399 232 368 251 q 479 213 429 213 z "},"":{"ha":1053,"x_min":39,"x_max":974,"o":"m 329 -18 q 115 42 190 -18 q 39 204 39 101 q 98 342 39 285 q 256 429 157 400 q 472 458 354 458 q 636 450 539 458 l 636 471 q 602 630 636 569 q 475 690 568 690 q 411 671 439 686 q 386 507 393 600 l 65 549 q 135 761 72 675 q 299 890 197 847 q 522 933 400 933 q 789 883 690 933 q 929 738 888 832 q 972 504 971 644 l 972 317 l 972 239 q 974 0 972 63 l 633 0 l 658 239 l 639 239 q 532 56 614 129 q 329 -18 450 -18 m 479 213 q 567 242 524 213 q 636 300 611 271 l 636 393 q 579 394 621 394 q 428 368 488 394 q 368 289 368 342 q 399 232 368 251 q 479 213 429 213 z "},"":{"ha":1053,"x_min":39,"x_max":1029,"o":"m 1029 -250 q 865 -306 968 -306 q 729 -270 781 -306 q 678 -169 678 -235 q 720 -73 678 -117 q 886 0 763 -29 l 633 0 l 658 239 l 639 239 q 532 56 614 129 q 329 -18 450 -18 q 115 42 190 -18 q 39 204 39 101 q 98 342 39 285 q 256 429 157 400 q 472 458 354 458 q 636 450 539 458 l 636 471 q 602 630 636 569 q 475 690 568 690 q 411 671 439 686 q 386 507 393 600 l 65 549 q 135 761 72 675 q 299 890 197 847 q 522 933 400 933 q 789 883 690 933 q 929 738 888 832 q 972 504 971 644 l 972 317 l 972 239 q 974 0 972 63 q 904 -58 925 -37 q 883 -104 883 -79 q 933 -153 883 -153 q 963 -149 950 -153 q 990 -135 975 -144 l 1029 -250 m 636 393 q 579 394 621 394 q 428 368 488 394 q 368 289 368 342 q 399 232 368 251 q 479 213 429 213 q 567 242 524 213 q 636 300 611 271 l 636 393 z "},"":{"ha":1053,"x_min":39,"x_max":974,"o":"m 329 -18 q 115 42 190 -18 q 39 204 39 101 q 98 342 39 285 q 256 429 157 400 q 472 458 354 458 q 636 450 539 458 l 636 471 q 602 630 636 569 q 475 690 568 690 q 411 671 439 686 q 386 507 393 600 l 65 549 q 135 761 72 675 q 299 890 197 847 q 522 933 400 933 q 789 883 690 933 q 929 738 888 832 q 972 504 971 644 l 972 317 l 972 239 q 974 0 972 63 l 633 0 l 658 239 l 639 239 q 532 56 614 129 q 329 -18 450 -18 m 479 213 q 567 242 524 213 q 636 300 611 271 l 636 393 q 579 394 621 394 q 428 368 488 394 q 368 289 368 342 q 399 232 368 251 q 479 213 429 213 m 518 951 q 303 994 371 951 q 235 1124 235 1036 q 263 1223 235 1188 q 352 1274 290 1258 q 521 1289 414 1289 q 738 1249 674 1289 q 801 1114 801 1208 q 728 993 801 1035 q 518 951 656 951 m 519 1082 q 608 1096 575 1082 q 604 1126 608 1118 q 517 1164 599 1164 q 424 1150 468 1164 q 431 1117 424 1125 q 453 1090 432 1099 q 519 1082 475 1082 z "},"":{"ha":1053,"x_min":39,"x_max":974,"o":"m 329 -18 q 115 42 190 -18 q 39 204 39 101 q 98 342 39 285 q 256 429 157 400 q 472 458 354 458 q 636 450 539 458 l 636 471 q 602 630 636 569 q 475 690 568 690 q 411 671 439 686 q 386 507 393 600 l 65 549 q 135 761 72 675 q 299 890 197 847 q 522 933 400 933 q 789 883 690 933 q 929 738 888 832 q 972 504 971 644 l 972 317 l 972 239 q 974 0 972 63 l 633 0 l 658 239 l 639 239 q 532 56 614 129 q 329 -18 450 -18 m 479 213 q 567 242 524 213 q 636 300 611 271 l 636 393 q 579 394 621 394 q 428 368 488 394 q 368 289 368 342 q 399 232 368 251 q 479 213 429 213 m 518 951 q 303 994 371 951 q 235 1124 235 1036 q 263 1223 235 1188 q 352 1274 290 1258 q 521 1289 414 1289 q 738 1249 674 1289 q 801 1114 801 1208 q 728 993 801 1035 q 518 951 656 951 m 519 1082 q 608 1096 575 1082 q 604 1126 608 1118 q 517 1164 599 1164 q 424 1150 468 1164 q 431 1117 424 1125 q 453 1090 432 1099 q 519 1082 475 1082 z "},"":{"ha":1053,"x_min":39,"x_max":974,"o":"m 329 -18 q 115 42 190 -18 q 39 204 39 101 q 98 342 39 285 q 256 429 157 400 q 472 458 354 458 q 636 450 539 458 l 636 471 q 602 630 636 569 q 475 690 568 690 q 411 671 439 686 q 386 507 393 600 l 65 549 q 135 761 72 675 q 299 890 197 847 q 522 933 400 933 q 789 883 690 933 q 929 738 888 832 q 972 504 971 644 l 972 317 l 972 239 q 974 0 972 63 l 633 0 l 658 239 l 639 239 q 532 56 614 129 q 329 -18 450 -18 m 479 213 q 567 242 524 213 q 636 300 611 271 l 636 393 q 579 394 621 394 q 428 368 488 394 q 368 289 368 342 q 399 232 368 251 q 479 213 429 213 z "},"":{"ha":1604,"x_min":42,"x_max":1564,"o":"m 1564 501 l 976 447 q 1014 287 978 347 q 1124 226 1050 226 q 1174 231 1147 226 q 1219 244 1201 236 q 1236 393 1232 313 l 1563 392 q 1505 165 1553 254 q 1356 30 1457 76 q 1090 -17 1256 -17 q 672 232 765 -17 l 669 221 q 599 109 649 164 q 478 18 550 54 q 322 -18 406 -18 q 110 40 179 -18 q 42 201 42 97 q 99 341 42 283 q 256 428 157 399 q 475 458 354 458 q 638 450 542 458 l 638 471 q 604 631 638 571 q 481 690 571 690 q 413 681 442 690 q 386 507 392 597 l 69 542 q 138 753 74 665 q 303 884 201 840 q 518 928 404 928 q 821 861 714 928 q 1126 932 938 932 q 1449 831 1346 932 q 1564 511 1551 731 l 1560 511 l 1564 501 m 1099 693 q 1043 686 1072 693 q 990 667 1014 679 q 978 515 979 563 l 1233 539 q 1099 693 1213 693 m 639 393 q 592 394 622 394 q 371 286 371 394 q 398 231 371 250 q 472 213 425 213 q 565 238 522 213 q 639 299 608 263 l 639 393 z "},"":{"ha":1072,"x_min":78,"x_max":1033,"o":"m 724 -18 q 528 51 604 -18 q 419 235 451 119 l 399 235 l 368 0 l 78 0 q 82 535 82 299 q 78 1038 82 803 l 422 1071 l 422 886 q 414 796 421 853 q 399 678 404 729 l 421 678 q 548 874 463 815 q 731 932 633 932 q 965 811 896 932 q 1033 457 1033 690 q 724 -18 1033 -18 m 583 222 q 671 240 632 222 q 693 451 693 344 q 662 622 693 550 q 550 693 631 693 q 418 633 471 693 l 418 433 q 464 276 418 331 q 583 222 510 222 z "},"":{"ha":1006,"x_min":39,"x_max":967,"o":"m 492 -17 q 157 101 275 -17 q 39 458 39 219 q 528 932 39 932 q 764 892 672 932 q 903 767 856 851 q 964 543 951 682 l 639 514 q 500 694 621 694 q 445 688 475 694 q 393 668 415 681 q 378 457 378 558 q 414 290 378 354 q 526 226 450 226 q 578 231 550 226 q 622 244 606 236 q 640 393 633 304 l 967 393 q 908 159 957 249 q 758 26 858 69 q 492 -17 657 -17 z "},"":{"ha":1006,"x_min":39,"x_max":967,"o":"m 492 -17 q 157 101 275 -17 q 39 458 39 219 q 528 932 39 932 q 764 892 672 932 q 903 767 856 851 q 964 543 951 682 l 639 514 q 500 694 621 694 q 445 688 475 694 q 393 668 415 681 q 378 457 378 558 q 414 290 378 354 q 526 226 450 226 q 578 231 550 226 q 622 244 606 236 q 640 393 633 304 l 967 393 q 908 159 957 249 q 758 26 858 69 q 492 -17 657 -17 z "},"":{"ha":1006,"x_min":39,"x_max":967,"o":"m 967 393 q 857 92 954 190 q 547 -15 760 -6 l 542 -40 q 670 -73 622 -43 q 718 -154 718 -103 q 687 -226 718 -196 q 608 -272 656 -256 q 514 -287 561 -287 q 442 -278 476 -287 q 385 -257 408 -269 l 401 -151 q 467 -162 431 -162 q 515 -152 497 -162 q 533 -128 533 -142 q 513 -96 533 -107 q 433 -76 492 -85 l 446 -15 q 145 114 251 -4 q 39 458 39 232 q 528 932 39 932 q 764 892 672 932 q 903 767 856 851 q 964 543 951 682 l 639 514 q 500 694 621 694 q 445 688 475 694 q 393 668 415 681 q 378 457 378 558 q 414 290 378 354 q 526 226 450 226 q 578 231 550 226 q 622 244 606 236 q 640 393 633 304 l 967 393 z "},"":{"ha":1006,"x_min":39,"x_max":967,"o":"m 492 -17 q 157 101 275 -17 q 39 458 39 219 q 528 932 39 932 q 764 892 672 932 q 903 767 856 851 q 964 543 951 682 l 639 514 q 500 694 621 694 q 445 688 475 694 q 393 668 415 681 q 378 457 378 558 q 414 290 378 354 q 526 226 450 226 q 578 231 550 226 q 622 244 606 236 q 640 393 633 304 l 967 393 q 908 159 957 249 q 758 26 858 69 q 492 -17 657 -17 z "},"":{"ha":1006,"x_min":39,"x_max":967,"o":"m 492 -17 q 157 101 275 -17 q 39 458 39 219 q 528 932 39 932 q 764 892 672 932 q 903 767 856 851 q 964 543 951 682 l 639 514 q 500 694 621 694 q 445 688 475 694 q 393 668 415 681 q 378 457 378 558 q 414 290 378 354 q 526 226 450 226 q 578 231 550 226 q 622 244 606 236 q 640 393 633 304 l 967 393 q 908 159 957 249 q 758 26 858 69 q 492 -17 657 -17 z "},"":{"ha":1249,"x_min":39,"x_max":1261,"o":"m 640 0 q 674 238 654 108 l 653 239 q 532 49 607 115 q 333 -17 457 -17 q 110 96 182 -17 q 39 461 39 208 q 117 815 39 697 q 363 932 196 932 q 488 905 426 932 q 592 822 549 878 q 647 686 636 767 l 669 686 q 657 836 668 758 l 651 878 l 651 1038 l 992 1071 q 989 763 989 989 l 989 513 q 993 0 989 119 l 640 0 m 513 222 q 592 240 549 222 q 654 282 636 257 l 654 486 q 611 634 654 575 q 496 693 568 693 q 401 676 454 693 q 385 575 390 622 q 379 465 379 528 q 408 294 379 367 q 513 222 438 222 m 1261 1033 q 1243 874 1261 950 q 1232 838 1240 858 q 1221 810 1224 818 q 1196 739 1201 765 l 1125 739 q 1101 804 1121 761 q 1078 874 1082 850 q 1060 1035 1060 950 l 1060 1060 l 1261 1060 l 1261 1033 z "},"":{"ha":1072,"x_min":39,"x_max":993,"o":"m 640 0 q 674 238 654 108 l 653 239 q 532 49 607 115 q 333 -17 457 -17 q 110 96 182 -17 q 39 461 39 208 q 117 815 39 697 q 363 932 196 932 q 488 905 426 932 q 592 822 549 878 q 647 686 636 767 l 669 686 q 657 836 668 758 l 651 878 l 651 1038 l 992 1071 q 989 763 989 989 l 989 513 q 993 0 989 119 l 640 0 m 513 222 q 592 240 549 222 q 654 282 636 257 l 654 486 q 611 634 654 575 q 496 693 568 693 q 401 676 454 693 q 385 575 390 622 q 379 465 379 528 q 408 294 379 367 q 513 222 438 222 m 672 -42 q 682 -144 682 -94 q 609 -315 682 -249 q 415 -383 536 -381 l 407 -372 q 470 -309 433 -347 q 508 -260 507 -271 q 462 -250 494 -260 q 421 -229 429 -240 l 400 -42 l 672 -42 z "},"":{"ha":1072,"x_min":39,"x_max":1071,"o":"m 989 878 l 989 513 q 993 0 989 119 l 640 0 q 674 238 654 108 l 653 239 q 532 49 607 115 q 333 -17 457 -17 q 110 96 182 -17 q 39 461 39 208 q 117 815 39 697 q 363 932 196 932 q 488 905 426 932 q 592 822 549 878 q 647 686 636 767 l 669 686 q 657 836 668 758 l 651 878 l 569 875 l 569 996 q 651 993 625 993 l 651 1038 l 992 1071 q 990 993 990 1047 l 1071 996 l 1071 875 l 989 878 m 654 486 q 611 634 654 575 q 496 693 568 693 q 401 676 454 693 q 385 575 390 622 q 379 465 379 528 q 408 294 379 367 q 513 222 438 222 q 592 240 549 222 q 654 282 636 257 l 654 486 z "},"":{"ha":1072,"x_min":39,"x_max":993,"o":"m 640 0 q 674 238 654 108 l 653 239 q 532 49 607 115 q 333 -17 457 -17 q 110 96 182 -17 q 39 461 39 208 q 117 815 39 697 q 363 932 196 932 q 488 905 426 932 q 592 822 549 878 q 647 686 636 767 l 669 686 q 657 836 668 758 l 651 878 l 651 1038 l 992 1071 q 989 763 989 989 l 989 513 q 993 0 989 119 l 640 0 m 513 222 q 592 240 549 222 q 654 282 636 257 l 654 486 q 611 634 654 575 q 496 693 568 693 q 401 676 454 693 q 385 575 390 622 q 379 465 379 528 q 408 294 379 367 q 513 222 438 222 z "},"":{"ha":1072,"x_min":39,"x_max":993,"o":"m 640 0 q 674 238 654 108 l 653 239 q 532 49 607 115 q 333 -17 457 -17 q 110 96 182 -17 q 39 461 39 208 q 117 815 39 697 q 363 932 196 932 q 488 905 426 932 q 592 822 549 878 q 647 686 636 767 l 669 686 q 657 836 668 758 l 651 878 l 651 1038 l 992 1071 q 989 763 989 989 l 989 513 q 993 0 989 119 l 640 0 m 513 222 q 592 240 549 222 q 654 282 636 257 l 654 486 q 611 634 654 575 q 496 693 568 693 q 401 676 454 693 q 385 575 390 622 q 379 465 379 528 q 408 294 379 367 q 513 222 438 222 z "},"":{"ha":1006,"x_min":39,"x_max":965,"o":"m 965 501 l 378 447 q 415 287 379 347 q 525 226 451 226 q 576 231 549 226 q 621 244 603 236 q 638 393 633 313 l 964 392 q 906 165 954 254 q 758 30 858 76 q 492 -17 657 -17 q 155 100 271 -17 q 39 457 39 217 q 162 815 39 697 q 528 932 285 932 q 850 831 747 932 q 965 511 953 731 l 961 511 l 965 501 m 500 693 q 444 686 474 693 q 392 667 415 679 q 379 515 381 563 l 635 539 q 500 693 614 693 z "},"":{"ha":1006,"x_min":39,"x_max":965,"o":"m 965 501 l 378 447 q 415 287 379 347 q 525 226 451 226 q 576 231 549 226 q 621 244 603 236 q 638 393 633 313 l 964 392 q 906 165 954 254 q 758 30 858 76 q 492 -17 657 -17 q 155 100 271 -17 q 39 457 39 217 q 162 815 39 697 q 528 932 285 932 q 850 831 747 932 q 965 511 953 731 l 961 511 l 965 501 m 500 693 q 444 686 474 693 q 392 667 415 679 q 379 515 381 563 l 635 539 q 500 693 614 693 z "},"":{"ha":1006,"x_min":39,"x_max":965,"o":"m 965 501 l 378 447 q 415 287 379 347 q 525 226 451 226 q 576 231 549 226 q 621 244 603 236 q 638 393 633 313 l 964 392 q 906 165 954 254 q 758 30 858 76 q 492 -17 657 -17 q 155 100 271 -17 q 39 457 39 217 q 162 815 39 697 q 528 932 285 932 q 850 831 747 932 q 965 511 953 731 l 961 511 l 965 501 m 500 693 q 444 686 474 693 q 392 667 415 679 q 379 515 381 563 l 635 539 q 500 693 614 693 z "},"":{"ha":1006,"x_min":39,"x_max":965,"o":"m 965 501 l 378 447 q 415 287 379 347 q 525 226 451 226 q 576 231 549 226 q 621 244 603 236 q 638 393 633 313 l 964 392 q 906 165 954 254 q 758 30 858 76 q 492 -17 657 -17 q 155 100 271 -17 q 39 457 39 217 q 162 815 39 697 q 528 932 285 932 q 850 831 747 932 q 965 511 953 731 l 961 511 l 965 501 m 500 693 q 444 686 474 693 q 392 667 415 679 q 379 515 381 563 l 635 539 q 500 693 614 693 z "},"":{"ha":1006,"x_min":39,"x_max":1081,"o":"m 1081 1321 l 794 1164 l 661 1218 l 910 1404 l 1081 1321 m 506 1058 l 292 960 l 249 1101 l 490 1242 l 522 1242 l 764 1101 l 722 960 l 506 1058 m 528 932 q 850 831 747 932 q 965 511 953 731 l 961 511 l 965 501 l 378 447 q 415 287 379 347 q 525 226 451 226 q 576 231 549 226 q 621 244 603 236 q 638 393 633 313 l 964 392 q 906 165 954 254 q 758 30 858 76 q 492 -17 657 -17 q 155 100 271 -17 q 39 457 39 217 q 162 815 39 697 q 528 932 285 932 m 500 693 q 444 686 474 693 q 392 667 415 679 q 379 515 381 563 l 635 539 q 500 693 614 693 z "},"":{"ha":1006,"x_min":39,"x_max":965,"o":"m 965 501 l 378 447 q 415 287 379 347 q 525 226 451 226 q 576 231 549 226 q 621 244 603 236 q 638 393 633 313 l 964 392 q 906 165 954 254 q 758 30 858 76 q 492 -17 657 -17 q 155 100 271 -17 q 39 457 39 217 q 162 815 39 697 q 528 932 285 932 q 850 831 747 932 q 965 511 953 731 l 961 511 l 965 501 m 500 693 q 444 686 474 693 q 392 667 415 679 q 379 515 381 563 l 635 539 q 500 693 614 693 z "},"":{"ha":1006,"x_min":-53,"x_max":965,"o":"m 368 1225 l 233 1171 l -53 1328 l 118 1411 l 368 1225 m 292 960 l 249 1101 l 490 1242 l 522 1242 l 764 1101 l 722 960 l 506 1058 l 292 960 m 965 501 l 378 447 q 415 287 379 347 q 525 226 451 226 q 576 231 549 226 q 621 244 603 236 q 638 393 633 313 l 964 392 q 906 165 954 254 q 758 30 858 76 q 492 -17 657 -17 q 155 100 271 -17 q 39 457 39 217 q 162 815 39 697 q 528 932 285 932 q 850 831 747 932 q 965 511 953 731 l 961 511 l 965 501 m 500 693 q 444 686 474 693 q 392 667 415 679 q 379 515 381 563 l 635 539 q 500 693 614 693 z "},"":{"ha":1006,"x_min":39,"x_max":965,"o":"m 965 501 l 378 447 q 415 287 379 347 q 525 226 451 226 q 576 231 549 226 q 621 244 603 236 q 638 393 633 313 l 964 392 q 906 165 954 254 q 758 30 858 76 q 492 -17 657 -17 q 155 100 271 -17 q 39 457 39 217 q 162 815 39 697 q 528 932 285 932 q 850 831 747 932 q 965 511 953 731 l 961 511 l 965 501 m 500 693 q 444 686 474 693 q 392 667 415 679 q 379 515 381 563 l 635 539 q 500 693 614 693 z "},"":{"ha":1006,"x_min":39,"x_max":965,"o":"m 965 501 l 378 447 q 415 287 379 347 q 525 226 451 226 q 576 231 549 226 q 621 244 603 236 q 638 393 633 313 l 964 392 q 906 165 954 254 q 758 30 858 76 q 492 -17 657 -17 q 155 100 271 -17 q 39 457 39 217 q 162 815 39 697 q 528 932 285 932 q 850 831 747 932 q 965 511 953 731 l 961 511 l 965 501 m 500 693 q 444 686 474 693 q 392 667 415 679 q 379 515 381 563 l 635 539 q 500 693 614 693 z "},"":{"ha":1006,"x_min":39,"x_max":965,"o":"m 965 501 l 378 447 q 415 287 379 347 q 525 226 451 226 q 576 231 549 226 q 621 244 603 236 q 638 393 633 313 l 964 392 q 906 165 954 254 q 758 30 858 76 q 492 -17 657 -17 q 155 100 271 -17 q 39 457 39 217 q 162 815 39 697 q 528 932 285 932 q 850 831 747 932 q 965 511 953 731 l 961 511 l 965 501 m 500 693 q 444 686 474 693 q 392 667 415 679 q 379 515 381 563 l 635 539 q 500 693 614 693 z "},"":{"ha":1006,"x_min":39,"x_max":965,"o":"m 965 501 l 378 447 q 415 287 379 347 q 525 226 451 226 q 576 231 549 226 q 621 244 603 236 q 638 393 633 313 l 964 392 q 906 165 954 254 q 758 30 858 76 q 492 -17 657 -17 q 155 100 271 -17 q 39 457 39 217 q 162 815 39 697 q 528 932 285 932 q 850 831 747 932 q 965 511 953 731 l 961 511 l 965 501 m 500 693 q 444 686 474 693 q 392 667 415 679 q 379 515 381 563 l 635 539 q 500 693 614 693 z "},"":{"ha":1006,"x_min":39,"x_max":965,"o":"m 965 501 l 378 447 q 415 287 379 347 q 525 226 451 226 q 576 231 549 226 q 621 244 603 236 q 638 393 633 313 l 964 392 q 906 165 954 254 q 758 30 858 76 q 492 -17 657 -17 q 155 100 271 -17 q 39 457 39 217 q 162 815 39 697 q 528 932 285 932 q 850 831 747 932 q 965 511 953 731 l 961 511 l 965 501 m 500 693 q 444 686 474 693 q 392 667 415 679 q 379 515 381 563 l 635 539 q 500 693 614 693 z "},"":{"ha":1006,"x_min":39,"x_max":965,"o":"m 965 501 l 378 447 q 415 287 379 347 q 525 226 451 226 q 576 231 549 226 q 621 244 603 236 q 638 393 633 313 l 964 392 q 906 165 954 254 q 758 30 858 76 q 492 -17 657 -17 q 155 100 271 -17 q 39 457 39 217 q 162 815 39 697 q 528 932 285 932 q 850 831 747 932 q 965 511 953 731 l 961 511 l 965 501 m 500 693 q 444 686 474 693 q 392 667 415 679 q 379 515 381 563 l 635 539 q 500 693 614 693 z "},"":{"ha":1006,"x_min":39,"x_max":965,"o":"m 965 501 l 378 447 q 415 287 379 347 q 525 226 451 226 q 576 231 549 226 q 621 244 603 236 q 638 393 633 313 l 964 392 q 922 196 957 276 q 819 65 888 115 l 821 64 q 751 6 772 26 q 731 -40 731 -15 q 781 -89 731 -89 q 810 -85 797 -89 q 838 -71 822 -81 l 876 -186 q 713 -242 815 -242 q 576 -206 628 -242 q 525 -106 525 -171 q 563 -14 525 -51 q 492 -17 518 -17 q 155 100 271 -17 q 39 457 39 217 q 162 815 39 697 q 528 932 285 932 q 850 831 747 932 q 965 511 953 731 l 961 511 l 965 501 m 500 693 q 444 686 474 693 q 392 667 415 679 q 379 515 381 563 l 635 539 q 500 693 614 693 z "},"":{"ha":1006,"x_min":39,"x_max":965,"o":"m 965 501 l 378 447 q 415 287 379 347 q 525 226 451 226 q 576 231 549 226 q 621 244 603 236 q 638 393 633 313 l 964 392 q 906 165 954 254 q 758 30 858 76 q 492 -17 657 -17 q 155 100 271 -17 q 39 457 39 217 q 162 815 39 697 q 528 932 285 932 q 850 831 747 932 q 965 511 953 731 l 961 511 l 965 501 m 500 693 q 444 686 474 693 q 392 667 415 679 q 379 515 381 563 l 635 539 q 500 693 614 693 z "},"":{"ha":1007,"x_min":40,"x_max":967,"o":"m 514 931 q 851 814 735 931 q 967 457 967 697 q 844 99 967 217 q 478 -18 721 -18 q 156 83 258 -18 q 40 403 53 183 l 44 403 l 40 413 l 628 467 q 590 627 626 567 q 481 688 554 688 q 430 683 457 688 q 385 669 403 678 q 368 521 372 601 l 42 522 q 99 749 51 660 q 248 884 147 838 q 514 931 349 931 m 506 221 q 561 228 532 221 q 614 247 590 235 q 626 399 625 351 l 371 375 q 506 221 392 221 z "},"":{"ha":1032,"x_min":39,"x_max":986,"o":"m 492 -179 q 261 -149 350 -179 q 124 -52 172 -119 q 60 131 76 15 l 383 163 q 431 84 399 110 q 519 58 464 58 q 646 135 618 58 q 649 231 646 204 q 660 289 651 257 q 675 351 671 332 l 653 354 q 576 244 631 281 q 463 199 522 208 q 331 190 403 190 q 119 273 200 190 q 39 525 39 356 q 66 771 39 685 q 160 894 93 857 q 356 932 228 932 q 555 874 486 932 q 638 692 624 817 l 661 697 l 658 729 q 651 828 654 782 q 640 914 647 874 l 986 914 l 985 872 q 982 536 982 725 l 981 281 q 861 -67 978 44 q 492 -179 744 -179 m 650 482 q 616 637 650 582 q 513 692 582 692 q 413 675 456 692 l 401 639 q 392 599 394 617 q 389 536 389 581 q 402 476 389 517 q 446 403 415 436 q 526 369 476 369 q 597 382 567 369 q 650 422 626 394 l 650 482 z "},"":{"ha":1032,"x_min":39,"x_max":986,"o":"m 492 -179 q 261 -149 350 -179 q 124 -52 172 -119 q 60 131 76 15 l 383 163 q 431 84 399 110 q 519 58 464 58 q 646 135 618 58 q 649 231 646 204 q 660 289 651 257 q 675 351 671 332 l 653 354 q 576 244 631 281 q 463 199 522 208 q 331 190 403 190 q 119 273 200 190 q 39 525 39 356 q 66 771 39 685 q 160 894 93 857 q 356 932 228 932 q 555 874 486 932 q 638 692 624 817 l 661 697 l 658 729 q 651 828 654 782 q 640 914 647 874 l 986 914 l 985 872 q 982 536 982 725 l 981 281 q 861 -67 978 44 q 492 -179 744 -179 m 650 482 q 616 637 650 582 q 513 692 582 692 q 413 675 456 692 l 401 639 q 392 599 394 617 q 389 536 389 581 q 402 476 389 517 q 446 403 415 436 q 526 369 476 369 q 597 382 567 369 q 650 422 626 394 l 650 482 m 396 992 q 386 1083 386 1039 q 451 1236 386 1178 q 625 1297 517 1294 l 633 1288 q 576 1231 610 1265 q 542 1186 543 1196 q 584 1178 554 1186 q 621 1160 614 1169 l 639 992 l 396 992 z "},"":{"ha":1032,"x_min":39,"x_max":986,"o":"m 492 -179 q 261 -149 350 -179 q 124 -52 172 -119 q 60 131 76 15 l 383 163 q 431 84 399 110 q 519 58 464 58 q 646 135 618 58 q 649 231 646 204 q 660 289 651 257 q 675 351 671 332 l 653 354 q 576 244 631 281 q 463 199 522 208 q 331 190 403 190 q 119 273 200 190 q 39 525 39 356 q 66 771 39 685 q 160 894 93 857 q 356 932 228 932 q 555 874 486 932 q 638 692 624 817 l 661 697 l 658 729 q 651 828 654 782 q 640 914 647 874 l 986 914 l 985 872 q 982 536 982 725 l 981 281 q 861 -67 978 44 q 492 -179 744 -179 m 650 482 q 616 637 650 582 q 513 692 582 692 q 413 675 456 692 l 401 639 q 392 599 394 617 q 389 536 389 581 q 402 476 389 517 q 446 403 415 436 q 526 369 476 369 q 597 382 567 369 q 650 422 626 394 l 650 482 z "},"":{"ha":1088,"x_min":0,"x_max":1008,"o":"m 664 0 q 667 96 667 106 q 668 218 668 140 l 668 471 q 637 635 668 578 q 542 693 606 693 q 472 674 511 693 q 417 633 432 656 l 417 421 q 422 0 417 132 l 78 0 q 82 481 82 150 q 81 879 82 750 l 0 876 l 0 997 l 79 994 l 78 1036 l 422 1071 l 422 994 l 501 997 l 501 876 l 421 879 l 393 696 l 411 696 q 531 871 444 810 q 728 932 617 932 q 888 890 829 932 q 973 768 947 849 q 1003 560 999 688 q 1004 426 1004 501 q 1006 276 1004 350 q 1008 0 1006 86 l 664 0 z "},"":{"ha":1088,"x_min":-6,"x_max":1008,"o":"m 78 0 q 82 481 82 150 q 78 1036 82 907 l 422 1071 l 422 886 l 393 696 l 411 696 q 531 871 444 810 q 728 932 617 932 q 888 890 829 932 q 973 768 947 849 q 1003 560 999 688 q 1004 426 1004 501 q 1006 276 1004 350 q 1008 0 1006 86 l 664 0 q 667 96 667 106 q 668 218 668 140 l 668 471 q 637 635 668 578 q 542 693 606 693 q 472 674 511 693 q 417 633 432 656 l 417 421 q 422 0 417 132 l 78 0 z "},"":{"ha":1088,"x_min":-6,"x_max":1008,"o":"m 78 0 q 82 481 82 150 q 78 1036 82 907 l 422 1071 l 422 886 l 393 696 l 411 696 q 531 871 444 810 q 728 932 617 932 q 888 890 829 932 q 973 768 947 849 q 1003 560 999 688 q 1004 426 1004 501 q 1006 276 1004 350 q 1008 0 1006 86 l 664 0 q 667 96 667 106 q 668 218 668 140 l 668 471 q 637 635 668 578 q 542 693 606 693 q 472 674 511 693 q 417 633 432 656 l 417 421 q 422 0 417 132 l 78 0 z "},"":{"ha":1088,"x_min":78,"x_max":1008,"o":"m 78 0 q 82 481 82 150 q 78 1036 82 907 l 422 1071 l 422 886 l 393 696 l 411 696 q 531 871 444 810 q 728 932 617 932 q 888 890 829 932 q 973 768 947 849 q 1003 560 999 688 q 1004 426 1004 501 q 1006 276 1004 350 q 1008 0 1006 86 l 664 0 q 667 96 667 106 q 668 218 668 140 l 668 471 q 637 635 668 578 q 542 693 606 693 q 472 674 511 693 q 417 633 432 656 l 417 421 q 422 0 417 132 l 78 0 z "},"":{"ha":500,"x_min":17,"x_max":525,"o":"m 78 0 q 83 388 83 185 q 78 919 83 732 q 250 914 118 914 q 421 919 381 914 q 418 388 418 736 q 421 0 418 178 l 78 0 z "},"":{"ha":500,"x_min":15,"x_max":489,"o":"m 78 0 q 83 388 83 185 q 78 919 83 732 q 250 914 118 914 q 421 919 381 914 q 418 388 418 736 q 421 0 418 178 l 78 0 z "},"":{"ha":500,"x_min":-7,"x_max":508,"o":"m 78 0 q 83 388 83 185 q 78 919 83 732 q 250 914 118 914 q 421 919 381 914 q 418 388 418 736 q 421 0 418 178 l 78 0 z "},"":{"ha":500,"x_min":-6,"x_max":510,"o":"m 78 0 q 83 388 83 185 q 78 919 83 732 q 250 914 118 914 q 421 919 381 914 q 418 388 418 736 q 421 0 418 178 l 78 0 z "},"":{"ha":500,"x_min":-86,"x_max":596,"o":"m 78 0 q 83 388 83 185 q 78 919 83 732 q 250 914 118 914 q 421 919 381 914 q 418 388 418 736 q 421 0 418 178 l 78 0 z "},"":{"ha":503,"x_min":46,"x_max":457,"o":"m 251 899 q 92 928 139 899 q 46 1022 46 957 q 92 1117 46 1088 q 251 1147 139 1147 q 410 1117 364 1147 q 457 1022 457 1088 q 410 928 457 957 q 251 899 364 899 m 79 0 q 85 388 85 185 q 79 850 85 663 q 251 836 179 836 q 346 841 301 836 q 424 850 390 846 q 421 388 421 667 q 424 0 421 178 l 79 0 z "},"":{"ha":500,"x_min":7,"x_max":515,"o":"m 78 0 q 83 388 83 185 q 78 919 83 732 q 250 914 118 914 q 421 919 381 914 q 418 388 418 736 q 421 0 418 178 l 78 0 z "},"":{"ha":1031,"x_min":46,"x_max":993,"o":"m 251 899 q 92 928 139 899 q 46 1022 46 957 q 92 1117 46 1088 q 251 1147 139 1147 q 410 1117 364 1147 q 457 1022 457 1088 q 410 928 457 957 q 251 899 364 899 m 79 0 q 85 388 85 185 q 79 850 85 663 q 251 836 179 836 q 346 841 301 836 q 424 850 390 846 q 421 388 421 667 q 424 0 421 178 l 79 0 m 788 899 q 628 928 675 899 q 582 1022 582 957 q 628 1117 582 1088 q 788 1147 675 1147 q 947 1117 900 1147 q 993 1022 993 1088 q 947 928 993 957 q 788 899 900 899 m 639 -176 q 472 -164 550 -176 l 479 89 q 529 83 510 83 q 610 110 610 83 l 613 447 q 607 850 613 651 q 668 842 618 849 q 788 836 718 836 q 951 850 864 836 q 949 457 949 703 l 949 108 q 917 -63 949 -1 q 818 -151 885 -125 q 639 -176 751 -176 z "},"":{"ha":500,"x_min":-11,"x_max":511,"o":"m 78 0 q 83 388 83 185 q 78 919 83 732 q 250 914 118 914 q 421 919 381 914 q 418 388 418 736 q 421 0 418 178 l 78 0 z "},"":{"ha":503,"x_min":46,"x_max":479,"o":"m 457 1022 q 410 928 457 957 q 251 899 364 899 q 92 928 139 899 q 46 1022 46 957 q 92 1117 46 1088 q 251 1147 139 1147 q 410 1117 364 1147 q 457 1022 457 1088 m 479 -250 q 315 -306 418 -306 q 179 -270 231 -306 q 128 -169 128 -235 q 170 -73 128 -117 q 336 0 213 -29 l 79 0 q 85 388 85 185 q 79 850 85 663 q 251 836 179 836 q 346 841 301 836 q 424 850 390 846 q 421 388 421 667 q 424 0 421 178 q 354 -58 375 -37 q 333 -104 333 -79 q 383 -153 333 -153 q 413 -149 400 -153 q 440 -135 425 -144 l 479 -250 z "},"":{"ha":500,"x_min":25,"x_max":472,"o":"m 256 1006 q 138 1031 174 1006 q 103 1110 103 1056 q 138 1188 103 1164 q 256 1213 174 1213 q 374 1188 338 1213 q 410 1110 410 1164 q 374 1031 410 1056 q 256 1006 338 1006 m 418 419 l 418 388 q 421 0 418 178 l 78 0 q 83 388 83 185 l 83 419 q 25 418 44 419 l 25 539 l 83 536 q 78 919 81 822 q 250 914 118 914 q 421 919 381 914 q 419 733 419 881 l 418 536 l 472 539 l 472 418 l 418 419 z "},"":{"ha":500,"x_min":-94,"x_max":597,"o":"m 78 0 q 83 388 83 185 q 78 919 83 732 q 250 914 118 914 q 421 919 381 914 q 418 388 418 736 q 421 0 418 178 l 78 0 z "},"":{"ha":528,"x_min":-31,"x_max":525,"o":"m 138 -174 q -31 -161 47 -174 q -26 -72 -28 -119 q -25 -4 -25 -24 q -24 90 -25 57 q 26 81 -3 81 q 87 89 67 81 q 107 118 107 97 l 110 461 q 104 921 110 722 q 285 914 161 914 q 449 921 406 914 q 446 457 446 847 l 444 108 q 413 -61 444 0 q 316 -148 382 -122 q 138 -174 250 -174 z "},"":{"ha":1018,"x_min":78,"x_max":1032,"o":"m 78 0 q 81 532 81 328 q 78 996 81 699 l 78 1038 l 428 1071 q 414 518 418 769 l 458 518 l 658 914 l 1010 914 q 813 564 889 697 q 744 500 794 519 q 596 476 693 481 l 596 458 q 739 434 690 456 q 811 365 788 413 q 1032 0 924 183 l 661 0 l 460 406 l 414 406 q 415 350 415 385 q 428 0 421 167 l 78 0 z "},"":{"ha":1018,"x_min":78,"x_max":1032,"o":"m 78 0 q 81 532 81 328 q 78 996 81 699 l 78 1038 l 428 1071 q 414 518 418 769 l 458 518 l 658 914 l 1010 914 q 813 564 889 697 q 744 500 794 519 q 596 476 693 481 l 596 458 q 739 434 690 456 q 811 365 788 413 q 1032 0 924 183 l 661 0 l 460 406 l 414 406 q 415 350 415 385 q 428 0 421 167 l 78 0 m 646 -42 q 656 -144 656 -94 q 583 -315 656 -249 q 389 -383 510 -381 l 381 -372 q 444 -309 407 -347 q 482 -260 481 -271 q 435 -250 468 -260 q 394 -229 403 -240 l 374 -42 l 646 -42 z "},"":{"ha":1018,"x_min":78,"x_max":1032,"o":"m 78 0 q 81 532 81 328 q 79 788 81 717 l 78 914 l 428 914 q 421 721 426 829 q 414 508 418 676 l 454 508 l 658 914 l 1011 914 q 813 564 928 763 q 744 500 794 519 q 596 476 693 481 l 596 458 q 740 434 690 456 q 813 365 789 413 q 1008 39 892 235 l 1032 0 l 663 0 l 454 415 l 414 415 l 417 350 q 428 0 417 294 l 78 0 z "},"":{"ha":500,"x_min":51,"x_max":560,"o":"m 78 0 q 83 449 83 213 q 78 1038 83 821 l 421 1071 q 418 449 418 860 q 421 0 418 208 l 78 0 z "},"":{"ha":500,"x_min":78,"x_max":675,"o":"m 78 0 q 83 449 83 213 q 78 1038 83 821 l 421 1071 q 418 449 418 860 q 421 0 418 208 l 78 0 m 675 1033 q 657 874 675 950 q 646 838 654 858 q 635 810 638 818 q 610 739 615 765 l 539 739 q 515 804 535 761 q 492 874 496 850 q 474 1035 474 950 l 474 1060 l 675 1060 l 675 1033 z "},"":{"ha":500,"x_min":78,"x_max":421,"o":"m 78 0 q 83 449 83 213 q 78 1038 83 821 l 421 1071 q 418 449 418 860 q 421 0 418 208 l 78 0 m 388 -42 q 397 -144 397 -94 q 324 -315 397 -249 q 131 -383 251 -381 l 122 -372 q 185 -309 149 -347 q 224 -260 222 -271 q 177 -250 210 -260 q 136 -229 144 -240 l 115 -42 l 388 -42 z "},"":{"ha":500,"x_min":78,"x_max":888,"o":"m 78 0 q 83 449 83 213 q 78 1038 83 821 l 421 1071 q 418 449 418 860 q 421 0 418 208 l 78 0 z "},"":{"ha":500,"x_min":78,"x_max":421,"o":"m 78 0 q 83 449 83 213 q 78 1038 83 821 l 421 1071 q 418 449 418 860 q 421 0 418 208 l 78 0 z "},"":{"ha":500,"x_min":-57,"x_max":547,"o":"m 418 449 q 421 0 418 208 l 78 0 q 83 322 81 107 l 49 299 l -7 261 l -57 344 q 83 431 8 383 l 83 449 q 78 1038 83 821 l 421 1071 q 419 865 419 1028 l 418 649 q 496 701 426 654 l 547 613 l 418 536 l 418 449 z "},"":{"ha":1635,"x_min":78,"x_max":1556,"o":"m 78 0 q 83 456 83 142 q 78 914 83 771 l 425 914 l 396 682 l 415 682 q 509 865 432 797 q 693 933 586 932 q 878 870 804 935 q 961 682 953 806 l 979 682 q 1039 831 990 775 q 1151 909 1088 886 q 1275 932 1214 932 q 1485 833 1418 932 q 1551 576 1551 735 l 1553 307 q 1554 136 1554 222 q 1556 0 1554 50 l 1213 0 q 1217 267 1217 190 l 1217 449 q 1189 628 1217 565 q 1081 692 1161 692 q 1026 674 1054 692 q 985 632 997 657 l 985 450 q 992 0 986 285 l 647 0 q 649 223 649 81 q 650 464 650 365 q 615 637 649 582 q 517 692 581 692 q 460 674 489 692 q 418 632 431 657 l 418 474 q 425 0 418 200 l 78 0 z "},"":{"ha":1635,"x_min":78,"x_max":1556,"o":"m 78 0 q 83 456 83 142 q 78 914 83 771 l 425 914 l 396 682 l 415 682 q 509 865 432 797 q 693 933 586 932 q 878 870 804 935 q 961 682 953 806 l 979 682 q 1039 831 990 775 q 1151 909 1088 886 q 1275 932 1214 932 q 1485 833 1418 932 q 1551 576 1551 735 l 1553 307 q 1554 136 1554 222 q 1556 0 1554 50 l 1213 0 q 1217 267 1217 190 l 1217 449 q 1189 628 1217 565 q 1081 692 1161 692 q 1026 674 1054 692 q 985 632 997 657 l 985 450 q 992 0 986 285 l 647 0 q 649 223 649 81 q 650 464 650 365 q 615 637 649 582 q 517 692 581 692 q 460 674 489 692 q 418 632 431 657 l 418 474 q 425 0 418 200 l 78 0 z "},"":{"ha":1089,"x_min":78,"x_max":1010,"o":"m 78 0 q 83 456 83 142 q 78 914 83 771 l 424 914 l 394 678 l 414 678 q 533 863 447 793 q 729 932 619 932 q 890 890 831 932 q 974 768 949 849 q 1004 560 1000 688 q 1006 426 1006 501 q 1007 276 1006 350 q 1010 0 1007 86 l 667 0 q 669 267 669 115 l 669 471 q 638 635 669 578 q 543 693 607 693 q 472 675 513 693 q 418 633 432 657 l 418 426 q 424 0 418 136 l 78 0 z "},"":{"ha":1089,"x_min":78,"x_max":1010,"o":"m 78 0 q 83 456 83 142 q 78 914 83 771 l 424 914 l 394 678 l 414 678 q 533 863 447 793 q 729 932 619 932 q 890 890 831 932 q 974 768 949 849 q 1004 560 1000 688 q 1006 426 1006 501 q 1007 276 1006 350 q 1010 0 1007 86 l 667 0 q 669 267 669 115 l 669 471 q 638 635 669 578 q 543 693 607 693 q 472 675 513 693 q 418 633 432 657 l 418 426 q 424 0 418 136 l 78 0 z "},"":{"ha":1089,"x_min":78,"x_max":1010,"o":"m 78 0 q 83 456 83 142 q 78 914 83 771 l 424 914 l 394 678 l 414 678 q 533 863 447 793 q 729 932 619 932 q 890 890 831 932 q 974 768 949 849 q 1004 560 1000 688 q 1006 426 1006 501 q 1007 276 1006 350 q 1010 0 1007 86 l 667 0 q 669 267 669 115 l 669 471 q 638 635 669 578 q 543 693 607 693 q 472 675 513 693 q 418 633 432 657 l 418 426 q 424 0 418 136 l 78 0 m 682 -42 q 692 -144 692 -94 q 619 -315 692 -249 q 425 -383 546 -381 l 417 -372 q 480 -309 443 -347 q 518 -260 517 -271 q 472 -250 504 -260 q 431 -229 439 -240 l 410 -42 l 682 -42 z "},"":{"ha":1089,"x_min":78,"x_max":1010,"o":"m 78 0 q 83 456 83 142 q 78 914 83 771 l 424 914 l 394 678 l 414 678 q 533 863 447 793 q 729 932 619 932 q 890 890 831 932 q 974 768 949 849 q 1004 560 1000 688 q 1006 426 1006 501 q 1007 276 1006 350 q 1010 0 1007 86 l 667 0 q 669 267 669 115 l 669 471 q 638 635 669 578 q 543 693 607 693 q 472 675 513 693 q 418 633 432 657 l 418 426 q 424 0 418 136 l 78 0 z "},"":{"ha":1089,"x_min":78,"x_max":1010,"o":"m 78 0 q 83 456 83 142 q 78 914 83 771 l 424 914 l 394 678 l 414 678 q 533 863 447 793 q 729 932 619 932 q 890 890 831 932 q 974 768 949 849 q 1004 560 1000 688 q 1006 426 1006 501 q 1007 276 1006 350 q 1010 0 1007 86 l 667 0 q 669 267 669 115 l 669 471 q 638 635 669 578 q 543 693 607 693 q 472 675 513 693 q 418 633 432 657 l 418 426 q 424 0 418 136 l 78 0 z "},"":{"ha":1071,"x_min":78,"x_max":1018,"o":"m 1018 393 l 1018 128 q 983 -49 1018 15 q 878 -140 947 -114 q 696 -167 808 -167 q 533 -154 608 -167 l 540 93 q 589 85 568 85 q 649 102 628 85 q 671 160 669 119 q 675 471 675 267 q 644 635 675 578 q 549 693 613 693 q 478 675 518 693 q 425 633 438 657 l 425 426 q 431 0 425 136 l 78 0 q 83 456 83 142 q 78 914 83 771 l 431 914 l 400 668 l 418 668 q 538 861 451 790 q 735 932 625 932 q 950 841 886 932 q 1018 560 1014 750 l 1018 393 z "},"":{"ha":1617,"x_min":78,"x_max":1579,"o":"m 78 0 q 83 456 83 142 q 78 914 83 771 l 424 914 l 394 678 l 414 678 q 533 863 447 793 q 729 932 619 932 q 890 890 831 932 q 974 768 949 849 q 1004 560 1000 688 q 1006 426 1006 501 q 1007 276 1006 350 q 1010 0 1007 86 l 667 0 q 669 267 669 115 l 669 471 q 638 635 669 578 q 543 693 607 693 q 472 675 513 693 q 418 633 432 657 l 418 426 q 424 0 418 136 l 78 0 m 1374 899 q 1215 928 1261 899 q 1168 1022 1168 957 q 1215 1117 1168 1088 q 1374 1147 1261 1147 q 1533 1117 1486 1147 q 1579 1022 1579 1088 q 1533 928 1579 957 q 1374 899 1486 899 m 1225 -176 q 1058 -164 1136 -176 l 1065 89 q 1115 83 1096 83 q 1196 110 1196 83 l 1199 447 q 1193 850 1199 651 q 1254 842 1204 849 q 1374 836 1304 836 q 1538 850 1450 836 q 1535 457 1535 703 l 1535 108 q 1503 -63 1535 -1 q 1404 -151 1471 -125 q 1225 -176 1338 -176 z "}}}
